<?xml version="1.0" encoding="UTF-8"?>
<!DOCTYPE svg PUBLIC "-//W3C//DTD SVG 1.1//EN" "http://www.w3.org/Graphics/SVG/1.1/DTD/svg11.dtd">
<!-- Creator: CorelDRAW 2021 (64 Bit) -->
<svg xmlns="http://www.w3.org/2000/svg" xml:space="preserve" width="753px" height="752px" version="1.1" style="shape-rendering:geometricPrecision; text-rendering:geometricPrecision; image-rendering:optimizeQuality; fill-rule:evenodd; clip-rule:evenodd"
viewBox="0 0 81.8 81.69"
 xmlns:xlink="http://www.w3.org/1999/xlink"
 xmlns:xodm="http://www.corel.com/coreldraw/odm/2003">
 <defs>
  <style type="text/css">
   <![CDATA[
    .fil6 {fill:black}
    .fil2 {fill:#373435}
    .fil1 {fill:#B8B4B6}
    .fil4 {fill:#CD8E64}
    .fil7 {fill:#F8AC92}
    .fil3 {fill:#FD9833}
    .fil5 {fill:#FE0000}
    .fil0 {fill:white}
   ]]>
  </style>
 </defs>
 <g id="Camada_x0020_1">
  <metadata id="CorelCorpID_0Corel-Layer"/>
  <g id="_2180189131440">
   <path class="fil0" d="M25.64 68.36l-0.48 0.19c-0.21,3.26 -2.73,3.27 -4.74,3.27 -1.59,0 -6.63,0.22 -7.77,-0.27 -2.38,-1.01 -1.97,-3.14 -1.97,-6.04l0 -16.19c0,-1.22 -0.16,-2.57 0.34,-3.63 0.39,-0.82 1.17,-1.51 2.32,-1.73 0.72,-0.14 6.72,-0.06 7.95,-0.06 2.82,0 4.05,1.46 3.85,4.33 2.67,-0.29 4.17,0.69 6.2,1.58 2.58,1.12 4.03,0.48 6.72,-0.01 1.84,-0.33 5.2,-1.15 6.92,-1.13 1.6,0.02 3.31,0.89 4.13,1.94 0.26,0.32 0.67,0.83 0.84,1.25 0.8,-0.15 3.41,-1.52 4.31,-1.94 1.41,-0.66 2.87,-1.28 4.24,-1.96 3.54,-1.75 6.1,-2.2 9.43,0.13 1.26,0.89 4.22,3.61 3.07,5.74 -0.44,0.82 -0.88,0.96 -1.68,1.47 -2.53,1.64 -5.14,3.17 -7.69,4.81 -3.68,2.37 -12,7.41 -15.85,9.13 -7.53,3.37 -7.79,0.99 -14.54,-0.75 -2.26,-0.59 -3.36,-0.25 -5.6,-0.13zm28.46 -38.92c0.39,0.36 3.7,4.4 3.81,4.71 -0.57,0.37 -1.07,0.93 -1.64,1.25 -0.32,-0.29 -0.68,-0.7 -0.96,-1.09l-2.85 -3.43c0.21,-0.41 1.27,-1.22 1.64,-1.44zm-12.47 3.98c-0.3,-0.5 -0.81,-1.26 -1.04,-1.81 0.29,-0.32 0.95,-0.61 1.36,-0.85 0.88,-0.5 3.81,-2.29 4.33,-2.44l1.05 1.77c-0.43,0.4 -4.9,2.92 -5.7,3.33zm12.13 -7.18c2.9,0.17 5.8,0.42 8.69,0.65l6.42 0.48c0.69,0.08 1.33,0.62 0.76,1.19 -0.48,0.48 -3.25,0.03 -4.11,-0.04l-10.77 -0.83c-1.25,-0.07 -0.94,-0.09 -0.99,-1.45zm7.09 -5.83l0.84 1.96 -5.03 2.23 -0.84 -1.98 5.03 -2.21zm-14.57 -2.94c0.41,0.31 3.9,5.15 3.99,5.37 -0.21,0.18 -0.57,0.39 -0.86,0.61 -0.4,0.33 -0.5,0.39 -0.83,0.62 -0.35,-0.37 -0.65,-0.89 -1.03,-1.34 -0.89,-1.05 -2.06,-2.88 -2.96,-4l1.69 -1.26zm-18.16 5.64l0.02 1.16 18.35 1.49c0.94,0.07 1.92,0.05 1.85,1.1 -0.67,0.56 -1.13,0.37 -2.17,0.29 -0.86,-0.07 -1.74,-0.15 -2.61,-0.22l-10.21 -0.85c-1.49,-0.12 -3.64,-0.43 -5.05,-0.39 0.93,1.91 -0.34,1.57 -0.17,2.54 0.06,0.33 0.33,0.54 0.38,0.92 0.12,0.91 -0.76,0.88 -0.29,1.83 0.38,0.78 0.63,0.82 0.23,1.83 0.44,0.52 0.81,0.68 1.34,1.17l3.54 2.98c0.37,0.3 0.38,0.3 0.93,0.15 0,0.23 -0.01,0.32 0.04,0.54 0.23,0.91 0.05,-0.17 -0.01,1.13 -0.09,1.76 -2.06,2.45 -3.77,2.93 -4.78,1.33 -11.14,1.36 -15.94,0.09 -1.51,-0.39 -3.76,-1.2 -3.87,-2.91 -0.01,-0.19 0.01,-0.34 -0.02,-0.53 -0.02,-0.18 -0.1,-0.38 -0.1,-0.38l0.2 -0.9c0.68,0.24 0.62,0.09 1.56,-0.72 1.19,-1.02 3.51,-3.01 4.52,-3.7l0.01 -2.35c-0.03,-0.14 -1.17,-1.11 -0.4,-2.1 0.43,-0.56 0.31,0.09 0.4,-0.62 -0.28,-0.43 -0.7,-0.31 -0.71,-1.19 -0.01,-0.97 0.62,-0.78 0.71,-1.2 -0.02,-0.91 -0.21,-0.17 -0.53,-1.03 -0.22,-0.58 -0.09,-0.85 0.05,-1.36 -0.5,-0.27 -0.91,-0.6 -1.42,-0.96 -0.49,-0.34 -0.98,-0.63 -1.43,-0.96 -0.52,-0.39 -0.97,-0.62 -1.44,-0.96 -0.54,-0.38 -0.9,-0.8 -1.38,-1.11 -0.03,-0.55 0.06,-2.23 0.26,-2.62 0.27,-0.53 0.87,-1.02 1.47,-1.35 4.58,-2.54 18.58,-2.23 21.22,0.79 0.59,0.68 0.56,1.12 0.48,2.18 -0.14,1.77 -1.5,2.24 -2.67,3.03 -0.66,0.44 -2.93,2.09 -3.37,2.26zm18.16 17.08l-1.99 -0.82c0.29,-0.92 0.9,-2.14 1.28,-3.03l9 -20.87 1.94 0.82 -10.23 23.9zm-40.75 -34.34c-0.18,14.17 -0.02,29.49 0,43.8l0.04 25.2c0,0.96 0.17,1.42 1.06,1.42l68.76 0c0.87,0 0.96,-0.59 0.96,-1.42l0 -68.01c0,-0.67 -0.11,-0.91 -0.39,-1.3l-69.44 -0.05c-0.48,0 -0.72,0.21 -0.99,0.36z"/>
   <path class="fil1" d="M5.53 5.85c0.27,-0.15 0.51,-0.36 0.99,-0.36l69.44 0.05c0.28,0.39 0.39,0.63 0.39,1.3l0 68.01c0,0.83 -0.09,1.42 -0.96,1.42l-68.76 0c-0.89,0 -1.06,-0.46 -1.06,-1.42l-0.04 -25.2c-0.02,-14.31 -0.18,-29.63 0,-43.8zm-5.53 0.45l0 30.42c0,3.43 0.11,6.53 0.11,9.99 0,6.74 0,13.47 0,20.21 0,2.49 -0.25,8.05 0.19,9.91 0.59,2.52 2.94,4.86 5.35,4.86l70.61 0c2.8,0 5.54,-3.17 5.54,-6.19l0 -69.09c0,-2.57 -1.63,-4.9 -3.62,-5.83 -0.68,-0.32 -1.72,-0.58 -2.68,-0.58l-69.09 0c-3.23,0 -6.41,2.53 -6.41,6.3z"/>
   <path class="fil0" d="M50.69 53.34c0.48,1.37 -0.79,2.57 -1.53,2.99 -1.09,0.6 -2.67,0.66 -4.07,0.55 -1.67,-0.13 -2.81,-0.17 -4.51,0.01 -1.33,0.14 -2.76,0.41 -4.07,0.47l-0.1 -1.28c2.34,-0.23 4.65,-0.7 7.05,-0.63 2.4,0.07 4.75,0.81 5.98,-1.26 0.14,-2.33 -1.93,-3.83 -4.15,-4.07 -1.37,-0.15 -5.49,0.78 -7.04,1.07 -2.57,0.48 -4.47,1.08 -6.98,0.1 -2.23,-0.87 -3.26,-1.92 -6.13,-1.66l0.01 17.39c4.66,-0.57 5.91,-0.2 9.89,1.25 4.01,1.47 5.28,1.85 9.31,0.09 2.71,-1.19 5.27,-2.65 7.68,-4.06 5.01,-2.92 9.61,-5.89 14.53,-8.93 2.67,-1.65 4.08,-2.03 2.87,-3.68 -0.79,-1.08 -0.84,-1.31 -2.08,-2.26 -3.55,-2.71 -5.79,-1.29 -8.69,-0.01l-7.57 3.51c-0.6,0.33 -0.21,-0.01 -0.4,0.41z"/>
   <path class="fil1" d="M21.94 68.55c-0.37,0.12 -7.53,0.14 -8.05,0.01 -0.15,-2.46 -0.01,-9.73 -0.01,-12.72l-0.01 -8.05c-0.01,-0.82 -0.05,-0.7 0.79,-0.69l6.42 0c1.08,-0.01 0.87,-0.4 0.87,2.22 0,6.18 0.15,13.26 -0.01,19.23zm3.7 -0.19l-0.54 0 0.05 -1.34 -0.01 -17.39 0 -1.4c0.2,-2.87 -1.03,-4.33 -3.85,-4.33 -1.23,0 -7.23,-0.08 -7.95,0.06 -1.15,0.22 -1.93,0.91 -2.32,1.73 -0.5,1.06 -0.34,2.41 -0.34,3.63l0 16.19c0,2.9 -0.41,5.03 1.97,6.04 1.14,0.49 6.18,0.27 7.77,0.27 2.01,0 4.53,-0.01 4.74,-3.27l0.48 -0.19z"/>
   <path class="fil2" d="M11.79 38.66c1.27,0.27 2.74,0.92 5,1.37 1.81,0.36 3.77,0.56 5.7,0.56 1.94,0 3.86,-0.19 5.71,-0.55 1.42,-0.28 4.86,-1.33 5.01,-1.35 -0.1,2.3 -8.1,2.92 -10.61,2.95 -1.58,0.02 -10.62,-0.33 -10.81,-2.98zm0.42 -0.96c0.59,-0.65 1.29,-1.12 1.94,-1.72 0.65,-0.6 1.35,-1.13 2.03,-1.66 1.29,-1.03 0.58,-0.97 2.72,-0.97l7.28 0c2.14,0 1.35,0.06 2.63,0.95l2.01 1.69c0.4,0.38 0.66,0.52 1.02,0.83 0.48,0.42 0.76,0.53 0.93,0.88 -1.93,1.22 -8.01,1.89 -10.39,1.87 -2.43,-0.01 -8.36,-0.78 -10.17,-1.87zm5.24 -7.43c1.41,0.28 3.02,0.79 4.45,1.17 0.77,0.2 1.48,0.39 2.23,0.6 0.59,0.16 1.65,0.51 2.14,0.61l-8.84 -0.02 0.02 -2.36zm0.09 -0.55c-0.72,-0.19 -0.87,-0.26 -0.68,-1.17l11.09 2.89c0.09,0.36 0.18,0.62 0.05,1.02 -0.72,-0.06 -8.82,-2.33 -10.46,-2.74zm0.71 -1.36c-0.7,-0.18 -0.83,-0.05 -0.82,-0.79l10.14 2.62 0 0.56 -9.32 -2.39zm-1.5 -2.29c1.01,0 9.02,2.3 11.08,2.69 0.11,0.36 0.17,0.5 0.06,0.88 -0.61,-0.05 -7.63,-1.9 -8.82,-2.22 -2.22,-0.58 -2.45,-0.33 -2.32,-1.35zm0.67 -1.16c0.59,0.01 6.53,1.72 7.92,2.11 2.01,0.56 2.23,0.32 2.22,1.13l-10.13 -2.57 -0.01 -0.67zm10.67 0.08c0.14,-0.11 0.05,-0.17 0.69,-0.14 0.2,0.01 0.45,0.05 0.66,0.07l16.07 1.3c0.98,0.08 1.93,-0.01 2.25,0.44 -0.9,0.12 -14.89,-1.17 -17.34,-1.37l-2.33 -0.3zm-11.22 -1.82c0.88,0.13 2.15,0.53 3.06,0.78l6.1 1.62c1.47,0.38 2.37,0.35 1.97,1.56 -0.61,-0.04 -5.07,-1.34 -6.06,-1.6l-4.61 -1.25c-0.59,-0.19 -0.63,-0.5 -0.46,-1.11zm10.66 2.21c-0.97,-0.16 -7.87,-1.97 -8.32,-2.26l0.53 -0.02 7.42 -0.01 0.42 0.04 -0.05 2.25zm-11.29 -3.71c0.74,0 3.16,0.69 6.36,0.66 2.48,-0.02 4.07,-0.44 6.32,-0.8 -1.07,0.89 -0.99,0.87 -2.74,0.86 -1.21,0 -2.39,-0.05 -3.58,-0.06 -1.2,-0.01 -2.39,0.06 -3.59,0.06 -2.83,0 -1.54,-0.1 -2.77,-0.72zm14.68 -2.16c0.82,-0.3 1.51,-0.78 2.13,-1.01 -0.5,1.11 -3.12,1.87 -4.7,2.25 -4.39,1.03 -10.85,0.95 -14.94,-1.13 -0.62,-0.32 -1.78,-0.9 -1.79,-1.59 0.65,0.22 1.47,0.71 2.25,1.01 4.38,1.68 9.87,1.89 14.44,1.13 0.93,-0.15 1.79,-0.37 2.61,-0.66zm-10.94 -5.44c3.64,-0.27 9.08,0.02 12.05,1.48 2.53,1.24 0.66,2.36 -1.18,3.03 -1.59,0.58 -3.9,0.88 -5.76,0.98 -4.31,0.24 -8.22,-0.05 -11.79,-1.69 -1.2,-0.55 -2.06,-0.81 -1.32,-1.66 1.2,-1.39 6.16,-2 8,-2.14zm8.14 9.04c0.44,-0.17 2.71,-1.82 3.37,-2.26 1.17,-0.79 2.53,-1.26 2.67,-3.03 0.08,-1.06 0.11,-1.5 -0.48,-2.18 -2.64,-3.02 -16.64,-3.33 -21.22,-0.79 -0.6,0.33 -1.2,0.82 -1.47,1.35 -0.2,0.39 -0.29,2.07 -0.26,2.62 0.48,0.31 0.84,0.73 1.38,1.11 0.47,0.34 0.92,0.57 1.44,0.96 0.45,0.33 0.94,0.62 1.43,0.96 0.51,0.36 0.92,0.69 1.42,0.96 -0.14,0.51 -0.27,0.78 -0.05,1.36 0.32,0.86 0.51,0.12 0.53,1.03 -0.09,0.42 -0.72,0.23 -0.71,1.2 0.01,0.88 0.43,0.76 0.71,1.19 -0.09,0.71 0.03,0.06 -0.4,0.62 -0.77,0.99 0.37,1.96 0.4,2.1l-0.01 2.35c-1.01,0.69 -3.33,2.68 -4.52,3.7 -0.94,0.81 -0.88,0.96 -1.56,0.72l-0.2 0.9c0,0 0.08,0.2 0.1,0.38 0.03,0.19 0.01,0.34 0.02,0.53 0.11,1.71 2.36,2.52 3.87,2.91 4.8,1.27 11.16,1.24 15.94,-0.09 1.71,-0.48 3.68,-1.17 3.77,-2.93 0.06,-1.3 0.24,-0.22 0.01,-1.13 -0.05,-0.22 -0.04,-0.31 -0.04,-0.54 -0.55,0.15 -0.56,0.15 -0.93,-0.15l-3.54 -2.98c-0.53,-0.49 -0.9,-0.65 -1.34,-1.17 0.4,-1.01 0.15,-1.05 -0.23,-1.83 -0.47,-0.95 0.41,-0.92 0.29,-1.83 -0.05,-0.38 -0.32,-0.59 -0.38,-0.92 -0.17,-0.97 1.1,-0.63 0.17,-2.54 1.41,-0.04 3.56,0.27 5.05,0.39l10.21 0.85c0.87,0.07 1.75,0.15 2.61,0.22 1.04,0.08 1.5,0.27 2.17,-0.29 0.07,-1.05 -0.91,-1.03 -1.85,-1.1l-18.35 -1.49 -0.02 -1.16z"/>
   <path class="fil0" d="M21.94 68.55c0.16,-5.97 0.01,-13.05 0.01,-19.23 0,-2.62 0.21,-2.23 -0.87,-2.22l-6.42 0c-0.84,-0.01 -0.8,-0.13 -0.79,0.69l0.01 8.05c0,2.99 -0.14,10.26 0.01,12.72 0.52,0.13 7.68,0.11 8.05,-0.01z"/>
   <path class="fil2" d="M25.14 48.23l0 1.4c2.87,-0.26 3.9,0.79 6.13,1.66 2.51,0.98 4.41,0.38 6.98,-0.1 1.55,-0.29 5.67,-1.22 7.04,-1.07 2.22,0.24 4.29,1.74 4.15,4.07l0.16 -0.3c0.01,-0.03 0.02,-0.06 0.02,-0.09 0.01,-0.01 0.03,-0.26 0.02,-0.27l0.89 -0.49c0.05,0.57 0,0.02 0.16,0.3 0.19,-0.42 -0.2,-0.08 0.4,-0.41l7.57 -3.51c2.9,-1.28 5.14,-2.7 8.69,0.01 1.24,0.95 1.29,1.18 2.08,2.26 1.21,1.65 -0.2,2.03 -2.87,3.68 -4.92,3.04 -9.52,6.01 -14.53,8.93 -2.41,1.41 -4.97,2.87 -7.68,4.06 -4.03,1.76 -5.3,1.38 -9.31,-0.09 -3.98,-1.45 -5.23,-1.82 -9.89,-1.25l-0.05 1.34 0.54 0c2.24,-0.12 3.34,-0.46 5.6,0.13 6.75,1.74 7.01,4.12 14.54,0.75 3.85,-1.72 12.17,-6.76 15.85,-9.13 2.55,-1.64 5.16,-3.17 7.69,-4.81 0.8,-0.51 1.24,-0.65 1.68,-1.47 1.15,-2.13 -1.81,-4.85 -3.07,-5.74 -3.33,-2.33 -5.89,-1.88 -9.43,-0.13 -1.37,0.68 -2.83,1.3 -4.24,1.96 -0.9,0.42 -3.51,1.79 -4.31,1.94 -0.17,-0.42 -0.58,-0.93 -0.84,-1.25 -0.82,-1.05 -2.53,-1.92 -4.13,-1.94 -1.72,-0.02 -5.08,0.8 -6.92,1.13 -2.69,0.49 -4.14,1.13 -6.72,0.01 -2.03,-0.89 -3.53,-1.87 -6.2,-1.58z"/>
   <path class="fil3" d="M12.21 37.7c1.81,1.09 7.74,1.86 10.17,1.87 2.38,0.02 8.46,-0.65 10.39,-1.87 -0.17,-0.35 -0.45,-0.46 -0.93,-0.88 -0.36,-0.31 -0.62,-0.45 -1.02,-0.83l-2.01 -1.69c-1.28,-0.89 -0.49,-0.95 -2.63,-0.95l-7.28 0c-2.14,0 -1.43,-0.06 -2.72,0.97 -0.68,0.53 -1.38,1.06 -2.03,1.66 -0.65,0.6 -1.35,1.07 -1.94,1.72z"/>
   <path class="fil4" d="M19.98 14.07c-1.84,0.14 -6.8,0.75 -8,2.14 -0.74,0.85 0.12,1.11 1.32,1.66 3.57,1.64 7.48,1.93 11.79,1.69 1.86,-0.1 4.17,-0.4 5.76,-0.98 1.84,-0.67 3.71,-1.79 1.18,-3.03 -2.97,-1.46 -8.41,-1.75 -12.05,-1.48z"/>
   <path class="fil5" d="M56.51 16.29l-1.94 -0.82 -9 20.87c-0.38,0.89 -0.99,2.11 -1.28,3.03l1.99 0.82 10.23 -23.9z"/>
   <path class="fil0" d="M11.79 38.66c0.19,2.65 9.23,3 10.81,2.98 2.51,-0.03 10.51,-0.65 10.61,-2.95 -0.15,0.02 -3.59,1.07 -5.01,1.35 -1.85,0.36 -3.77,0.55 -5.71,0.55 -1.93,0 -3.89,-0.2 -5.7,-0.56 -2.26,-0.45 -3.73,-1.1 -5,-1.37z"/>
   <path class="fil6" d="M49.44 54.19c-1.23,2.07 -3.58,1.33 -5.98,1.26 -2.4,-0.07 -4.71,0.4 -7.05,0.63l0.1 1.28c1.31,-0.06 2.74,-0.33 4.07,-0.47 1.7,-0.18 2.84,-0.14 4.51,-0.01 1.4,0.11 2.98,0.05 4.07,-0.55 0.74,-0.42 2.01,-1.62 1.53,-2.99 -0.16,-0.28 -0.11,0.27 -0.16,-0.3l-0.89 0.49c0.01,0.01 -0.01,0.26 -0.02,0.27 0,0.03 -0.01,0.06 -0.02,0.09l-0.16 0.3z"/>
   <path class="fil2" d="M54.33 26.94c0.03,-0.01 0.06,-0.05 0.07,-0.03l0.16 -0.05c0.03,0 0.06,-0.01 0.09,-0.01l14.39 1.12c0.21,0.11 0.07,0.01 0.18,0.17 -0.5,0.26 -11.56,-0.8 -14.03,-0.96 -0.5,-0.03 -0.69,0.06 -0.86,-0.24zm11.19 1.58c0.86,0.07 3.63,0.52 4.11,0.04 0.57,-0.57 -0.07,-1.11 -0.76,-1.19l-6.42 -0.48c-2.89,-0.23 -5.79,-0.48 -8.69,-0.65 0.05,1.36 -0.26,1.38 0.99,1.45l10.77 0.83z"/>
   <path class="fil0" d="M33.05 18.5c-0.62,0.23 -1.31,0.71 -2.13,1.01 -0.82,0.29 -1.68,0.51 -2.61,0.66 -4.57,0.76 -10.06,0.55 -14.44,-1.13 -0.78,-0.3 -1.6,-0.79 -2.25,-1.01 0.01,0.69 1.17,1.27 1.79,1.59 4.09,2.08 10.55,2.16 14.94,1.13 1.58,-0.38 4.2,-1.14 4.7,-2.25z"/>
   <path class="fil5" d="M44.59 18.73c0.9,1.12 2.07,2.95 2.96,4 0.38,0.45 0.68,0.97 1.03,1.34 0.33,-0.23 0.43,-0.29 0.83,-0.62 0.29,-0.22 0.65,-0.43 0.86,-0.61 -0.09,-0.22 -3.58,-5.06 -3.99,-5.37l-1.69 1.26z"/>
   <path class="fil5" d="M41.63 33.42c0.8,-0.41 5.27,-2.93 5.7,-3.33l-1.05 -1.77c-0.52,0.15 -3.45,1.94 -4.33,2.44 -0.41,0.24 -1.07,0.53 -1.36,0.85 0.23,0.55 0.74,1.31 1.04,1.81z"/>
   <path class="fil5" d="M54.1 29.44c-0.37,0.22 -1.43,1.03 -1.64,1.44l2.85 3.43c0.28,0.39 0.64,0.8 0.96,1.09 0.57,-0.32 1.07,-0.88 1.64,-1.25 -0.11,-0.31 -3.42,-4.35 -3.81,-4.71z"/>
   <path class="fil0" d="M28 27.13c0.4,-1.21 -0.5,-1.18 -1.97,-1.56l-6.1 -1.62c-0.91,-0.25 -2.18,-0.65 -3.06,-0.78 -0.17,0.61 -0.13,0.92 0.46,1.11l4.61 1.25c0.99,0.26 5.45,1.56 6.06,1.6z"/>
   <polygon class="fil5" points="55.82,22.62 56.66,24.6 61.69,22.37 60.85,20.41 "/>
   <path class="fil0" d="M28 32.46c0.13,-0.4 0.04,-0.66 -0.05,-1.02l-11.09 -2.89c-0.19,0.91 -0.04,0.98 0.68,1.17 1.64,0.41 9.74,2.68 10.46,2.74z"/>
   <path class="fil7" d="M17.43 32.63l8.84 0.02c-0.49,-0.1 -1.55,-0.45 -2.14,-0.61 -0.75,-0.21 -1.46,-0.4 -2.23,-0.6 -1.43,-0.38 -3.04,-0.89 -4.45,-1.17l-0.02 2.36z"/>
   <path class="fil7" d="M27.53 25.38l0.05 -2.25 -0.42 -0.04 -7.42 0.01 -0.53 0.02c0.45,0.29 7.35,2.1 8.32,2.26z"/>
   <path class="fil0" d="M27.89 29.64c0.11,-0.38 0.05,-0.52 -0.06,-0.88 -2.06,-0.39 -10.07,-2.69 -11.08,-2.69 -0.13,1.02 0.1,0.77 2.32,1.35 1.19,0.32 8.21,2.17 8.82,2.22z"/>
   <path class="fil7" d="M17.43 25.58l10.13 2.57c0.01,-0.81 -0.21,-0.57 -2.22,-1.13 -1.39,-0.39 -7.33,-2.1 -7.92,-2.11l0.01 0.67z"/>
   <path class="fil0" d="M28.09 24.99l2.33 0.3c2.45,0.2 16.44,1.49 17.34,1.37 -0.32,-0.45 -1.27,-0.36 -2.25,-0.44l-16.07 -1.3c-0.21,-0.02 -0.46,-0.06 -0.66,-0.07 -0.64,-0.03 -0.55,0.03 -0.69,0.14z"/>
   <path class="fil7" d="M27.57 30.75l0 -0.56 -10.14 -2.62c-0.01,0.74 0.12,0.61 0.82,0.79l9.32 2.39z"/>
   <path class="fil0" d="M54.33 26.94c0.17,0.3 0.36,0.21 0.86,0.24 2.47,0.16 13.53,1.22 14.03,0.96 -0.11,-0.16 0.03,-0.06 -0.18,-0.17l-14.39 -1.12c-0.03,0 -0.06,0.01 -0.09,0.01l-0.16 0.05c-0.01,-0.02 -0.04,0.02 -0.07,0.03z"/>
   <path class="fil3" d="M16.24 21.67c1.23,0.62 -0.06,0.72 2.77,0.72 1.2,0 2.39,-0.07 3.59,-0.06 1.19,0.01 2.37,0.06 3.58,0.06 1.75,0.01 1.67,0.03 2.74,-0.86 -2.25,0.36 -3.84,0.78 -6.32,0.8 -3.2,0.03 -5.62,-0.66 -6.36,-0.66z"/>
  </g>
 </g>
</svg>
