<?xml version="1.0" encoding="UTF-8"?>
<!DOCTYPE svg PUBLIC "-//W3C//DTD SVG 1.1//EN" "http://www.w3.org/Graphics/SVG/1.1/DTD/svg11.dtd">
<!-- Creator: CorelDRAW 2021 (64 Bit) -->
<svg xmlns="http://www.w3.org/2000/svg" xml:space="preserve" width="753px" height="752px" version="1.1" style="shape-rendering:geometricPrecision; text-rendering:geometricPrecision; image-rendering:optimizeQuality; fill-rule:evenodd; clip-rule:evenodd"
viewBox="0 0 51.55 51.48"
 xmlns:xlink="http://www.w3.org/1999/xlink"
 xmlns:xodm="http://www.corel.com/coreldraw/odm/2003">
 <defs>
  <style type="text/css">
   <![CDATA[
    .fil2 {fill:black}
    .fil5 {fill:#008CFF}
    .fil7 {fill:#04F9FD}
    .fil3 {fill:#333333}
    .fil6 {fill:#60FE04}
    .fil15 {fill:#615E5C}
    .fil14 {fill:#A7A786}
    .fil1 {fill:#B7B4B5}
    .fil11 {fill:#BF08FC}
    .fil13 {fill:#D2AD6D}
    .fil8 {fill:#FA0404}
    .fil10 {fill:#FDFD00}
    .fil4 {fill:#FDFDCA}
    .fil9 {fill:#FE9800}
    .fil0 {fill:#FEFEFE}
    .fil12 {fill:#FF4CE7}
   ]]>
  </style>
 </defs>
 <g id="Camada_x0020_1">
  <metadata id="CorelCorpID_0Corel-Layer"/>
  <g id="_2216601017840">
   <path class="fil0" d="M16.97 43.88c-0.34,0.54 0.18,2.17 -2.94,2.17 -0.99,0 -4.25,0.13 -4.96,-0.14 -0.52,-0.2 -1.04,-0.77 -1.21,-1.34 -0.19,-0.66 -0.09,-11.17 -0.09,-12.67 0,-1.21 -0.22,-3.11 1.75,-3.42 0.52,-0.08 4.23,-0.03 5.06,-0.03 1.46,0 2.31,0.85 2.31,2.15 0,0.34 -0.09,0.44 0.15,0.52 0.94,0.14 1.17,-0.02 2.15,0.35 0.62,0.23 1.16,0.54 1.76,0.77 1.59,0.63 2.57,0.21 4.21,-0.09 2.64,-0.48 5.15,-1.5 6.87,0.58 0.19,0.24 0.35,0.49 0.55,0.73 0.41,-0.11 0.91,-0.4 1.32,-0.59 0.46,-0.21 0.91,-0.42 1.36,-0.62 1.56,-0.7 4.07,-2.19 5.74,-2.16 2.02,0.05 3.88,1.49 4.77,3.14 0.69,1.3 -0.34,1.96 -1.08,2.43 -4.34,2.77 -10.36,6.55 -14.83,8.78 -4.37,2.17 -5.69,0.35 -9.22,-0.52 -1.53,-0.38 -2.22,-0.05 -3.67,-0.04zm26.76 -19.93c-0.1,0.28 -0.3,0.88 -0.53,0.99 -0.43,0.18 -1.39,-0.44 -1.22,0.97 0.06,0.44 -0.19,0.46 -0.54,0.6 -1.64,0.68 -0.77,-0.34 -1.74,-0.38 -0.56,-0.02 -0.56,0.39 -0.82,0.62 -0.46,0.07 -1.26,-0.32 -1.48,-0.55 -0.09,-0.46 0.2,-0.61 -0.1,-1 -0.23,-0.3 -0.41,-0.29 -0.84,-0.24 -0.43,0.05 -0.47,-0.17 -0.61,-0.51 -0.12,-0.31 -0.28,-0.54 -0.27,-0.9 0.24,-0.37 0.74,-0.4 0.63,-1.02 -0.09,-0.52 -0.69,-0.41 -0.62,-0.96 0.01,-0.14 0.39,-1.02 0.48,-1.11 0.32,-0.3 0.78,0.18 1.18,-0.25 0.39,-0.41 -0.07,-0.87 0.27,-1.18 0.1,-0.09 0.97,-0.46 1.1,-0.47 0.59,-0.05 0.27,0.5 0.92,0.63 0.57,0.12 0.7,-0.3 0.88,-0.59 0.46,-0.09 0.72,0.1 1.15,0.28 0.69,0.28 0.32,0.36 0.38,0.97 0.05,0.51 0.42,0.6 0.94,0.53 0.52,-0.07 0.54,0.29 0.71,0.71 0.19,0.48 0.38,0.7 -0.09,0.99 -0.29,0.17 -0.55,0.58 -0.24,0.98 0.24,0.32 0.69,0.27 0.46,0.89zm-28.36 0.04c-0.19,0.47 -0.28,1.02 -0.77,0.97 -0.62,-0.06 -1.08,0 -0.99,0.77 0.09,0.73 -0.17,0.62 -0.81,0.9 -0.95,0.39 -0.63,-0.18 -1.14,-0.44 -0.7,-0.35 -0.9,0.36 -1.14,0.55 -0.45,0.07 -1.26,-0.34 -1.47,-0.59 -0.06,-0.42 0.19,-0.57 -0.08,-0.96 -0.5,-0.72 -1.02,0.34 -1.45,-0.74 -0.69,-1.69 0.28,-0.8 0.36,-1.73 0.06,-0.6 -0.41,-0.56 -0.59,-0.86 -0.12,-0.3 0.2,-1.12 0.4,-1.37 0.31,-0.39 0.91,0.2 1.31,-0.4 0.38,-0.59 -0.45,-0.85 0.48,-1.23 0.53,-0.22 0.96,-0.56 1.27,-0.04 0.28,0.48 0.83,0.54 1.19,0.03 0.4,-0.56 0.65,-0.23 1.25,0 0.93,0.35 0.17,0.58 0.48,1.23 0.31,0.62 0.98,0.1 1.28,0.35 0.12,0.1 0.54,1.09 0.5,1.32 -0.08,0.4 -0.85,0.33 -0.61,1.13 0.17,0.59 0.87,0.27 0.53,1.11zm10.78 -14.81l-0.02 1.43 0.34 0.16c0.99,-0.05 2.01,0.74 2.68,1.27 0.39,-0.2 0.91,-0.95 1.59,-1.42 -0.2,-0.55 -0.47,-0.83 -0.32,-1.63 0.29,-1.51 2.22,-2.28 3.47,-1.06 1.23,1.2 0.52,3.25 -1.1,3.5 -0.86,0.13 -1.02,-0.18 -1.58,-0.33l-1.54 1.45c0.56,0.77 1.05,1.66 1.17,2.98l2.17 0.01c0.11,-1.09 0.89,-1.89 2.04,-1.91 1.09,-0.02 1.96,0.84 2.07,1.84 0.27,2.61 -3.51,3.11 -4.04,0.75l-2.24 0.04c-0.06,0.66 -0.19,1.15 -0.42,1.7 -0.26,0.66 -0.68,1.08 -0.79,1.37l1.52 1.44c0.58,-0.2 0.89,-0.41 1.63,-0.23 0.53,0.14 0.93,0.47 1.14,0.78 1.54,2.24 -1.5,4.38 -3.1,2.7 -1.21,-1.27 -0.3,-2.45 -0.2,-2.83l-1.44 -1.41c-1.35,0.69 -0.82,0.93 -3.22,1.32l-0.07 2.11c0.62,0.31 0.84,0.3 1.17,0.79 1.08,1.62 -0.21,3.43 -1.85,3.29 -1.03,-0.09 -1.9,-0.99 -1.88,-2.1 0.01,-0.57 0.32,-1.16 0.57,-1.42 0.44,-0.46 0.78,-0.36 1.28,-0.63l0.09 -2.06c-0.91,-0.05 -1.82,-0.38 -2.55,-0.88 -0.24,-0.15 -0.42,-0.35 -0.61,-0.47 -0.59,0.39 -1.15,1.15 -1.56,1.43 0.23,0.52 0.48,0.78 0.37,1.55 -0.24,1.8 -2.39,2.23 -3.41,1.26 -0.7,-0.67 -1.03,-1.89 -0.25,-2.81 1.08,-1.28 2.09,-0.7 2.8,-0.48 0.56,-0.42 0.75,-0.68 1.16,-1.1 0.15,-0.14 0.25,-0.22 0.38,-0.36 -0.59,-0.85 -1.05,-1.56 -1.17,-2.99l-2.15 0c-0.38,2.47 -4.1,2.16 -4.1,-0.35 0,-2.5 3.72,-2.82 4.1,-0.34l2.15 -0.04c0.11,-1.14 0.55,-2.25 1.26,-3.06l-1.56 -1.48c-2.26,1.29 -4.31,-1.56 -2.51,-3.27 1.19,-1.14 3.26,-0.38 3.43,1.29 0.08,0.8 -0.2,0.98 -0.38,1.52l1.51 1.43c0.27,-0.17 0.4,-0.3 0.7,-0.48 1.26,-0.75 1.47,-0.52 2.55,-0.81l0.03 -2.15c-0.39,-0.26 -0.58,-0.06 -1.22,-0.76 -0.33,-0.37 -0.53,-0.88 -0.48,-1.5 0.19,-2.52 3.99,-2.49 4.11,0.07 0.08,1.67 -1.39,1.98 -1.72,2.19l0 0.69zm17.46 -0.69c-0.29,0.23 -0.65,0.48 -0.35,1.03 0.2,0.34 0.75,0.2 0.49,0.89 -0.68,1.87 -0.79,0.55 -1.51,1.1 -0.26,0.19 -0.29,0.43 -0.24,0.84 0.09,0.71 -1.41,0.89 -1.41,0.89 -0.38,-0.22 -0.36,-0.65 -0.89,-0.65 -0.46,0 -0.55,0.39 -0.82,0.62 -0.11,0.05 -1.56,-0.17 -1.48,-0.86 0.17,-1.39 -1.03,-0.83 -1.23,-0.95 -0.21,-0.21 -0.62,-1.04 -0.55,-1.45 0.24,-0.29 0.74,-0.31 0.61,-0.98 -0.09,-0.49 -0.64,-0.4 -0.63,-0.88 0.01,-0.11 0.36,-0.99 0.43,-1.09 0.28,-0.42 0.81,0.09 1.23,-0.27 0.41,-0.36 -0.04,-0.9 0.23,-1.2 0.1,-0.11 0.83,-0.42 1.04,-0.48 0.62,-0.18 0.45,0.35 0.85,0.55 0.51,0.25 0.76,-0.08 0.98,-0.36 0.31,-0.4 0.61,-0.16 1.06,0.03 0.6,0.25 0.63,0.16 0.55,0.84 -0.05,0.48 0.22,0.79 0.67,0.77 0.7,-0.02 0.62,-0.23 0.91,0.5 0.18,0.45 0.47,0.8 0.06,1.11zm-28.68 1.01c0.23,0.34 0.71,0.26 0.48,0.91 -0.12,0.34 -0.31,0.8 -0.5,1 -0.15,0.09 -1.21,-0.3 -1.29,0.57 -0.06,0.64 0.48,0.61 -0.75,1.1 -1.04,0.42 -0.62,-0.07 -1.18,-0.4 -0.63,-0.38 -0.88,0.35 -1.22,0.55 -0.33,0.01 -0.67,-0.17 -0.96,-0.29 -0.35,-0.15 -0.5,-0.21 -0.44,-0.65 0.18,-1.26 -1.1,-0.8 -1.25,-0.88 -0.21,-0.21 -0.61,-1.04 -0.54,-1.47 0.24,-0.28 0.74,-0.3 0.61,-0.97 -0.1,-0.48 -0.65,-0.4 -0.63,-0.88 0,-0.11 0.36,-1 0.42,-1.09 0.29,-0.42 0.82,0.09 1.23,-0.28 0.65,-0.56 -0.7,-1.11 1.28,-1.67 0.73,-0.21 0.51,0.92 1.46,0.58 0.3,-0.11 0.21,-0.15 0.37,-0.39 0.27,-0.41 0.64,-0.14 1.05,0.03 0.61,0.25 0.63,0.17 0.56,0.84 -0.05,0.48 0.21,0.79 0.67,0.77 0.68,-0.02 0.62,-0.22 0.91,0.5 0.17,0.42 0.46,0.8 0.06,1.11 -0.27,0.21 -0.69,0.5 -0.34,1.01zm-11.48 -5.78c-0.08,3.68 -0.01,7.45 -0.01,11.13l0.05 30.6c0,0.83 -0.14,2 0.23,2.56 0.82,0.11 15.43,0.02 16.68,0.02l25.12 0c0.63,0 1.45,0.05 2.06,0.01 0.66,-0.05 0.52,-0.91 0.52,-1.56l0 -41.89c0,-1.41 0.05,-1.16 -2.99,-1.16l-39.84 0c-0.84,0 -1.3,-0.15 -1.82,0.29z"/>
   <path class="fil1" d="M3.45 3.72c0.52,-0.44 0.98,-0.29 1.82,-0.29l39.84 0c3.04,0 2.99,-0.25 2.99,1.16l0 41.89c0,0.65 0.14,1.51 -0.52,1.56 -0.61,0.04 -1.43,-0.01 -2.06,-0.01l-25.12 0c-1.25,0 -15.86,0.09 -16.68,-0.02 -0.37,-0.56 -0.23,-1.73 -0.23,-2.56l-0.05 -30.6c0,-3.68 -0.07,-7.45 0.01,-11.13zm-3.45 -0.09l0.07 40.59c0,1.02 -0.1,2.75 0.02,3.68 0.23,1.86 1.7,3.58 3.81,3.58l43.88 0c2.18,0 3.77,-2.03 3.77,-4.25l0 -43.12c0,-1.14 -0.5,-2.25 -1.08,-2.83 -0.7,-0.69 -1.44,-1.28 -2.62,-1.28l-44.09 0c-1,0 -2.04,0.61 -2.58,1.11 -0.57,0.53 -1.18,1.45 -1.18,2.52z"/>
   <path class="fil0" d="M33.01 34.33c0.29,1.88 -1.6,2.42 -3.37,2.32 -1.02,-0.07 -1.7,-0.14 -2.74,-0.04 -0.64,0.06 -2.02,0.32 -2.55,0.26 -0.14,0.11 -0.06,0.08 -0.3,0.07l-0.03 -0.22 0.01 -0.58c1.08,-0.23 3.25,-0.44 4.38,-0.41 0.79,0.02 1.52,0.17 2.33,0.08 0.84,-0.1 1.1,-0.31 1.46,-0.83 0.15,-1.44 -1.19,-2.42 -2.5,-2.6 -2.06,-0.27 -6.28,1.65 -8.69,0.82 -1.57,-0.54 -1.95,-1.16 -3.93,-1.17l-0.18 0.14c0,1.09 -0.12,10.55 0.06,10.8 0.86,0.11 1.76,-0.33 3.4,-0.02 3.66,0.71 4.75,2.72 8.74,0.87 4.2,-1.95 10.96,-6.27 15.08,-8.88 0.81,-0.51 1.44,-0.74 0.26,-2.09 -0.91,-1.04 -2.1,-1.94 -3.71,-1.87 -1.05,0.05 -1.91,0.59 -2.75,0.98 -0.59,0.27 -4.85,2.16 -4.97,2.37z"/>
   <path class="fil2" d="M26.87 25.6c-0.55,1.95 -3.4,1.21 -2.95,-0.72 0.16,-0.73 0.92,-1.35 1.87,-1.11 0.66,0.16 1.33,0.93 1.08,1.83zm3.9 -2.8c-0.32,-2.03 2.66,-2.41 2.99,-0.55 0.37,2.11 -2.69,2.43 -2.99,0.55zm-10.44 0.06c-0.57,1.85 -3.44,1.14 -2.91,-0.85 0.52,-1.94 3.52,-1.08 2.91,0.85zm3.06 -3.1l4.49 0c-0.01,0.02 -0.03,0.02 -0.04,0.04 -0.11,0.35 -2.93,1.1 -4.32,0.07 -0.1,-0.07 -0.07,-0.04 -0.13,-0.11zm1.24 -2.02l-0.65 0 -0.01 1.33 -0.54 0c-0.06,-0.4 -0.05,-1.92 0.02,-2.27 0.35,-0.16 4.18,-0.16 4.44,0.01 0.2,0.28 0.15,1.79 0.08,2.26l-0.37 0 -0.04 -1.36 -0.66 -0.05 0 1.42 -2.24 0.02 -0.03 -1.36zm-9.89 -1.72c-0.15,-2.05 2.86,-2.2 3.02,-0.28 0.17,2.05 -2.88,2.2 -3.02,0.28zm18.83 -0.07c-0.32,-2.03 2.64,-2.42 2.99,-0.54 0.17,0.94 -0.48,1.66 -1.24,1.78 -0.89,0.14 -1.63,-0.51 -1.75,-1.24zm-10.89 3.38c-0.04,-0.11 -2.39,-1.93 -1.31,-5.01 1.32,-3.73 6.74,-4.11 8.43,-0.24 0.38,0.88 0.47,1.96 0.23,2.94 -0.32,1.26 -0.86,1.59 -1.32,2.19 -0.16,-0.81 0.18,-2.26 -0.25,-2.83 -0.44,-0.57 -3.19,-0.35 -4.37,-0.35 -2.17,-0.01 -1.05,1.98 -1.41,3.3zm9.45 -11.4c0.91,-0.23 1.61,0.39 1.78,1.07 0.23,0.92 -0.37,1.69 -1.07,1.86 -1.93,0.48 -2.78,-2.42 -0.71,-2.93zm-13.58 -0.15c0.91,-0.31 1.71,0.34 1.9,1 0.27,0.9 -0.3,1.67 -0.96,1.88 -1.91,0.59 -2.89,-2.22 -0.94,-2.88zm6.79 -2.8c1.94,-0.64 2.84,2.26 0.92,2.88 -1.86,0.59 -2.84,-2.24 -0.92,-2.88zm1.13 5.79l-0.43 -0.05 0.11 -1.54 0 -0.69c0.33,-0.21 1.8,-0.52 1.72,-2.19 -0.12,-2.56 -3.92,-2.59 -4.11,-0.07 -0.05,0.62 0.15,1.13 0.48,1.5 0.64,0.7 0.83,0.5 1.22,0.76l-0.03 2.15c-1.08,0.29 -1.29,0.06 -2.55,0.81 -0.3,0.18 -0.43,0.31 -0.7,0.48l-1.51 -1.43c0.18,-0.54 0.46,-0.72 0.38,-1.52 -0.17,-1.67 -2.24,-2.43 -3.43,-1.29 -1.8,1.71 0.25,4.56 2.51,3.27l1.56 1.48c-0.71,0.81 -1.15,1.92 -1.26,3.06l-2.15 0.04c-0.38,-2.48 -4.1,-2.16 -4.1,0.34 0,2.51 3.72,2.82 4.1,0.35l2.15 0c0.12,1.43 0.58,2.14 1.17,2.99 -0.13,0.14 -0.23,0.22 -0.38,0.36 -0.41,0.42 -0.6,0.68 -1.16,1.1 -0.71,-0.22 -1.72,-0.8 -2.8,0.48 -0.78,0.92 -0.45,2.14 0.25,2.81 1.02,0.97 3.17,0.54 3.41,-1.26 0.11,-0.77 -0.14,-1.03 -0.37,-1.55 0.41,-0.28 0.97,-1.04 1.56,-1.43 0.19,0.12 0.37,0.32 0.61,0.47 0.73,0.5 1.64,0.83 2.55,0.88l-0.09 2.06c-0.5,0.27 -0.84,0.17 -1.28,0.63 -0.25,0.26 -0.56,0.85 -0.57,1.42 -0.02,1.11 0.85,2.01 1.88,2.1 1.64,0.14 2.93,-1.67 1.85,-3.29 -0.33,-0.49 -0.55,-0.48 -1.17,-0.79l0.07 -2.11c2.4,-0.39 1.87,-0.63 3.22,-1.32l1.44 1.41c-0.1,0.38 -1.01,1.56 0.2,2.83 1.6,1.68 4.64,-0.46 3.1,-2.7 -0.21,-0.31 -0.61,-0.64 -1.14,-0.78 -0.74,-0.18 -1.05,0.03 -1.63,0.23l-1.52 -1.44c0.11,-0.29 0.53,-0.71 0.79,-1.37 0.23,-0.55 0.36,-1.04 0.42,-1.7l2.24 -0.04c0.53,2.36 4.31,1.86 4.04,-0.75 -0.11,-1 -0.98,-1.86 -2.07,-1.84 -1.15,0.02 -1.93,0.82 -2.04,1.91l-2.17 -0.01c-0.12,-1.32 -0.61,-2.21 -1.17,-2.98l1.54 -1.45c0.56,0.15 0.72,0.46 1.58,0.33 1.62,-0.25 2.33,-2.3 1.1,-3.5 -1.25,-1.22 -3.18,-0.45 -3.47,1.06 -0.15,0.8 0.12,1.08 0.32,1.63 -0.68,0.47 -1.2,1.22 -1.59,1.42 -0.67,-0.53 -1.69,-1.32 -2.68,-1.27z"/>
   <path class="fil1" d="M9.8 30.48l5.08 0 0 13.51 -5.08 0.03 0 -13.54zm7.17 13.4c-0.14,-0.17 -0.01,0.07 -0.07,-0.15 -0.02,-0.06 -0.03,-0.2 -0.03,-0.26 -0.01,-0.29 -0.01,-0.33 0.09,-0.5 -0.18,-0.25 -0.06,-9.71 -0.06,-10.8l0.18 -0.14 -0.2 -0.03 0 -0.72c0.02,-0.01 0.04,-0.06 0.04,-0.04 0.01,0.01 0.03,-0.04 0.04,-0.05 0.01,-0.01 0.06,-0.05 0.08,-0.07 -0.24,-0.08 -0.15,-0.18 -0.15,-0.52 0,-1.3 -0.85,-2.15 -2.31,-2.15 -0.83,0 -4.54,-0.05 -5.06,0.03 -1.97,0.31 -1.75,2.21 -1.75,3.42 0,1.5 -0.1,12.01 0.09,12.67 0.17,0.57 0.69,1.14 1.21,1.34 0.71,0.27 3.97,0.14 4.96,0.14 3.12,0 2.6,-1.63 2.94,-2.17z"/>
   <polygon class="fil0" points="9.8,44.02 14.88,43.99 14.88,30.48 9.8,30.48 "/>
   <path class="fil3" d="M17.04 31.12c-0.02,0.02 -0.07,0.06 -0.08,0.07 -0.01,0.01 -0.03,0.06 -0.04,0.05 0,-0.02 -0.02,0.03 -0.04,0.04l0 0.72 0.2 0.03c1.98,0.01 2.36,0.63 3.93,1.17 2.41,0.83 6.63,-1.09 8.69,-0.82 1.31,0.18 2.65,1.16 2.5,2.6l0.07 -0.13c0,-0.03 0.01,-0.05 0.02,-0.07l0.03 -0.23c0.1,-0.08 0.23,-0.16 0.37,-0.23 0.28,-0.14 0.13,-0.12 0.32,0.01 0.12,-0.21 4.38,-2.1 4.97,-2.37 0.84,-0.39 1.7,-0.93 2.75,-0.98 1.61,-0.07 2.8,0.83 3.71,1.87 1.18,1.35 0.55,1.58 -0.26,2.09 -4.12,2.61 -10.88,6.93 -15.08,8.88 -3.99,1.85 -5.08,-0.16 -8.74,-0.87 -1.64,-0.31 -2.54,0.13 -3.4,0.02 -0.1,0.17 -0.1,0.21 -0.09,0.5 0,0.06 0.01,0.2 0.03,0.26 0.06,0.22 -0.07,-0.02 0.07,0.15 1.45,-0.01 2.14,-0.34 3.67,0.04 3.53,0.87 4.85,2.69 9.22,0.52 4.47,-2.23 10.49,-6.01 14.83,-8.78 0.74,-0.47 1.77,-1.13 1.08,-2.43 -0.89,-1.65 -2.75,-3.09 -4.77,-3.14 -1.67,-0.03 -4.18,1.46 -5.74,2.16 -0.45,0.2 -0.9,0.41 -1.36,0.62 -0.41,0.19 -0.91,0.48 -1.32,0.59 -0.2,-0.24 -0.36,-0.49 -0.55,-0.73 -1.72,-2.08 -4.23,-1.06 -6.87,-0.58 -1.64,0.3 -2.62,0.72 -4.21,0.09 -0.6,-0.23 -1.14,-0.54 -1.76,-0.77 -0.98,-0.37 -1.21,-0.21 -2.15,-0.35z"/>
   <path class="fil4" d="M25.19 11.75c1.3,-0.31 2.3,0.6 2.53,1.6 0.31,1.27 -0.6,2.3 -1.56,2.54 -2.71,0.68 -3.82,-3.47 -0.97,-4.14zm-2.51 7.58c0.36,-1.32 -0.76,-3.31 1.41,-3.3 1.18,0 3.93,-0.22 4.37,0.35 0.43,0.57 0.09,2.02 0.25,2.83 0.46,-0.6 1,-0.93 1.32,-2.19 0.24,-0.98 0.15,-2.06 -0.23,-2.94 -1.69,-3.87 -7.11,-3.49 -8.43,0.24 -1.08,3.08 1.27,4.9 1.31,5.01z"/>
   <path class="fil0" d="M13.04 10.92c-0.25,0.38 0.21,0.61 -0.28,0.88 -1.16,0.64 -0.76,-0.21 -1.4,-0.21 -0.67,-0.01 -0.16,0.72 -1.15,0.31 -0.94,-0.4 -0.17,-0.57 -0.55,-1.02 -0.2,-0.24 -0.51,-0.1 -0.84,-0.13 -0.87,-1.5 0.11,-0.95 0.08,-1.64 -0.03,-0.75 -0.87,0 -0.1,-1.59 0.57,-0.09 1,0.21 0.94,-0.63 -0.02,-0.39 0.04,-0.36 0.36,-0.48 0.26,-0.1 0.42,-0.2 0.72,-0.17 0.13,0.18 0.24,0.47 0.59,0.44 0.64,-0.07 0.13,-0.71 1.11,-0.31 0.98,0.39 0.1,0.63 0.59,1.05 0.22,0.19 0.54,0.06 0.82,0.1 0.81,1.59 -0.15,0.89 -0.1,1.65 0.04,0.66 0.9,0.08 0.09,1.58 -0.38,0.04 -0.69,-0.12 -0.88,0.17zm-3.57 -5.13c0.17,1.09 -0.41,1.63 -1.47,1.44l-0.33 0.85c0.17,0.19 0.63,0.34 0.64,1.02 0.01,0.56 -0.3,0.85 -0.65,1.01l0.35 0.92c1.07,-0.21 1.66,0.38 1.45,1.44l0.87 0.36c0.28,-0.31 0.37,-0.65 1.03,-0.65 0.66,0 0.75,0.36 1.03,0.64l0.87 -0.35c-0.24,-1.09 0.43,-1.61 1.47,-1.43l0.35 -0.92c-0.9,-0.37 -0.89,-1.64 -0.01,-1.96l-0.36 -0.92c-1.03,0.17 -1.65,-0.33 -1.45,-1.42l-0.86 -0.39c-0.62,0.82 -1.34,0.91 -1.96,0.14l-0.1 -0.13 -0.87 0.35z"/>
   <path class="fil0" d="M39.17 6.24c0.7,0.99 0.96,0.06 1.15,-0.01 0.16,-0.05 0.91,0.25 0.99,0.38 0.1,0.32 -0.13,0.51 0.11,0.77 0.22,0.24 0.55,0.1 0.85,0.14 0.81,1.52 -0.08,0.92 -0.11,1.59 -0.03,0.71 0.95,0.13 0.1,1.64 -0.34,0.03 -0.64,-0.11 -0.85,0.13 -0.4,0.48 0.42,0.61 -0.55,1.02 -0.99,0.41 -0.47,-0.31 -1.16,-0.31 -0.64,0 -0.23,0.85 -1.39,0.21 -0.49,-0.28 -0.04,-0.5 -0.28,-0.88 -0.19,-0.3 -0.5,-0.13 -0.87,-0.18 -0.09,-0.16 -0.19,-0.37 -0.28,-0.6 -0.32,-0.8 0.53,-0.44 0.35,-1.15 -0.16,-0.63 -0.81,0.08 -0.09,-1.47 0.57,-0.09 1.01,0.22 0.95,-0.64 -0.03,-0.38 0.03,-0.35 0.35,-0.47 0.26,-0.1 0.43,-0.2 0.73,-0.17zm-1.36 -0.45c0.2,1.09 -0.39,1.62 -1.47,1.44l-0.32 0.85 0.22 0.18c0.65,0.5 0.55,1.49 -0.24,1.85l0.36 0.92c1.05,-0.2 1.67,0.36 1.44,1.43l0.87 0.37c0.29,-0.29 0.37,-0.65 1.03,-0.65 0.66,0 0.75,0.35 1.03,0.64l0.88 -0.35c-0.22,-1.06 0.42,-1.63 1.46,-1.43l0.35 -0.92c-0.9,-0.37 -0.88,-1.64 -0.01,-1.96l-0.35 -0.93c-1.07,0.19 -1.62,-0.34 -1.46,-1.41l-0.86 -0.39c-0.28,0.31 -0.41,0.65 -1.04,0.65 -0.63,0 -0.72,-0.34 -1.02,-0.64l-0.87 0.35z"/>
   <path class="fil0" d="M9.73 20.12c1.34,-0.9 1.01,0.09 1.63,0.08 0.8,-0.02 -0.08,-0.87 1.6,-0.12 0.04,0.28 -0.1,0.64 0.13,0.85 0.22,0.21 0.48,0.06 0.77,0.12 0.19,0.23 0.42,0.7 0.38,1.08 -0.61,0.37 -0.61,0.69 0,1.06 0.03,0.38 -0.19,0.85 -0.38,1.07 -0.32,0.07 -0.6,-0.09 -0.81,0.15 -0.2,0.24 -0.04,0.5 -0.09,0.82 -1.71,0.78 -0.8,-0.18 -1.66,-0.11 -0.63,0.04 -0.13,0.93 -1.57,0.07 -0.04,-0.32 0.08,-0.61 -0.15,-0.82 -0.22,-0.19 -0.46,-0.07 -0.74,-0.09 -0.17,-0.19 -0.41,-0.65 -0.4,-1.01 0.19,-0.24 0.45,-0.22 0.45,-0.61 0,-0.38 -0.24,-0.41 -0.45,-0.62 -0.01,-0.35 0.23,-0.81 0.39,-1.01 0.28,-0.02 0.57,0.09 0.76,-0.07 0.26,-0.2 0.1,-0.49 0.14,-0.84zm-0.28 -0.81c0.2,1.07 -0.36,1.65 -1.45,1.44l-0.35 0.87c0.31,0.27 0.65,0.38 0.65,1.04 -0.01,0.69 -0.37,0.74 -0.64,1.03l0.35 0.87c1.08,-0.31 1.61,0.45 1.43,1.45l0.91 0.35c0.46,-0.88 1.57,-0.9 1.97,0l0.92 -0.35c-0.2,-1.13 0.38,-1.6 1.45,-1.46l0.35 -0.86c-0.33,-0.3 -0.65,-0.42 -0.65,-1.03 0.01,-0.61 0.32,-0.74 0.65,-1.03l-0.36 -0.88c-1.06,0.27 -1.61,-0.46 -1.43,-1.47l-0.86 -0.32c-0.28,0.23 -0.31,0.64 -1.03,0.65 -0.59,0 -0.75,-0.32 -1.02,-0.64l-0.89 0.34z"/>
   <path class="fil0" d="M38.08 20.13c0.15,-0.11 0.37,-0.2 0.59,-0.29 0.84,-0.33 0.45,0.6 1.21,0.34 0.62,-0.21 -0.19,-0.75 1.42,-0.09 0.05,0.34 -0.12,0.63 0.11,0.86 0.27,0.25 0.49,0.03 0.76,0.11 0.19,0.09 0.13,0.08 0.29,0.48 0.13,0.29 0.14,0.26 0.12,0.6 -0.98,0.66 -0.07,0.94 0,1.13 0.02,0.34 -0.21,0.79 -0.37,1 -0.28,0.06 -0.56,-0.06 -0.78,0.12 -0.2,0.16 -0.11,0.38 -0.12,0.61 -0.01,0.34 -0.66,0.6 -1.03,0.57 -0.18,-0.16 -0.21,-0.37 -0.46,-0.43 -0.71,-0.18 -0.33,0.7 -1.16,0.35 -0.22,-0.09 -0.46,-0.19 -0.6,-0.28 -0.04,-0.46 0.08,-0.48 -0.11,-0.86 -0.36,-0.12 -0.41,-0.04 -0.79,-0.06 -0.17,-0.2 -0.39,-0.66 -0.38,-1.02 0.2,-0.2 0.46,-0.23 0.45,-0.61 -0.01,-0.39 -0.27,-0.37 -0.45,-0.62 0,-0.35 0.23,-0.81 0.41,-1 0.27,-0.02 0.51,0.11 0.73,-0.09 0.23,-0.2 0.11,-0.5 0.16,-0.82zm-0.29 -0.81c0.13,1.01 -0.33,1.76 -1.43,1.44l-0.37 0.87c0.28,0.3 0.64,0.33 0.65,1.03 0,0.66 -0.33,0.76 -0.64,1.03l0.34 0.88c1.09,-0.21 1.63,0.38 1.43,1.46l0.93 0.35c0.19,-0.52 1.04,-1.16 1.93,-0.13 0.06,0.08 0.05,0.06 0.1,0.11l0.85 -0.34c-0.2,-1.04 0.4,-1.64 1.41,-1.46l0.4 -0.87c-0.33,-0.28 -0.67,-0.42 -0.66,-1.03 0.01,-0.64 0.36,-0.7 0.65,-1.03l-0.34 -0.84c-1.12,0.1 -1.63,-0.32 -1.46,-1.49l-0.85 -0.32c-0.28,0.22 -0.29,0.63 -1.03,0.64 -0.54,0.01 -0.85,-0.3 -1,-0.65l-0.91 0.35z"/>
   <path class="fil3" d="M40.63 26.25c-0.89,-1.03 -1.74,-0.39 -1.93,0.13l-0.93 -0.35c0.2,-1.08 -0.34,-1.67 -1.43,-1.46l-0.34 -0.88c0.31,-0.27 0.64,-0.37 0.64,-1.03 -0.01,-0.7 -0.37,-0.73 -0.65,-1.03l0.37 -0.87c1.1,0.32 1.56,-0.43 1.43,-1.44l0.91 -0.35c0.15,0.35 0.46,0.66 1,0.65 0.74,-0.01 0.75,-0.42 1.03,-0.64l0.85 0.32c-0.17,1.17 0.34,1.59 1.46,1.49l0.34 0.84c-0.29,0.33 -0.64,0.39 -0.65,1.03 -0.01,0.61 0.33,0.75 0.66,1.03l-0.4 0.87c-1.01,-0.18 -1.61,0.42 -1.41,1.46l-0.85 0.34c-0.05,-0.05 -0.04,-0.03 -0.1,-0.11zm-5.05 -2.7c-0.01,0.36 0.15,0.59 0.27,0.9 0.14,0.34 0.18,0.56 0.61,0.51 0.43,-0.05 0.61,-0.06 0.84,0.24 0.3,0.39 0.01,0.54 0.1,1 0.22,0.23 1.02,0.62 1.48,0.55 0.26,-0.23 0.26,-0.64 0.82,-0.62 0.97,0.04 0.1,1.06 1.74,0.38 0.35,-0.14 0.6,-0.16 0.54,-0.6 -0.17,-1.41 0.79,-0.79 1.22,-0.97 0.23,-0.11 0.43,-0.71 0.53,-0.99 0.23,-0.62 -0.22,-0.57 -0.46,-0.89 -0.31,-0.4 -0.05,-0.81 0.24,-0.98 0.47,-0.29 0.28,-0.51 0.09,-0.99 -0.17,-0.42 -0.19,-0.78 -0.71,-0.71 -0.52,0.07 -0.89,-0.02 -0.94,-0.53 -0.06,-0.61 0.31,-0.69 -0.38,-0.97 -0.43,-0.18 -0.69,-0.37 -1.15,-0.28 -0.18,0.29 -0.31,0.71 -0.88,0.59 -0.65,-0.13 -0.33,-0.68 -0.92,-0.63 -0.13,0.01 -1,0.38 -1.1,0.47 -0.34,0.31 0.12,0.77 -0.27,1.18 -0.4,0.43 -0.86,-0.05 -1.18,0.25 -0.09,0.09 -0.47,0.97 -0.48,1.11 -0.07,0.55 0.53,0.44 0.62,0.96 0.11,0.62 -0.39,0.65 -0.63,1.02z"/>
   <path class="fil3" d="M40.73 12.82c-0.28,-0.29 -0.37,-0.64 -1.03,-0.64 -0.66,0 -0.74,0.36 -1.03,0.65l-0.87 -0.37c0.23,-1.07 -0.39,-1.63 -1.44,-1.43l-0.36 -0.92c0.79,-0.36 0.89,-1.35 0.24,-1.85l-0.22 -0.18 0.32 -0.85c1.08,0.18 1.67,-0.35 1.47,-1.44l0.87 -0.35c0.3,0.3 0.39,0.64 1.02,0.64 0.63,0 0.76,-0.34 1.04,-0.65l0.86 0.39c-0.16,1.07 0.39,1.6 1.46,1.41l0.35 0.93c-0.87,0.32 -0.89,1.59 0.01,1.96l-0.35 0.92c-1.04,-0.2 -1.68,0.37 -1.46,1.43l-0.88 0.35zm-5.11 -2.87c-0.07,0.41 0.34,1.24 0.55,1.45 0.2,0.12 1.4,-0.44 1.23,0.95 -0.08,0.69 1.37,0.91 1.48,0.86 0.27,-0.23 0.36,-0.62 0.82,-0.62 0.53,0 0.51,0.43 0.89,0.65 0,0 1.5,-0.18 1.41,-0.89 -0.05,-0.41 -0.02,-0.65 0.24,-0.84 0.72,-0.55 0.83,0.77 1.51,-1.1 0.26,-0.69 -0.29,-0.55 -0.49,-0.89 -0.3,-0.55 0.06,-0.8 0.35,-1.03 0.41,-0.31 0.12,-0.66 -0.06,-1.11 -0.29,-0.73 -0.21,-0.52 -0.91,-0.5 -0.45,0.02 -0.72,-0.29 -0.67,-0.77 0.08,-0.68 0.05,-0.59 -0.55,-0.84 -0.45,-0.19 -0.75,-0.43 -1.06,-0.03 -0.22,0.28 -0.47,0.61 -0.98,0.36 -0.4,-0.2 -0.23,-0.73 -0.85,-0.55 -0.21,0.06 -0.94,0.37 -1.04,0.48 -0.27,0.3 0.18,0.84 -0.23,1.2 -0.42,0.36 -0.95,-0.15 -1.23,0.27 -0.07,0.1 -0.42,0.98 -0.43,1.09 -0.01,0.48 0.54,0.39 0.63,0.88 0.13,0.67 -0.37,0.69 -0.61,0.98z"/>
   <path class="fil3" d="M12.32 26.36c-0.4,-0.9 -1.51,-0.88 -1.97,0l-0.91 -0.35c0.18,-1 -0.35,-1.76 -1.43,-1.45l-0.35 -0.87c0.27,-0.29 0.63,-0.34 0.64,-1.03 0,-0.66 -0.34,-0.77 -0.65,-1.04l0.35 -0.87c1.09,0.21 1.65,-0.37 1.45,-1.44l0.89 -0.34c0.27,0.32 0.43,0.64 1.02,0.64 0.72,-0.01 0.75,-0.42 1.03,-0.65l0.86 0.32c-0.18,1.01 0.37,1.74 1.43,1.47l0.36 0.88c-0.33,0.29 -0.64,0.42 -0.65,1.03 0,0.61 0.32,0.73 0.65,1.03l-0.35 0.86c-1.07,-0.14 -1.65,0.33 -1.45,1.46l-0.92 0.35zm-5.03 -4.5c0.18,0.3 0.65,0.26 0.59,0.86 -0.08,0.93 -1.05,0.04 -0.36,1.73 0.43,1.08 0.95,0.02 1.45,0.74 0.27,0.39 0.02,0.54 0.08,0.96 0.21,0.25 1.02,0.66 1.47,0.59 0.24,-0.19 0.44,-0.9 1.14,-0.55 0.51,0.26 0.19,0.83 1.14,0.44 0.64,-0.28 0.9,-0.17 0.81,-0.9 -0.09,-0.77 0.37,-0.83 0.99,-0.77 0.49,0.05 0.58,-0.5 0.77,-0.97 0.34,-0.84 -0.36,-0.52 -0.53,-1.11 -0.24,-0.8 0.53,-0.73 0.61,-1.13 0.04,-0.23 -0.38,-1.22 -0.5,-1.32 -0.3,-0.25 -0.97,0.27 -1.28,-0.35 -0.31,-0.65 0.45,-0.88 -0.48,-1.23 -0.6,-0.23 -0.85,-0.56 -1.25,0 -0.36,0.51 -0.91,0.45 -1.19,-0.03 -0.31,-0.52 -0.74,-0.18 -1.27,0.04 -0.93,0.38 -0.1,0.64 -0.48,1.23 -0.4,0.6 -1,0.01 -1.31,0.4 -0.2,0.25 -0.52,1.07 -0.4,1.37z"/>
   <path class="fil3" d="M10.34 5.44l0.1 0.13c0.62,0.77 1.34,0.68 1.96,-0.14l0.86 0.39c-0.2,1.09 0.42,1.59 1.45,1.42l0.36 0.92c-0.88,0.32 -0.89,1.59 0.01,1.96l-0.35 0.92c-1.04,-0.18 -1.71,0.34 -1.47,1.43l-0.87 0.35c-0.28,-0.28 -0.37,-0.64 -1.03,-0.64 -0.66,0 -0.75,0.34 -1.03,0.65l-0.87 -0.36c0.21,-1.06 -0.38,-1.65 -1.45,-1.44l-0.35 -0.92c0.35,-0.16 0.66,-0.45 0.65,-1.01 -0.01,-0.68 -0.47,-0.83 -0.64,-1.02l0.33 -0.85c1.06,0.19 1.64,-0.35 1.47,-1.44l0.87 -0.35zm-3.06 4.5c-0.07,0.43 0.33,1.26 0.54,1.47 0.15,0.08 1.43,-0.38 1.25,0.88 -0.06,0.44 0.09,0.5 0.44,0.65 0.29,0.12 0.63,0.3 0.96,0.29 0.34,-0.2 0.59,-0.93 1.22,-0.55 0.56,0.33 0.14,0.82 1.18,0.4 1.23,-0.49 0.69,-0.46 0.75,-1.1 0.08,-0.87 1.14,-0.48 1.29,-0.57 0.19,-0.2 0.38,-0.66 0.5,-1 0.23,-0.65 -0.25,-0.57 -0.48,-0.91 -0.35,-0.51 0.07,-0.8 0.34,-1.01 0.4,-0.31 0.11,-0.69 -0.06,-1.11 -0.29,-0.72 -0.23,-0.52 -0.91,-0.5 -0.46,0.02 -0.72,-0.29 -0.67,-0.77 0.07,-0.67 0.05,-0.59 -0.56,-0.84 -0.41,-0.17 -0.78,-0.44 -1.05,-0.03 -0.16,0.24 -0.07,0.28 -0.37,0.39 -0.95,0.34 -0.73,-0.79 -1.46,-0.58 -1.98,0.56 -0.63,1.11 -1.28,1.67 -0.41,0.37 -0.94,-0.14 -1.23,0.28 -0.06,0.09 -0.42,0.98 -0.42,1.09 -0.02,0.48 0.53,0.4 0.63,0.88 0.13,0.67 -0.37,0.69 -0.61,0.97z"/>
   <path class="fil0" d="M39.26 21.22c1.92,-0.61 2.77,2.34 0.89,2.91 -1.94,0.59 -2.89,-2.28 -0.89,-2.91zm-0.9 -0.93c0.05,0.77 -0.28,1.15 -1.08,1.03l-0.23 0.67c0.55,0.19 0.55,0.79 0.35,1.11l-0.29 0.28c0,0 -0.02,0.02 -0.04,0.03l0.24 0.61c0.8,-0.17 1.14,0.27 1.02,1.03l0.62 0.24c0.2,-0.2 0.31,-0.43 0.69,-0.45 0.42,-0.03 0.62,0.19 0.71,0.45l0.67 -0.24c-0.16,-1.13 0.63,-1.04 1.05,-1.06l0.23 -0.58c-0.4,-0.45 -0.78,-0.64 -0.09,-1.39 0.07,-0.08 0.04,-0.04 0.09,-0.11l-0.23 -0.55c-0.86,-0.03 -1.1,-0.16 -1.05,-1.09l-0.65 -0.24c-0.09,0.28 -0.26,0.46 -0.67,0.47 -0.44,0.01 -0.54,-0.24 -0.75,-0.44l-0.59 0.23z"/>
   <path class="fil0" d="M10.9 21.2c2.02,-0.61 2.74,2.35 0.9,2.92 -1.96,0.61 -2.82,-2.34 -0.9,-2.92zm-0.89 -0.92c0.1,0.77 -0.23,1.18 -1.03,1.02l-0.25 0.6 0.31 0.28c0.08,0.12 0.14,0.29 0.14,0.48 0,0.16 -0.04,0.3 -0.12,0.43l-0.17 0.17c-0.02,0.01 -0.03,0.03 -0.04,0.04 -0.09,0.08 -0.05,0.03 -0.12,0.11l0.23 0.59c0.81,-0.13 1.1,0.3 1.05,1.04l0.6 0.23c0.2,-0.2 0.29,-0.42 0.69,-0.45 0.44,-0.02 0.63,0.19 0.72,0.46l0.66 -0.24c-0.09,-0.92 0.24,-1.06 1.07,-1.06l0.21 -0.57c-0.16,-0.23 -0.45,-0.32 -0.45,-0.75 0,-0.41 0.24,-0.53 0.45,-0.75l-0.22 -0.57c-0.8,-0.01 -1.16,-0.19 -1.05,-1.08l-0.66 -0.24c-0.1,0.27 -0.26,0.46 -0.67,0.47 -0.43,0 -0.54,-0.25 -0.75,-0.45l-0.6 0.24z"/>
   <path class="fil0" d="M39.37 7.65c1.96,-0.49 2.63,2.52 0.69,2.98 -1.99,0.46 -2.67,-2.5 -0.69,-2.98zm-1.01 -0.87c0.19,0.78 -0.31,1.08 -1.05,1.01l-0.24 0.66c0.27,0.1 0.46,0.25 0.47,0.65 0.01,0.45 -0.22,0.55 -0.44,0.76l0.22 0.61c0.74,-0.08 1.24,0.24 1.03,1.02l0.6 0.26 0.12 -0.12c0.74,-0.78 1.21,-0.02 1.39,0.12l0.6 -0.26c-0.19,-0.76 0.29,-1.12 1.04,-1.01l0.23 -0.62c-0.23,-0.2 -0.44,-0.3 -0.45,-0.69 -0.02,-0.43 0.2,-0.61 0.45,-0.71l-0.24 -0.67c-0.77,0.11 -1.17,-0.27 -1.03,-1.02l-0.6 -0.26c-0.25,0.2 -0.27,0.46 -0.76,0.46 -0.41,-0.01 -0.55,-0.28 -0.75,-0.45l-0.59 0.26z"/>
   <path class="fil0" d="M11.03 7.65c1.9,-0.46 2.7,2.5 0.69,2.98 -1.97,0.47 -2.7,-2.5 -0.69,-2.98zm-1.02 -0.88c0.17,0.77 -0.29,1.11 -1.04,1.02l-0.24 0.66c0.26,0.1 0.46,0.25 0.47,0.65 0.01,0.44 -0.22,0.55 -0.44,0.76l0.22 0.61c0.71,-0.07 1.22,0.22 1.03,1.02l0.6 0.26c0.22,-0.18 0.26,-0.45 0.75,-0.45 0.42,0 0.57,0.26 0.76,0.45l0.59 -0.26c-0.2,-0.77 0.31,-1.1 1.04,-1.01l0.23 -0.62c-0.23,-0.19 -0.43,-0.29 -0.45,-0.69 -0.01,-0.43 0.2,-0.61 0.45,-0.71l-0.23 -0.66c-0.76,0.09 -1.19,-0.27 -1.04,-1.02l-0.59 -0.26c-0.25,0.18 -0.29,0.45 -0.76,0.45 -0.44,0 -0.51,-0.29 -0.75,-0.45l-0.6 0.25z"/>
   <path class="fil4" d="M24.63 17.74c0.16,0.26 0.06,0.92 0.06,1.29l2.15 0c0,-1.18 -0.15,-1.4 0.26,-1.43 0.2,-0.01 0.4,-0.04 0.46,0.11l0.04 1.36 0.37 0c0.07,-0.47 0.12,-1.98 -0.08,-2.26 -0.26,-0.17 -4.09,-0.17 -4.44,-0.01 -0.07,0.35 -0.08,1.87 -0.02,2.27l0.54 0 0.01 -1.33 0.65 0z"/>
   <path class="fil2" d="M32.2 34.98c-0.36,0.52 -0.62,0.73 -1.46,0.83 -0.81,0.09 -1.54,-0.06 -2.33,-0.08 -1.13,-0.03 -3.3,0.18 -4.38,0.41l-0.01 0.58 0.08 0.17 0.25 -0.02c0.53,0.06 1.91,-0.2 2.55,-0.26 1.04,-0.1 1.72,-0.03 2.74,0.04 1.77,0.1 3.66,-0.44 3.37,-2.32 -0.19,-0.13 -0.04,-0.15 -0.32,-0.01 -0.14,0.07 -0.27,0.15 -0.37,0.23l-0.03 0.23c-0.01,0.02 -0.02,0.04 -0.02,0.07l-0.07 0.13z"/>
   <path class="fil2" d="M25.3 12.42c1.83,-0.47 2.54,2.3 0.74,2.8 -0.86,0.23 -1.62,-0.36 -1.79,-1 -0.24,-0.9 0.37,-1.63 1.05,-1.8zm-0.11 -0.67c-2.85,0.67 -1.74,4.82 0.97,4.14 0.96,-0.24 1.87,-1.27 1.56,-2.54 -0.23,-1 -1.23,-1.91 -2.53,-1.6z"/>
   <path class="fil5" d="M20.33 22.86c0.61,-1.93 -2.39,-2.79 -2.91,-0.85 -0.53,1.99 2.34,2.7 2.91,0.85z"/>
   <path class="fil6" d="M30.77 22.8c0.3,1.88 3.36,1.56 2.99,-0.55 -0.33,-1.86 -3.31,-1.48 -2.99,0.55z"/>
   <path class="fil7" d="M26.87 25.6c0.25,-0.9 -0.42,-1.67 -1.08,-1.83 -0.95,-0.24 -1.71,0.38 -1.87,1.11 -0.45,1.93 2.4,2.67 2.95,0.72z"/>
   <path class="fil8" d="M25.34 4.98c-1.92,0.64 -0.94,3.47 0.92,2.88 1.92,-0.62 1.02,-3.52 -0.92,-2.88z"/>
   <path class="fil9" d="M32.13 7.93c-2.07,0.51 -1.22,3.41 0.71,2.93 0.7,-0.17 1.3,-0.94 1.07,-1.86 -0.17,-0.68 -0.87,-1.3 -1.78,-1.07z"/>
   <path class="fil10" d="M33.57 15.95c0.12,0.73 0.86,1.38 1.75,1.24 0.76,-0.12 1.41,-0.84 1.24,-1.78 -0.35,-1.88 -3.31,-1.49 -2.99,0.54z"/>
   <path class="fil11" d="M14.74 16.02c0.14,1.92 3.19,1.77 3.02,-0.28 -0.16,-1.92 -3.17,-1.77 -3.02,0.28z"/>
   <path class="fil12" d="M18.55 7.78c-1.95,0.66 -0.97,3.47 0.94,2.88 0.66,-0.21 1.23,-0.98 0.96,-1.88 -0.19,-0.66 -0.99,-1.31 -1.9,-1z"/>
   <path class="fil4" d="M25.3 12.42c-0.68,0.17 -1.29,0.9 -1.05,1.8 0.17,0.64 0.93,1.23 1.79,1 1.8,-0.5 1.09,-3.27 -0.74,-2.8z"/>
   <path class="fil3" d="M37.32 10.47l-0.22 -0.61c0.22,-0.21 0.45,-0.31 0.44,-0.76 -0.01,-0.4 -0.2,-0.55 -0.47,-0.65l0.24 -0.66c0.74,0.07 1.24,-0.23 1.05,-1.01l0.59 -0.26c0.2,0.17 0.34,0.44 0.75,0.45 0.49,0 0.51,-0.26 0.76,-0.46l0.6 0.26c-0.14,0.75 0.26,1.13 1.03,1.02l0.24 0.67c-0.25,0.1 -0.47,0.28 -0.45,0.71 0.01,0.39 0.22,0.49 0.45,0.69l-0.23 0.62c-0.75,-0.11 -1.23,0.25 -1.04,1.01l-0.6 0.26c-0.18,-0.14 -0.65,-0.9 -1.39,-0.12l-0.12 0.12 -0.6 -0.26c0.21,-0.78 -0.29,-1.1 -1.03,-1.02zm4.09 0.41c0.21,-0.24 0.51,-0.1 0.85,-0.13 0.85,-1.51 -0.13,-0.93 -0.1,-1.64 0.03,-0.67 0.92,-0.07 0.11,-1.59 -0.3,-0.04 -0.63,0.1 -0.85,-0.14 -0.24,-0.26 -0.01,-0.45 -0.11,-0.77 -0.08,-0.13 -0.83,-0.43 -0.99,-0.38 -0.19,0.07 -0.45,1 -1.15,0.01 -0.3,-0.03 -0.47,0.07 -0.73,0.17 -0.32,0.12 -0.38,0.09 -0.35,0.47 0.06,0.86 -0.38,0.55 -0.95,0.64 -0.72,1.55 -0.07,0.84 0.09,1.47 0.18,0.71 -0.67,0.35 -0.35,1.15 0.09,0.23 0.19,0.44 0.28,0.6 0.37,0.05 0.68,-0.12 0.87,0.18 0.24,0.38 -0.21,0.6 0.28,0.88 1.16,0.64 0.75,-0.21 1.39,-0.21 0.69,0 0.17,0.72 1.16,0.31 0.97,-0.41 0.15,-0.54 0.55,-1.02z"/>
   <path class="fil3" d="M8.98 10.47l-0.22 -0.61c0.22,-0.21 0.45,-0.32 0.44,-0.76 -0.01,-0.4 -0.21,-0.55 -0.47,-0.65l0.24 -0.66c0.75,0.09 1.21,-0.25 1.04,-1.02l0.6 -0.25c0.24,0.16 0.31,0.45 0.75,0.45 0.47,0 0.51,-0.27 0.76,-0.45l0.59 0.26c-0.15,0.75 0.28,1.11 1.04,1.02l0.23 0.66c-0.25,0.1 -0.46,0.28 -0.45,0.71 0.02,0.4 0.22,0.5 0.45,0.69l-0.23 0.62c-0.73,-0.09 -1.24,0.24 -1.04,1.01l-0.59 0.26c-0.19,-0.19 -0.34,-0.45 -0.76,-0.45 -0.49,0 -0.53,0.27 -0.75,0.45l-0.6 -0.26c0.19,-0.8 -0.32,-1.09 -1.03,-1.02zm-0.18 -2.95c-0.77,1.59 0.07,0.84 0.1,1.59 0.03,0.69 -0.95,0.14 -0.08,1.64 0.33,0.03 0.64,-0.11 0.84,0.13 0.38,0.45 -0.39,0.62 0.55,1.02 0.99,0.41 0.48,-0.32 1.15,-0.31 0.64,0 0.24,0.85 1.4,0.21 0.49,-0.27 0.03,-0.5 0.28,-0.88 0.19,-0.29 0.5,-0.13 0.88,-0.17 0.81,-1.5 -0.05,-0.92 -0.09,-1.58 -0.05,-0.76 0.91,-0.06 0.1,-1.65 -0.28,-0.04 -0.6,0.09 -0.82,-0.1 -0.49,-0.42 0.39,-0.66 -0.59,-1.05 -0.98,-0.4 -0.47,0.24 -1.11,0.31 -0.35,0.03 -0.46,-0.26 -0.59,-0.44 -0.3,-0.03 -0.46,0.07 -0.72,0.17 -0.32,0.12 -0.38,0.09 -0.36,0.48 0.06,0.84 -0.37,0.54 -0.94,0.63z"/>
   <path class="fil3" d="M9.06 23.09c0.08,-0.13 0.12,-0.27 0.12,-0.43 0,-0.19 -0.06,-0.36 -0.14,-0.48l-0.31 -0.28 0.25 -0.6c0.8,0.16 1.13,-0.25 1.03,-1.02l0.6 -0.24c0.21,0.2 0.32,0.45 0.75,0.45 0.41,-0.01 0.57,-0.2 0.67,-0.47l0.66 0.24c-0.11,0.89 0.25,1.07 1.05,1.08l0.22 0.57c-0.21,0.22 -0.45,0.34 -0.45,0.75 0,0.43 0.29,0.52 0.45,0.75l-0.21 0.57c-0.83,0 -1.16,0.14 -1.07,1.06l-0.66 0.24c-0.09,-0.27 -0.28,-0.48 -0.72,-0.46 -0.4,0.03 -0.49,0.25 -0.69,0.45l-0.6 -0.23c0.05,-0.74 -0.24,-1.17 -1.05,-1.04l-0.23 -0.59c0.07,-0.08 0.03,-0.03 0.12,-0.11 0.01,-0.01 0.02,-0.03 0.04,-0.04l0.17 -0.17zm0.67 -2.97c-0.04,0.35 0.12,0.64 -0.14,0.84 -0.19,0.16 -0.48,0.05 -0.76,0.07 -0.16,0.2 -0.4,0.66 -0.39,1.01 0.21,0.21 0.45,0.24 0.45,0.62 0,0.39 -0.26,0.37 -0.45,0.61 -0.01,0.36 0.23,0.82 0.4,1.01 0.28,0.02 0.52,-0.1 0.74,0.09 0.23,0.21 0.11,0.5 0.15,0.82 1.44,0.86 0.94,-0.03 1.57,-0.07 0.86,-0.07 -0.05,0.89 1.66,0.11 0.05,-0.32 -0.11,-0.58 0.09,-0.82 0.21,-0.24 0.49,-0.08 0.81,-0.15 0.19,-0.22 0.41,-0.69 0.38,-1.07 -0.61,-0.37 -0.61,-0.69 0,-1.06 0.04,-0.38 -0.19,-0.85 -0.38,-1.08 -0.29,-0.06 -0.55,0.09 -0.77,-0.12 -0.23,-0.21 -0.09,-0.57 -0.13,-0.85 -1.68,-0.75 -0.8,0.1 -1.6,0.12 -0.62,0.01 -0.29,-0.98 -1.63,-0.08z"/>
   <path class="fil3" d="M38.95 20.06c0.21,0.2 0.31,0.45 0.75,0.44 0.41,-0.01 0.58,-0.19 0.67,-0.47l0.65 0.24c-0.05,0.93 0.19,1.06 1.05,1.09l0.23 0.55c-0.05,0.07 -0.02,0.03 -0.09,0.11 -0.69,0.75 -0.31,0.94 0.09,1.39l-0.23 0.58c-0.42,0.02 -1.21,-0.07 -1.05,1.06l-0.67 0.24c-0.09,-0.26 -0.29,-0.48 -0.71,-0.45 -0.38,0.02 -0.49,0.25 -0.69,0.45l-0.62 -0.24c0.12,-0.76 -0.22,-1.2 -1.02,-1.03l-0.24 -0.61c0.02,-0.01 0.04,-0.03 0.04,-0.03l0.29 -0.28c0.2,-0.32 0.2,-0.92 -0.35,-1.11l0.23 -0.67c0.8,0.12 1.13,-0.26 1.08,-1.03l0.59 -0.23zm-0.87 0.07c-0.05,0.32 0.07,0.62 -0.16,0.82 -0.22,0.2 -0.46,0.07 -0.73,0.09 -0.18,0.19 -0.41,0.65 -0.41,1 0.18,0.25 0.44,0.23 0.45,0.62 0.01,0.38 -0.25,0.41 -0.45,0.61 -0.01,0.36 0.21,0.82 0.38,1.02 0.38,0.02 0.43,-0.06 0.79,0.06 0.19,0.38 0.07,0.4 0.11,0.86 0.14,0.09 0.38,0.19 0.6,0.28 0.83,0.35 0.45,-0.53 1.16,-0.35 0.25,0.06 0.28,0.27 0.46,0.43 0.37,0.03 1.02,-0.23 1.03,-0.57 0.01,-0.23 -0.08,-0.45 0.12,-0.61 0.22,-0.18 0.5,-0.06 0.78,-0.12 0.16,-0.21 0.39,-0.66 0.37,-1 -0.07,-0.19 -0.98,-0.47 0,-1.13 0.02,-0.34 0.01,-0.31 -0.12,-0.6 -0.16,-0.4 -0.1,-0.39 -0.29,-0.48 -0.27,-0.08 -0.49,0.14 -0.76,-0.11 -0.23,-0.23 -0.06,-0.52 -0.11,-0.86 -1.61,-0.66 -0.8,-0.12 -1.42,0.09 -0.76,0.26 -0.37,-0.67 -1.21,-0.34 -0.22,0.09 -0.44,0.18 -0.59,0.29z"/>
   <path class="fil13" d="M11.36 8c-1.54,0 -1.48,2.27 0,2.27 1.48,0 1.55,-2.27 0,-2.27z"/>
   <path class="fil13" d="M38.56 22.86c0.26,1.41 2.39,1.19 2.25,-0.34 -0.14,-1.52 -2.53,-1.16 -2.25,0.34z"/>
   <path class="fil13" d="M10.21 22.8c0.17,1.41 2.39,1.27 2.26,-0.28 -0.12,-1.42 -2.44,-1.25 -2.26,0.28z"/>
   <path class="fil13" d="M39.7 8c-1.53,0.01 -1.48,2.27 0,2.27 1.47,0.01 1.49,-2.27 0,-2.27z"/>
   <path class="fil2" d="M39.7 8c1.49,0 1.47,2.28 0,2.27 -1.48,0 -1.53,-2.26 0,-2.27zm-0.33 -0.35c-1.98,0.48 -1.3,3.44 0.69,2.98 1.94,-0.46 1.27,-3.47 -0.69,-2.98z"/>
   <path class="fil2" d="M10.21 22.8c-0.18,-1.53 2.14,-1.7 2.26,-0.28 0.13,1.55 -2.09,1.69 -2.26,0.28zm0.69 -1.6c-1.92,0.58 -1.06,3.53 0.9,2.92 1.84,-0.57 1.12,-3.53 -0.9,-2.92z"/>
   <path class="fil2" d="M11.36 8c1.55,0 1.48,2.27 0,2.27 -1.48,0 -1.54,-2.27 0,-2.27zm-0.33 -0.35c-2.01,0.48 -1.28,3.45 0.69,2.98 2.01,-0.48 1.21,-3.44 -0.69,-2.98z"/>
   <path class="fil2" d="M38.56 22.86c-0.28,-1.5 2.11,-1.86 2.25,-0.34 0.14,1.53 -1.99,1.75 -2.25,0.34zm0.7 -1.64c-2,0.63 -1.05,3.5 0.89,2.91 1.88,-0.57 1.03,-3.52 -0.89,-2.91z"/>
   <path class="fil4" d="M23.39 19.76c0.06,0.07 0.03,0.04 0.13,0.11 1.39,1.03 4.21,0.28 4.32,-0.07 0.01,-0.02 0.03,-0.02 0.04,-0.04l-4.49 0z"/>
   <path class="fil14" d="M24.63 17.74l0.03 1.36 2.24 -0.02 0 -1.42 0.66 0.05c-0.06,-0.15 -0.26,-0.12 -0.46,-0.11 -0.41,0.03 -0.26,0.25 -0.26,1.43l-2.15 0c0,-0.37 0.1,-1.03 -0.06,-1.29z"/>
   <polygon class="fil15" points="26.47,10.77 26.13,10.61 26.15,9.18 26.04,10.72 "/>
   <path class="fil15" d="M24.35 36.87l-0.25 0.02 -0.08 -0.17 0.03 0.22c0.24,0.01 0.16,0.04 0.3,-0.07z"/>
  </g>
 </g>
</svg>
