<?xml version="1.0" encoding="UTF-8"?>
<!DOCTYPE svg PUBLIC "-//W3C//DTD SVG 1.1//EN" "http://www.w3.org/Graphics/SVG/1.1/DTD/svg11.dtd">
<!-- Creator: CorelDRAW 2021 (64 Bit) -->
<svg xmlns="http://www.w3.org/2000/svg" xml:space="preserve" width="105px" height="105px" version="1.1" style="shape-rendering:geometricPrecision; text-rendering:geometricPrecision; image-rendering:optimizeQuality; fill-rule:evenodd; clip-rule:evenodd"
viewBox="0 0 23.69 23.69"
 xmlns:xlink="http://www.w3.org/1999/xlink"
 xmlns:xodm="http://www.corel.com/coreldraw/odm/2003">
 <defs>
  <style type="text/css">
   <![CDATA[
    .str0 {stroke:#D1D1D1;stroke-width:1.58;stroke-miterlimit:22.9256}
    .str1 {stroke:#373435;stroke-width:1.13;stroke-miterlimit:22.9256}
    .fil0 {fill:none}
    .fil1 {fill:black;fill-rule:nonzero}
   ]]>
  </style>
 </defs>
 <g id="Camada_x0020_1">
  <metadata id="CorelCorpID_0Corel-Layer"/>
  <g id="_2677207572976">
   <rect class="fil0 str0" x="1.47" y="1.47" width="20.76" height="20.76" rx="0.91" ry="1.04"/>
   <rect class="fil0 str1" x="0.56" y="0.56" width="22.56" height="22.56" rx="0.99" ry="1.13"/>
   <g id="profile.svg">
    <g>
     <path class="fil1" d="M17.49 13.19c0,-0.38 -0.79,-1.79 -1.18,-2.46 0.04,-0.2 0.1,-0.64 0.1,-1.3 0,-1.15 -1.51,-4.03 -5.1,-4.03 -3.52,0 -5.1,2.67 -5.1,4.57 0,1.34 0.79,2.71 1.42,3.81 0.37,0.65 0.72,1.25 0.72,1.56 0,0.68 -1.11,2.04 -1.54,2.5 -0.07,0.08 -0.09,0.19 -0.04,0.29 0.04,0.1 0.13,0.16 0.24,0.16l5.91 0c0.15,0 0.26,-0.07 0.26,-0.22 0.1,-0.19 1.05,-0.71 1.93,-0.85 0.67,-0.11 1.57,-0.26 1.57,-1.08 0,-0.35 -0.12,-0.53 -0.2,-0.65 -0.06,-0.08 -0.07,-0.1 -0.1,-0.15 0.15,0.02 0.28,-0.09 0.3,-0.24 0.01,-0.05 0,-0.11 -0.03,-0.16l0.22 -0.22c0.07,-0.07 0.1,-0.18 0.07,-0.27l-0.18 -0.54c0.31,-0.11 0.73,-0.33 0.73,-0.72z"/>
    </g>
   </g>
  </g>
 </g>
</svg>
