<?xml version="1.0" encoding="UTF-8"?>
<!DOCTYPE svg PUBLIC "-//W3C//DTD SVG 1.1//EN" "http://www.w3.org/Graphics/SVG/1.1/DTD/svg11.dtd">
<!-- Creator: CorelDRAW 2021 (64 Bit) -->
<svg xmlns="http://www.w3.org/2000/svg" xml:space="preserve" width="30px" height="30px" version="1.1" style="shape-rendering:geometricPrecision; text-rendering:geometricPrecision; image-rendering:optimizeQuality; fill-rule:evenodd; clip-rule:evenodd"
viewBox="0 0 6.3 6.3"
 xmlns:xlink="http://www.w3.org/1999/xlink"
 xmlns:xodm="http://www.corel.com/coreldraw/odm/2003">
 <defs>
  <style type="text/css">
   <![CDATA[
    .fil0 {fill:black}
    .fil1 {fill:#4E5A65}
    .fil2 {fill:#D7DDE8}
   ]]>
  </style>
   <clipPath id="id0">
    <rect width="6.3" height="6.3"/>
   </clipPath>
 </defs>
 <g id="Camada_x0020_1">
  <metadata id="CorelCorpID_0Corel-Layer"/>
  <g style="clip-path:url(#id0)">
   <image id="camera.png" x="0" y="0" width="6.3" height="6.3" xlink:href="camera2_Images\camera2_ImgID1.png"/>
  </g>
  <g id="_2676628386704">
   <path class="fil0" d="M1.56 1.54c-0.15,0 -0.97,-0.01 -1.05,0 -0.07,0.02 -0.14,0.05 -0.19,0.07 -0.03,0.02 -0.06,0.03 -0.08,0.06 -0.08,0.06 -0.14,0.13 -0.18,0.22 -0.03,0.05 -0.06,0.14 -0.06,0.21l0 3.12c0,0.31 0.29,0.58 0.68,0.58l4.95 0c0.38,0 0.67,-0.27 0.67,-0.58l0 -3.12c0,-0.15 -0.09,-0.29 -0.17,-0.38l-0.05 -0.04c-0.03,-0.03 -0.05,-0.04 -0.08,-0.06 -0.23,-0.13 -0.42,-0.08 -0.72,-0.08 -0.18,0 -0.36,0 -0.54,0l-0.48 -0.95c-0.02,-0.06 -0.04,-0.09 -0.12,-0.09l-1.97 0c-0.12,0 -0.12,0.07 -0.2,0.22l-0.41 0.82z"/>
   <path class="fil1" d="M0.15 2.19l0 2.96c0,0.3 0.2,0.49 0.5,0.49 1.67,0 3.33,0 5,0 0.31,0 0.5,-0.19 0.5,-0.49l0 -2.97c0,-0.26 -0.16,-0.45 -0.38,-0.49 -0.1,-0.01 -0.73,0 -0.88,0 -0.29,0 -0.21,0.08 -0.46,-0.43 -0.07,-0.14 -0.26,-0.47 -0.29,-0.6l-1.97 0c-0.03,0.11 -0.35,0.71 -0.44,0.89 -0.09,0.18 -0.09,0.14 -0.31,0.14 -0.16,0 -0.79,-0.01 -0.88,0 -0.24,0.04 -0.39,0.23 -0.39,0.5z"/>
   <path class="fil0" d="M2.96 2.06c-0.83,0.11 -1.53,0.85 -1.41,1.81 0.1,0.81 0.85,1.51 1.8,1.39 0.81,-0.09 1.52,-0.84 1.4,-1.79 -0.1,-0.82 -0.84,-1.53 -1.79,-1.41z"/>
   <path class="fil2" d="M2.97 2.21c-0.82,0.11 -1.38,0.85 -1.27,1.64 0.1,0.74 0.77,1.37 1.63,1.27 0.75,-0.1 1.38,-0.77 1.27,-1.64 -0.09,-0.74 -0.77,-1.38 -1.63,-1.27z"/>
   <path class="fil0" d="M3.09 2.75c0.08,0.05 0.62,-0.01 0.88,0.57 0.06,0.15 0.05,0.28 0.09,0.4 0.11,0.04 0.13,-0.01 0.12,-0.14 -0.02,-0.25 -0.13,-0.47 -0.29,-0.64 -0.16,-0.16 -0.36,-0.28 -0.62,-0.3 -0.13,-0.02 -0.21,-0.03 -0.18,0.11z"/>
   <path class="fil0" d="M3.22 4.6c-0.04,-0.07 -0.12,-0.04 -0.22,-0.06 -0.07,-0.01 -0.15,-0.04 -0.21,-0.07 -0.15,-0.06 -0.23,-0.14 -0.32,-0.23 -0.23,-0.27 -0.19,-0.56 -0.22,-0.61 -0.03,-0.06 -0.14,-0.07 -0.13,0.07 0.01,0.47 0.34,0.83 0.71,0.95 0.1,0.03 0.42,0.12 0.39,-0.05z"/>
   <path class="fil0" d="M0.58 1.32l0.8 0c0.11,0 0.13,-0.16 -0.04,-0.16l-0.69 0c-0.22,0 -0.13,0.16 -0.07,0.16z"/>
  </g>
 </g>
</svg>
