<?xml version="1.0" encoding="UTF-8"?>
<!DOCTYPE svg PUBLIC "-//W3C//DTD SVG 1.1//EN" "http://www.w3.org/Graphics/SVG/1.1/DTD/svg11.dtd">
<!-- Creator: CorelDRAW 2021 (64 Bit) -->
<svg xmlns="http://www.w3.org/2000/svg" xml:space="preserve" width="376px" height="375px" version="1.1" style="shape-rendering:geometricPrecision; text-rendering:geometricPrecision; image-rendering:optimizeQuality; fill-rule:evenodd; clip-rule:evenodd"
viewBox="0 0 24.97 24.92"
 xmlns:xlink="http://www.w3.org/1999/xlink"
 xmlns:xodm="http://www.corel.com/coreldraw/odm/2003">
 <defs>
  <style type="text/css">
   <![CDATA[
    .fil3 {fill:#8D6D9E}
    .fil1 {fill:#B4B1B1}
    .fil4 {fill:#B7BADA}
    .fil2 {fill:#C5E1F6}
    .fil0 {fill:#FCFCFC}
   ]]>
  </style>
 </defs>
 <g id="Camada_x0020_1">
  <metadata id="CorelCorpID_0Corel-Layer"/>
  <g id="_2562289217056">
   <path class="fil0" d="M18.39 20c-0.05,0.39 -0.02,0.46 -0.17,0.75 -0.14,0.27 -0.33,0.46 -0.53,0.66 -0.34,0.31 -0.69,0.45 -1.19,0.52 -0.64,0.09 -6.51,0.03 -7.66,0.02 -0.53,0 -1.07,-0.15 -1.47,-0.42l-0.23 -0.23c-0.01,-0.01 -0.03,-0.02 -0.04,-0.03l-0.15 -0.23c-0.11,-0.19 -0.24,-0.47 -0.32,-0.68 -0.14,-0.38 -0.18,-13.99 -0.08,-15.31 0.06,-0.82 0.86,-1.76 1.9,-1.89 0.62,-0.08 6.64,-0.03 7.7,-0.02 1.13,0.02 1.9,0.55 2.21,1.61 0.15,0.49 0.17,14.28 0.03,15.25zm-6.64 -18.31c-5.7,0.41 -10.47,5.31 -10.03,11.54 0.4,5.69 5.34,10.44 11.55,10 5.69,-0.4 10.42,-5.34 10,-11.54 -0.39,-5.66 -5.36,-10.44 -11.52,-10z"/>
   <path class="fil1" d="M11.75 1.69c6.16,-0.44 11.13,4.34 11.52,10 0.42,6.2 -4.31,11.14 -10,11.54 -6.21,0.44 -11.15,-4.31 -11.55,-10 -0.44,-6.23 4.33,-11.13 10.03,-11.54zm0.28 -1.69l1.06 0c1.68,0.07 3.34,0.47 4.83,1.22 2.69,1.34 4.77,3.48 6,6.22 1.39,3.09 1.43,6.98 -0.02,10.08 -0.89,1.92 -2.38,3.89 -4.11,5.06 -2.52,1.71 -4.43,2.34 -7.76,2.34 -2.51,0 -5.97,-1.34 -7.73,-3.04 -0.16,-0.15 -0.23,-0.25 -0.41,-0.39 -0.27,-0.2 -0.84,-0.88 -1.08,-1.17 -0.24,-0.29 -0.45,-0.56 -0.66,-0.87 -1.32,-1.99 -2.15,-4.34 -2.15,-7.02 0,-1.86 0.48,-3.74 1.09,-5.03 0.63,-1.37 1.72,-3.06 2.88,-4.03 0.14,-0.12 0.23,-0.23 0.37,-0.36 0.39,-0.37 1.34,-1.02 1.78,-1.28 1.77,-1.06 3.83,-1.64 5.91,-1.73z"/>
   <path class="fil2" d="M8.46 15.65c-0.04,-0.15 -0.08,-0.11 0.07,-0.11l0.25 -0.09 0.1 0.06c0.12,-0.03 0.08,-0.04 0.05,0.09 0.17,0.13 0.14,0.1 0.16,0.35 0.01,0 0,0.27 0,0.27 -0.04,0.25 -0.06,0.18 -0.09,0.23 0.05,0.12 0.08,0.11 -0.05,0.07 0.03,0.12 0.05,0.1 -0.07,0.07 -0.09,0.1 0.2,0.12 -0.16,0.06 -0.17,-0.02 -0.05,0.02 -0.16,-0.08l-0.07 -0.08 -0.03 -0.1c-0.1,-0.07 -0.09,-0.64 0,-0.74zm6.43 -5.87c0.15,-0.14 0.17,-0.17 0.33,-0.25 0.02,0.01 0.03,0.03 0.04,0.04 0.01,0.01 0.04,0.02 0.05,0.03l0.42 0.5c-0.13,0.2 -0.14,-0.03 -0.4,0.51 -0.22,-0.06 -0.61,-0.31 -0.73,-0.51 0.07,-0.12 0.17,-0.21 0.29,-0.32zm-4.75 -2.16c0.07,-0.14 0.07,-0.09 0.19,-0.21 0.42,0.6 0.19,0.43 0.74,0.8 0.09,0.07 0.05,0.02 0.12,0.1 -0.01,0.01 -0.03,0.03 -0.04,0.04l-0.07 0.07c-0.38,0.33 -0.17,-0.02 -0.57,0.56 -0.15,0.22 0,0.09 -0.21,0.21 -0.27,-0.25 -0.12,-0.27 -0.32,-0.5 -0.24,-0.27 -0.3,-0.06 -0.45,-0.43 0.74,-0.41 0.39,-0.21 0.61,-0.64zm2.68 -1.45c-0.46,0.31 -0.97,-0.24 -1.07,-0.26 -0.1,-0.03 -0.21,-0.02 -0.28,0.02 -0.16,0.08 -0.13,0.23 -0.38,0.24 -0.28,0.16 -2.61,0.04 -3.16,0.08l-0.02 8.57c0.03,0.74 -0.21,2.22 0.04,2.81l0.94 0.05c0.03,-0.24 0.09,-0.18 0.26,-0.35l0.57 -0.58c0.13,-0.14 0.11,-0.14 0.27,-0.09l0.02 -0.09c-0.14,0.06 -0.12,0.09 -0.07,-0.06 -0.11,-0.03 -0.14,0.06 -0.14,-0.49 0,-0.19 0,-0.41 0.11,-0.53 0.21,-0.24 0.64,-0.21 0.63,0.49 0.26,-0.08 0.07,0.01 0.23,-0.16l0.09 -0.11c0.38,-0.44 1.66,-1.56 2.01,-2.19 0.21,-0.39 0.6,-0.41 0.89,-0.77l0.79 -0.79c0.05,-0.04 0.04,-0.02 0.11,-0.08l0.73 -0.74c0.11,-0.11 0.09,-0.11 0.19,-0.21 0.27,-0.27 1.23,-1.27 1.51,-1.33 0.02,-0.26 -0.01,-0.55 -0.01,-0.83 0,-0.32 0.04,-0.55 0.05,-0.86 0.02,-0.51 0.07,-1.18 -0.09,-1.63 -0.19,-0.08 -0.18,-0.05 -0.43,-0.05 -0.25,-0.01 -0.2,0.06 -0.38,-0.07l-2.01 0.05c-0.67,-0.01 -0.5,-0.12 -0.55,-0.24l0.02 -0.01c-0.52,-0.42 -0.5,0.1 -0.87,0.21z"/>
   <path class="fil2" d="M8.38 3.91c0.63,-0.17 2.64,-0.07 3.45,-0.07 6.58,0 5.9,-0.57 5.91,4.53l0 10.44c0,1.26 -0.04,2.09 -1.1,2.36 -0.51,0.13 -5.94,0.06 -6.94,0.06 -0.74,0 -2.14,0.18 -2.4,-1.15 -0.14,-0.71 -0.04,-11.83 -0.05,-13.83 0,-1.3 0.02,-2.05 1.13,-2.34zm10.01 16.09c0.14,-0.97 0.12,-14.76 -0.03,-15.25 -0.31,-1.06 -1.08,-1.59 -2.21,-1.61 -1.06,-0.01 -7.08,-0.06 -7.7,0.02 -1.04,0.13 -1.84,1.07 -1.9,1.89 -0.1,1.32 -0.06,14.93 0.08,15.31 0.08,0.21 0.21,0.49 0.32,0.68l0.15 0.23c0.01,0.01 0.03,0.02 0.04,0.03l0.23 0.23c0.4,0.27 0.94,0.42 1.47,0.42 1.15,0.01 7.02,0.07 7.66,-0.02 0.5,-0.07 0.85,-0.21 1.19,-0.52 0.2,-0.2 0.39,-0.39 0.53,-0.66 0.15,-0.29 0.12,-0.36 0.17,-0.75z"/>
   <path class="fil3" d="M17.13 18.34c0.04,0.33 0.05,1.47 -0.03,1.74 -0.15,0.42 -0.55,0.59 -1.15,0.59l-6.98 0c-0.88,-0.01 -1.1,-0.4 -1.13,-1.06l0.01 -1.29 9.28 0.02zm-3.44 -12.38l-0.02 0.01c0.33,0.25 1.11,0.15 1.75,0.15 0.28,0 1.56,-0.09 1.7,0.09 0.15,0.23 0.08,11.38 0,11.49 -0.12,0.13 0.06,0.05 -0.24,0.1l-7.97 0c-0.21,0 -0.91,0.08 -1.04,-0.1 -0.13,-0.2 -0.12,-11.31 0,-11.49 0.15,-0.18 2.63,-0.05 3.22,-0.1 0.24,-0.1 0.09,0.05 0.2,-0.19 -0.03,-0.39 -0.25,-0.33 -0.66,-0.33l-2.7 -0.03c-0.22,-0.17 -0.01,-0.65 0.16,-0.86 0.08,-0.09 0.07,-0.09 0.18,-0.15l0.29 -0.11c0.28,-0.07 0.71,-0.04 1.01,-0.04 0.97,0 1.95,0 2.92,0 0.64,0 3.78,-0.12 4.23,0.15 0.26,0.16 0.5,0.54 0.4,1.01 -0.41,0.09 -1.41,0.04 -1.9,0.04 -1.08,0 -1.49,-0.16 -1.53,0.36zm-5.31 -2.05c-1.11,0.29 -1.13,1.04 -1.13,2.34 0.01,2 -0.09,13.12 0.05,13.83 0.26,1.33 1.66,1.15 2.4,1.15 1,0 6.43,0.07 6.94,-0.06 1.06,-0.27 1.1,-1.1 1.1,-2.36l0 -10.44c-0.01,-5.1 0.67,-4.53 -5.91,-4.53 -0.81,0 -2.82,-0.1 -3.45,0.07z"/>
   <path class="fil0" d="M13.69 15.55c0.05,0.32 0.1,0.76 -0.08,0.99 -0.11,0.14 -0.16,0.1 -0.42,0.1 -0.03,-0.06 -0.14,-0.14 -0.18,-0.36 -0.04,-0.21 -0.04,-0.54 0.04,-0.7l0.18 -0.19c0.16,-0.05 0.18,-0.04 0.35,0.07 0.12,0.07 -0.03,-0.01 0.11,0.09zm-1.84 0.95c0.05,0.14 0.06,0.11 -0.07,0.06 -0.07,0.1 0.18,0.1 -0.15,0.09 -0.17,-0.01 -0.12,-0.04 -0.17,-0.07 -0.13,0.05 -0.11,0.07 -0.06,-0.06 -0.15,0.04 -0.1,0.05 -0.05,-0.09 -0.08,-0.06 -0.04,0.01 -0.08,-0.15l-0.01 -0.4c0.04,-0.26 0.01,-0.14 0.1,-0.26l-0.03 0.01c-0.03,-0.17 -0.08,-0.16 0.06,-0.12 -0.04,-0.13 -0.05,-0.1 0.07,-0.06 0.06,-0.06 -0.18,-0.11 0.17,-0.07 0.17,0.02 0.1,0.02 0.16,0.08 0.13,-0.05 0.12,-0.07 0.07,0.06 0.07,0.04 0.13,-0.15 0.05,0.15 0.08,0.06 0.1,0.14 0.09,0.35l-0.09 0.35c0.06,0.23 0.04,0.09 -0.06,0.13zm-1.31 -0.52c0,0.04 0.01,0.15 0,0.18 -0.1,0.4 0.01,0.08 -0.11,0.23l0.04 0.02c0.02,0.16 0.08,0.16 -0.07,0.11 0.05,0.14 0.06,0.1 -0.08,0.05 0.05,0.16 -0.19,0.09 -0.33,0.09 -0.16,-0.05 -0.14,-0.05 -0.27,0.09l-0.57 0.58c-0.17,0.17 -0.23,0.11 -0.26,0.35l4.17 0.01c0.01,-0.02 0.03,-0.06 0.03,-0.05l0.71 -0.65c0.01,-0.01 0.02,-0.03 0.03,-0.04l0.27 -0.26c0.19,-0.22 0.11,-0.22 0.38,-0.38 -0.08,-0.41 -0.03,-0.62 0.11,-0.91l0.4 -0.02c0.15,0.06 0.08,-0.02 0.13,0.13 0.08,0.07 0.09,-0.07 0.07,0.12l0.42 -0.41c0.01,-0.01 0.02,-0.03 0.03,-0.04l0.65 -0.68c0.48,-0.41 0.32,-0.46 0.77,-0.67l0.03 -4.23c-0.28,0.06 -1.24,1.06 -1.51,1.33 -0.1,0.1 -0.08,0.1 -0.19,0.21l-0.73 0.74c-0.07,0.06 -0.06,0.04 -0.11,0.08l-0.79 0.79c-0.29,0.36 -0.68,0.38 -0.89,0.77 -0.35,0.63 -1.63,1.75 -2.01,2.19l-0.09 0.11c-0.16,0.17 0.03,0.08 -0.23,0.16z"/>
   <path class="fil1" d="M13.42 19.46c-0.1,0.03 -0.52,0.01 -0.66,0.01 -0.41,0 -1.02,0.05 -1.3,-0.02 -0.31,-0.61 0.2,-0.53 0.77,-0.53 0.3,0.01 1.16,-0.08 1.33,0.1 0.15,0.15 0.06,0.39 -0.14,0.44zm3.71 -1.12l-9.28 -0.02 -0.01 1.29c0.03,0.66 0.25,1.05 1.13,1.06l6.98 0c0.6,0 1,-0.17 1.15,-0.59 0.08,-0.27 0.07,-1.41 0.03,-1.74z"/>
   <path class="fil1" d="M11.97 5.71c0.05,-0.06 1.22,-0.45 1.02,0.37 -0.5,0.11 -1.05,0.18 -1.02,-0.37zm-0.68 0.21c0.19,-0.17 0.02,-0.12 0.61,-0.14 0.13,0.46 0.06,0.29 0.92,0.39 0.37,-0.11 0.35,-0.63 0.87,-0.21 0.04,-0.52 0.45,-0.36 1.53,-0.36 0.49,0 1.49,0.05 1.9,-0.04 0.1,-0.47 -0.14,-0.85 -0.4,-1.01 -0.45,-0.27 -3.59,-0.15 -4.23,-0.15 -0.97,0 -1.95,0 -2.92,0 -0.3,0 -0.73,-0.03 -1.01,0.04l-0.29 0.11c-0.11,0.06 -0.1,0.06 -0.18,0.15 -0.17,0.21 -0.38,0.69 -0.16,0.86l2.7 0.03c0.41,0 0.63,-0.06 0.66,0.33z"/>
   <path class="fil2" d="M16.51 16.51c-0.49,0.81 -1,-1.12 -0.3,-1.15 0.46,-0.02 0.18,0.05 0.24,0.1 0.15,-0.06 0.1,-0.07 0.1,0.11l-0.02 0.08c0.08,0.1 0.1,0.14 0.1,0.37l-0.06 0.35c0.06,0.27 0.02,0.09 -0.06,0.14zm-1.32 -0.88c0.02,-0.19 0.01,-0.05 -0.07,-0.12 -0.05,-0.15 0.02,-0.07 -0.13,-0.13l0.13 0.13c0,0.23 -0.03,0.12 0.07,0.12 -0.04,0.58 0.15,1.18 -0.59,0.98l-0.12 -0.3c-0.27,0.16 -0.19,0.16 -0.38,0.38l-0.27 0.26c-0.01,0.01 -0.02,0.03 -0.03,0.04l-0.71 0.65c0,-0.01 -0.02,0.03 -0.03,0.05l4.03 0 -0.03 -3.86c-0.45,0.21 -0.29,0.26 -0.77,0.67l-0.65 0.68c-0.01,0.01 -0.02,0.03 -0.03,0.04l-0.42 0.41z"/>
   <path class="fil4" d="M11.29 5.92c-0.11,0.24 0.04,0.09 -0.2,0.19l0 0.06c-0.37,-0.07 -2.93,-0.08 -3.22,0.04 -0.07,0.65 -0.03,10.92 -0.01,11.51 0.55,0.19 5.68,0.06 6.96,0.05l1.8 0.01c0.06,0 0.2,0 0.26,-0.01 0.02,-0.01 0.04,-0.01 0.06,-0.02l0.15 -0.06c0.13,-0.42 0.07,-4.83 0.07,-5.73l-0.04 -5.75c-0.28,-0.11 -0.6,-0.09 -0.89,-0.05 0.18,0.13 0.13,0.06 0.38,0.07 0.25,0 0.24,-0.03 0.43,0.05 0.16,0.45 0.11,1.12 0.09,1.63 -0.01,0.31 -0.05,0.54 -0.05,0.86 0,0.28 0.03,0.57 0.01,0.83l-0.03 4.23 0.03 3.86 -4.03 0 -4.17 -0.01 -0.94 -0.05c-0.25,-0.59 -0.01,-2.07 -0.04,-2.81l0.02 -8.57c0.55,-0.04 2.88,0.08 3.16,-0.08 0.25,-0.01 0.22,-0.16 0.38,-0.24 0.07,-0.04 0.18,-0.05 0.28,-0.02 0.1,0.02 0.61,0.57 1.07,0.26 -0.86,-0.1 -0.79,0.07 -0.92,-0.39 -0.59,0.02 -0.42,-0.03 -0.61,0.14z"/>
   <path class="fil0" d="M9.53 8.26c0.15,0.37 0.21,0.16 0.45,0.43 0.2,0.23 0.05,0.25 0.32,0.5 0.21,-0.12 0.06,0.01 0.21,-0.21 0.4,-0.58 0.19,-0.23 0.57,-0.56l0.07 -0.07c0.01,-0.01 0.03,-0.03 0.04,-0.04 -0.07,-0.08 -0.03,-0.03 -0.12,-0.1 -0.55,-0.37 -0.32,-0.2 -0.74,-0.8 -0.12,0.12 -0.12,0.07 -0.19,0.21 -0.22,0.43 0.13,0.23 -0.61,0.64z"/>
   <path class="fil1" d="M16.23 6.16c0.29,-0.04 0.61,-0.06 0.89,0.05l0.04 5.75c0,0.9 0.06,5.31 -0.07,5.73l-0.15 0.06c-0.02,0.01 -0.04,0.01 -0.06,0.02 -0.06,0.01 -0.2,0.01 -0.26,0.01l-1.8 -0.01c-1.28,0.01 -6.41,0.14 -6.96,-0.05 -0.02,-0.59 -0.06,-10.86 0.01,-11.51 0.29,-0.12 2.85,-0.11 3.22,-0.04l0 -0.06c-0.59,0.05 -3.07,-0.08 -3.22,0.1 -0.12,0.18 -0.13,11.29 0,11.49 0.13,0.18 0.83,0.1 1.04,0.1l7.97 0c0.3,-0.05 0.12,0.03 0.24,-0.1 0.08,-0.11 0.15,-11.26 0,-11.49 -0.14,-0.18 -1.42,-0.09 -1.7,-0.09 -0.64,0 -1.42,0.1 -1.75,-0.15 0.05,0.12 -0.12,0.23 0.55,0.24l2.01 -0.05z"/>
   <path class="fil3" d="M11.46 19.45c0.28,0.07 0.89,0.02 1.3,0.02 0.14,0 0.56,0.02 0.66,-0.01 0.2,-0.05 0.29,-0.29 0.14,-0.44 -0.17,-0.18 -1.03,-0.09 -1.33,-0.1 -0.57,0 -1.08,-0.08 -0.77,0.53z"/>
   <path class="fil0" d="M14.6 10.1c0.12,0.2 0.51,0.45 0.73,0.51 0.26,-0.54 0.27,-0.31 0.4,-0.51l-0.42 -0.5c-0.01,-0.01 -0.04,-0.02 -0.05,-0.03 -0.01,-0.01 -0.02,-0.03 -0.04,-0.04 -0.16,0.08 -0.18,0.11 -0.33,0.25 -0.12,0.11 -0.22,0.2 -0.29,0.32z"/>
   <path class="fil3" d="M11.39 15.51c0.04,0.15 0.08,0.12 -0.06,0.12l0.03 -0.01 -0.01 0.81c0.13,-0.05 0.08,-0.05 0.05,0.09 0.11,-0.03 0.09,-0.06 0.06,0.06l0.32 -0.02c-0.03,-0.12 -0.05,-0.09 0.07,-0.06 -0.01,-0.23 -0.02,-0.11 0.06,-0.13l0 -0.7c-0.07,-0.02 -0.08,0.13 -0.05,-0.15 -0.12,0.03 -0.11,0.06 -0.07,-0.06l-0.33 -0.01c0.04,0.12 0.05,0.1 -0.07,0.06z"/>
   <path class="fil3" d="M16.51 16.51c-0.03,-0.26 -0.03,-0.12 0.06,-0.14l-0.04 -0.72 0.02 -0.08c-0.16,-0.03 -0.15,0.02 -0.1,-0.11 -0.48,0.04 -0.46,0.08 -0.45,0.63 0.01,0.48 0.09,0.5 0.51,0.42z"/>
   <path class="fil3" d="M9.94 16.51c0.15,0 0.18,-0.05 0.07,0.06l0.31 0 0.08 -0.05 0.07 -0.11 -0.04 -0.02c0,0 0.09,-1.38 -0.43,-0.81l-0.08 0.18c-0.06,0.28 0.04,0.49 0.02,0.75z"/>
   <path class="fil3" d="M11.97 5.71c-0.03,0.55 0.52,0.48 1.02,0.37 0.2,-0.82 -0.97,-0.43 -1.02,-0.37z"/>
   <path class="fil3" d="M8.53 15.54c0,0.14 0.05,0.13 -0.07,0.11l0 0.74c0.12,-0.02 0.07,-0.03 0.03,0.1 0.13,-0.02 0.1,-0.04 0.07,0.08l0.32 0.02c-0.03,-0.12 -0.05,-0.1 0.07,-0.07 -0.04,-0.12 -0.07,-0.12 0.05,-0.07l-0.07 -0.85c-0.1,0.01 -0.07,0.02 -0.05,-0.09 -0.13,0.02 -0.1,0.06 -0.1,-0.06l-0.25 0.09z"/>
   <path class="fil3" d="M14.61 16.49l0.38 0.05c0.13,-0.25 0.11,-0.78 0.07,-0.89 -0.13,-0.32 -0.46,-0.19 -0.5,0.16l0.04 0.64c0,0.01 0.01,0.03 0.01,0.04z"/>
   <path class="fil3" d="M13.49 15.51l-0.26 -0.02c0,0 -0.39,1.05 0.13,1.06 0.33,0 0.29,-0.46 0.25,-0.79 -0.03,-0.19 -0.07,-0.19 -0.12,-0.25z"/>
   <path class="fil4" d="M14.61 16.49c0,-0.01 -0.01,-0.03 -0.01,-0.04l-0.04 -0.64c0.04,-0.35 0.37,-0.48 0.5,-0.16 0.04,0.11 0.06,0.64 -0.07,0.89l-0.38 -0.05zm-0.13 -0.18l0.12 0.3c0.74,0.2 0.55,-0.4 0.59,-0.98 -0.1,0 -0.07,0.11 -0.07,-0.12l-0.13 -0.13 -0.4 0.02c-0.14,0.29 -0.19,0.5 -0.11,0.91z"/>
   <path class="fil4" d="M13.49 15.51c0.05,0.06 0.09,0.06 0.12,0.25 0.04,0.33 0.08,0.79 -0.25,0.79 -0.52,-0.01 -0.13,-1.06 -0.13,-1.06l0.26 0.02zm0.09 -0.05c-0.17,-0.11 -0.19,-0.12 -0.35,-0.07l-0.18 0.19c-0.08,0.16 -0.08,0.49 -0.04,0.7 0.04,0.22 0.15,0.3 0.18,0.36 0.26,0 0.31,0.04 0.42,-0.1 0.18,-0.23 0.13,-0.67 0.08,-0.99 -0.14,-0.1 0.01,-0.02 -0.11,-0.09z"/>
   <path class="fil4" d="M9.94 16.51c-0.05,0.15 -0.07,0.12 0.07,0.06l-0.02 0.09c0.14,0 0.38,0.07 0.33,-0.09 0.14,0.05 0.13,0.09 0.08,-0.05 0.15,0.05 0.09,0.05 0.07,-0.11l-0.07 0.11 -0.08 0.05 -0.31 0c0.11,-0.11 0.08,-0.06 -0.07,-0.06 0.02,-0.26 -0.08,-0.47 -0.02,-0.75l0.08 -0.18c0.52,-0.57 0.43,0.81 0.43,0.81 0.12,-0.15 0.01,0.17 0.11,-0.23 0.01,-0.03 0,-0.14 0,-0.18 0.01,-0.7 -0.42,-0.73 -0.63,-0.49 -0.11,0.12 -0.11,0.34 -0.11,0.53 0,0.55 0.03,0.46 0.14,0.49z"/>
   <path class="fil4" d="M16.51 16.51c0.08,-0.05 0.12,0.13 0.06,-0.14l0.06 -0.35c0,-0.23 -0.02,-0.27 -0.1,-0.37l0.04 0.72c-0.09,0.02 -0.09,-0.12 -0.06,0.14 -0.42,0.08 -0.5,0.06 -0.51,-0.42 -0.01,-0.55 -0.03,-0.59 0.45,-0.63 -0.05,0.13 -0.06,0.08 0.1,0.11 0,-0.18 0.05,-0.17 -0.1,-0.11 -0.06,-0.05 0.22,-0.12 -0.24,-0.1 -0.7,0.03 -0.19,1.96 0.3,1.15z"/>
   <path class="fil4" d="M11.39 15.51c-0.14,-0.04 -0.09,-0.05 -0.06,0.12 0.14,0 0.1,0.03 0.06,-0.12 0.12,0.04 0.11,0.06 0.07,-0.06l0.33 0.01c-0.04,0.12 -0.05,0.09 0.07,0.06 -0.03,0.28 -0.02,0.13 0.05,0.15l0 0.7c-0.08,0.02 -0.07,-0.1 -0.06,0.13 -0.12,-0.03 -0.1,-0.06 -0.07,0.06l-0.32 0.02c0.03,-0.12 0.05,-0.09 -0.06,-0.06 0.03,-0.14 0.08,-0.14 -0.05,-0.09l0.01 -0.81c-0.09,0.12 -0.06,0 -0.1,0.26l0.01 0.4c0.04,0.16 0,0.09 0.08,0.15 -0.05,0.14 -0.1,0.13 0.05,0.09 -0.05,0.13 -0.07,0.11 0.06,0.06 0.05,0.03 0,0.06 0.17,0.07 0.33,0.01 0.08,0.01 0.15,-0.09 0.13,0.05 0.12,0.08 0.07,-0.06 0.1,-0.04 0.12,0.1 0.06,-0.13l0.09 -0.35c0.01,-0.21 -0.01,-0.29 -0.09,-0.35 0.08,-0.3 0.02,-0.11 -0.05,-0.15 0.05,-0.13 0.06,-0.11 -0.07,-0.06 -0.06,-0.06 0.01,-0.06 -0.16,-0.08 -0.35,-0.04 -0.11,0.01 -0.17,0.07 -0.12,-0.04 -0.11,-0.07 -0.07,0.06z"/>
   <path class="fil4" d="M8.88 15.51c-0.02,0.11 -0.05,0.1 0.05,0.09l0.07 0.85c-0.12,-0.05 -0.09,-0.05 -0.05,0.07 -0.12,-0.03 -0.1,-0.05 -0.07,0.07l-0.32 -0.02c0.03,-0.12 0.06,-0.1 -0.07,-0.08 0.04,-0.13 0.09,-0.12 -0.03,-0.1l0 -0.74c0.12,0.02 0.07,0.03 0.07,-0.11 -0.15,0 -0.11,-0.04 -0.07,0.11 -0.09,0.1 -0.1,0.67 0,0.74l0.03 0.1 0.07 0.08c0.11,0.1 -0.01,0.06 0.16,0.08 0.36,0.06 0.07,0.04 0.16,-0.06 0.12,0.03 0.1,0.05 0.07,-0.07 0.13,0.04 0.1,0.05 0.05,-0.07 0.03,-0.05 0.05,0.02 0.09,-0.23 0,0 0.01,-0.27 0,-0.27 -0.02,-0.25 0.01,-0.22 -0.16,-0.35 0.03,-0.13 0.07,-0.12 -0.05,-0.09l-0.1 -0.06c0,0.12 -0.03,0.08 0.1,0.06z"/>
  </g>
 </g>
</svg>
