<?xml version="1.0" encoding="UTF-8"?>
<!DOCTYPE svg PUBLIC "-//W3C//DTD SVG 1.1//EN" "http://www.w3.org/Graphics/SVG/1.1/DTD/svg11.dtd">
<!-- Creator: CorelDRAW 2018 (64 Bit Versão de avaliação) -->
<svg xmlns="http://www.w3.org/2000/svg" xml:space="preserve" width="48px" height="48px" version="1.1" style="shape-rendering:geometricPrecision; text-rendering:geometricPrecision; image-rendering:optimizeQuality; fill-rule:evenodd; clip-rule:evenodd"
viewBox="0 0 48 47.99"
 xmlns:xlink="http://www.w3.org/1999/xlink">
 <defs>
  <style type="text/css">
   <![CDATA[
    .str0 {stroke:#A8A1A1;stroke-width:3;stroke-miterlimit:22.9256}
    .str1 {stroke:#373435;stroke-width:1.11;stroke-miterlimit:22.9256}
    .str2 {stroke:#373435;stroke-width:1.11;stroke-linejoin:round;stroke-miterlimit:22.9256}
    .str3 {stroke:black;stroke-width:1.12;stroke-miterlimit:22.9256}
    .str4 {stroke:white;stroke-width:0.09;stroke-miterlimit:22.9256}
    .fil1 {fill:none}
    .fil0 {fill:white}
   ]]>
  </style>
 </defs>
 <g id="Camada_x0020_1">
  <metadata id="CorelCorpID_0Corel-Layer"/>
  <rect class="fil0 str0" x="1.5" y="1.5" width="45" height="44.99" rx="7.51" ry="8.39"/>
  <g id="_2123623940320">
   <circle class="fil1 str1" cx="24.23" cy="13.48" r="1.69"/>
   <path class="fil1 str2" d="M20.36 22.38c-0.02,-2.25 -0.02,-2.46 0.03,-4.32 0.05,-1.54 7.44,-1.3 7.47,-0.08 0.06,2.15 0.06,2.18 0.1,4.4"/>
  </g>
  <g id="_2123623942400">
   <circle class="fil1 str1" cx="24" cy="25.68" r="1.69"/>
   <path class="fil1 str2" d="M20.13 34.59c-0.01,-2.26 -0.02,-2.47 0.03,-4.32 0.05,-1.54 7.44,-1.3 7.48,-0.08 0.06,2.15 0.05,2.17 0.09,4.4"/>
   <ellipse class="fil1 str1" cx="32.89" cy="27.6" rx="1.29" ry="1.39"/>
   <path class="fil1 str2" d="M29.93 34.94c-0.01,-1.86 -0.02,-2.04 0.02,-3.56 0.04,-1.27 5.7,-1.08 5.73,-0.07 0.04,1.77 0.04,1.79 0.07,3.63"/>
   <ellipse class="fil1 str1" cx="14.86" cy="27.37" rx="1.29" ry="1.39"/>
   <path class="fil1 str2" d="M11.89 34.72c-0.01,-1.86 -0.01,-2.04 0.03,-3.57 0.03,-1.26 5.69,-1.07 5.72,-0.06 0.05,1.77 0.04,1.79 0.08,3.63"/>
   <g>
    <line class="fil1 str3" x1="11.32" y1="35.1" x2="36.24" y2= "34.95" />
   </g>
  </g>
  <g id="_2123623956320">
   <line class="fil1 str4" x1="24" y1="1.5" x2="24" y2= "1.5" />
  </g>
  <g id="_2123623955488">
   <g>
    <line class="fil1 str3" x1="14.28" y1="20.16" x2="17.88" y2= "20.16" />
   </g>
   <g>
    <line class="fil1 str3" x1="14.27" y1="19.61" x2="14.3" y2= "23.71" />
   </g>
  </g>
  <g id="_2123623958528">
   <g>
    <line class="fil1 str3" x1="29.97" y1="20.16" x2="33.57" y2= "20.16" />
   </g>
   <g>
    <line class="fil1 str3" x1="33" y1="20.35" x2="33.03" y2= "24.45" />
   </g>
  </g>
 </g>
</svg>
