<?xml version="1.0" encoding="UTF-8"?>
<!DOCTYPE svg PUBLIC "-//W3C//DTD SVG 1.1//EN" "http://www.w3.org/Graphics/SVG/1.1/DTD/svg11.dtd">
<!-- Creator: CorelDRAW 2021 (64 Bit) -->
<svg xmlns="http://www.w3.org/2000/svg" xml:space="preserve" width="752px" height="752px" version="1.1" style="shape-rendering:geometricPrecision; text-rendering:geometricPrecision; image-rendering:optimizeQuality; fill-rule:evenodd; clip-rule:evenodd"
viewBox="0 0 116.9 116.78"
 xmlns:xlink="http://www.w3.org/1999/xlink"
 xmlns:xodm="http://www.corel.com/coreldraw/odm/2003">
 <defs>
  <style type="text/css">
   <![CDATA[
    .str1 {stroke:#AEA19E;stroke-width:2.49;stroke-miterlimit:22.9256;stroke-opacity:0.949020}
    .str3 {stroke:#B8B4B6;stroke-width:7.77;stroke-miterlimit:22.9256}
    .str0 {stroke:white;stroke-width:0.31;stroke-miterlimit:22.9256}
    .str2 {stroke:black;stroke-width:1.86;stroke-miterlimit:22.9256}
    .fil8 {fill:none}
    .fil0 {fill:#FEFEFE}
    .fil6 {fill:#E6E7E8}
    .fil4 {fill:#FFF212}
    .fil5 {fill:aqua}
    .fil3 {fill:red}
    .fil1 {fill:#373435;fill-rule:nonzero}
    .fil2 {fill:black;fill-rule:nonzero}
    .fil7 {fill:#FEFEFE;fill-rule:nonzero;fill-opacity:0.949020}
   ]]>
  </style>
 </defs>
 <g id="Camada_x0020_1">
  <metadata id="CorelCorpID_0Corel-Layer"/>
  <g id="_2180143714832">
   <rect class="fil0" x="3.24" y="3.42" width="109.46" height="109.08"/>
   <path class="fil1" d="M55.73 60.2c-0.19,-0.08 -0.36,-0.19 -0.51,-0.34 -0.29,-0.29 -0.45,-0.68 -0.45,-1.09 -0.01,-1.28 -0.84,-2.07 -1.61,-2.39 -0.78,-0.31 -1.92,-0.33 -2.82,0.58 -0.6,0.61 -1.59,0.61 -2.2,0.01l-2.7 -2.68c-0.29,-0.29 -0.45,-0.68 -0.46,-1.09 0,-0.42 0.16,-0.81 0.45,-1.1 0.9,-0.91 0.88,-2.06 0.55,-2.83 -0.32,-0.77 -1.12,-1.59 -2.4,-1.58 -0.85,0 -1.55,-0.69 -1.56,-1.55l-0.01 -3.8c-0.01,-0.41 0.15,-0.8 0.45,-1.1 0.29,-0.29 0.68,-0.46 1.09,-0.46 1.28,0 2.07,-0.83 2.39,-1.61 0.31,-0.77 0.33,-1.92 -0.58,-2.81 -0.29,-0.29 -0.46,-0.68 -0.46,-1.1 0,-0.41 0.16,-0.81 0.45,-1.1l2.68 -2.7c0.6,-0.61 1.58,-0.61 2.19,-0.01 0.91,0.9 2.05,0.87 2.83,0.55 0.77,-0.32 1.59,-1.12 1.58,-2.4 0,-0.86 0.69,-1.56 1.55,-1.56l3.8 -0.02c0.41,0 0.8,0.16 1.1,0.45 0.29,0.3 0.46,0.69 0.46,1.1 0,1.28 0.83,2.07 1.61,2.38 0,0 0,0 0,0 0.77,0.32 1.92,0.34 2.81,-0.57 0.3,-0.29 0.68,-0.46 1.1,-0.46 0.41,0 0.81,0.16 1.1,0.45l2.7 2.67c0.29,0.3 0.46,0.68 0.46,1.1 0,0.42 -0.16,0.81 -0.45,1.1 -0.9,0.91 -0.87,2.05 -0.55,2.82 0.33,0.77 1.13,1.59 2.4,1.59 0.86,-0.01 1.56,0.69 1.56,1.55l0.02 3.79c0,0.42 -0.16,0.81 -0.45,1.1 -0.29,0.3 -0.68,0.46 -1.1,0.46 -1.27,0.01 -2.07,0.84 -2.38,1.61 -0.32,0.78 -0.33,1.92 0.57,2.82l0 0c0.3,0.29 0.46,0.68 0.46,1.1 0,0.41 -0.16,0.8 -0.45,1.1l-2.67 2.7c-0.29,0.29 -0.68,0.45 -1.1,0.46 -0.41,0 -0.8,-0.16 -1.1,-0.45 -0.91,-0.9 -2.05,-0.87 -2.82,-0.55 -0.77,0.32 -1.59,1.12 -1.59,2.4 0.01,0.85 -0.69,1.55 -1.54,1.56l-3.8 0.01c-0.21,0 -0.41,-0.04 -0.6,-0.11zm-1.98 -5.27c1.58,0.65 2.57,2.12 2.58,3.83l3.79 -0.03c-0.02,-1.7 0.95,-3.18 2.53,-3.84 1.58,-0.66 3.32,-0.32 4.53,0.88l2.65 -2.69c-1.21,-1.2 -1.56,-2.93 -0.91,-4.51 0.65,-1.59 2.11,-2.57 3.82,-2.58l-0.03 -3.79c-1.7,0.02 -3.17,-0.95 -3.83,-2.53 -0.67,-1.58 -0.33,-3.32 0.88,-4.53l-2.7 -2.66c-1.19,1.22 -2.92,1.57 -4.51,0.92 0,0 0,0 0,0 -1.58,-0.65 -2.57,-2.11 -2.58,-3.82l-3.78 0.03c0.01,1.7 -0.96,3.17 -2.54,3.83 -1.58,0.66 -3.31,0.33 -4.53,-0.88l-2.66 2.7c1.22,1.19 1.57,2.92 0.93,4.51 -0.65,1.58 -2.12,2.57 -3.83,2.58l0.03 3.78c1.7,-0.01 3.17,0.96 3.84,2.54 0.66,1.58 0.32,3.31 -0.88,4.53l2.7 2.65c1.18,-1.21 2.92,-1.56 4.5,-0.92z"/>
   <path class="fil1" d="M56.43 55.54c-0.13,-0.05 -0.25,-0.13 -0.36,-0.23 -0.2,-0.21 -0.32,-0.49 -0.32,-0.78 -0.01,-0.91 -0.59,-1.47 -1.14,-1.69 -0.55,-0.23 -1.36,-0.24 -2,0.4 -0.43,0.44 -1.13,0.44 -1.56,0.01l-1.91 -1.9c-0.21,-0.2 -0.33,-0.48 -0.33,-0.78 0,-0.29 0.11,-0.57 0.32,-0.78 0.63,-0.64 0.62,-1.45 0.39,-2 -0.23,-0.55 -0.8,-1.13 -1.7,-1.12 -0.61,0 -1.11,-0.49 -1.11,-1.1l-0.01 -2.7c-0.01,-0.29 0.11,-0.57 0.32,-0.78 0.2,-0.21 0.48,-0.32 0.77,-0.32 0.91,-0.01 1.47,-0.6 1.69,-1.14 0.23,-0.55 0.24,-1.37 -0.4,-2 -0.21,-0.21 -0.33,-0.49 -0.33,-0.78 0,-0.3 0.11,-0.57 0.32,-0.78l1.9 -1.92c0.42,-0.43 1.12,-0.43 1.56,0 0.64,0.63 1.45,0.61 2,0.38 0.55,-0.23 1.13,-0.79 1.12,-1.7 0,-0.61 0.49,-1.1 1.1,-1.11l2.7 -0.01c0.29,0 0.57,0.11 0.78,0.32 0.21,0.21 0.32,0.49 0.33,0.78 0,0.9 0.59,1.47 1.14,1.69 0,0 0,0 0,0 0.54,0.23 1.36,0.24 1.99,-0.41 0.21,-0.21 0.49,-0.32 0.78,-0.32 0.3,0 0.57,0.11 0.78,0.32l1.92 1.89c0.21,0.21 0.32,0.49 0.33,0.78 0,0.3 -0.12,0.57 -0.32,0.78 -0.64,0.65 -0.62,1.46 -0.39,2.01 0.23,0.54 0.79,1.12 1.7,1.12 0.61,0 1.1,0.49 1.11,1.1l0.01 2.69c0,0.3 -0.11,0.58 -0.32,0.78 -0.21,0.21 -0.49,0.33 -0.78,0.33 -0.9,0.01 -1.47,0.59 -1.69,1.14 -0.22,0.55 -0.24,1.36 0.41,2l0 0c0.21,0.21 0.32,0.49 0.32,0.78 0,0.29 -0.11,0.57 -0.32,0.78l-1.89 1.91c-0.21,0.21 -0.49,0.33 -0.78,0.33 -0.3,0 -0.57,-0.11 -0.78,-0.32 -0.65,-0.63 -1.46,-0.62 -2,-0.39 -0.55,0.23 -1.13,0.8 -1.13,1.7 0,0.61 -0.49,1.11 -1.1,1.11l-2.69 0.02c-0.15,0 -0.29,-0.03 -0.43,-0.09zm-1.4 -3.73c1.12,0.46 1.82,1.5 1.83,2.71l2.69 -0.02c-0.02,-1.21 0.67,-2.25 1.79,-2.72 1.12,-0.47 2.36,-0.23 3.22,0.62l1.88 -1.91c-0.86,-0.85 -1.11,-2.08 -0.65,-3.2 0.46,-1.12 1.5,-1.83 2.71,-1.83l-0.02 -2.69c-1.2,0.01 -2.25,-0.68 -2.72,-1.8 -0.47,-1.12 -0.23,-2.35 0.63,-3.21l-1.92 -1.89c-0.84,0.87 -2.07,1.12 -3.2,0.66 0,0 0,0 0,0 -1.12,-0.46 -1.82,-1.5 -1.83,-2.72l-2.68 0.03c0.01,1.2 -0.68,2.25 -1.8,2.72 -1.12,0.47 -2.35,0.23 -3.22,-0.63l-1.88 1.92c0.86,0.84 1.11,2.07 0.65,3.19 -0.46,1.13 -1.5,1.83 -2.71,1.84l0.02 2.68c1.21,-0.01 2.25,0.68 2.72,1.8 0.47,1.12 0.23,2.35 -0.62,3.22l1.91 1.88c0.84,-0.86 2.07,-1.11 3.2,-0.65z"/>
   <path class="fil1" d="M36.65 45.86c0.14,-0.14 0.26,-0.31 0.33,-0.51 0.16,-0.38 0.16,-0.8 0,-1.19 -0.49,-1.17 -0.03,-2.22 0.56,-2.81 0.59,-0.6 1.64,-1.05 2.82,-0.57 0.79,0.33 1.7,-0.05 2.03,-0.84l1.45 -3.51c0.16,-0.39 0.16,-0.81 0,-1.19 -0.16,-0.39 -0.46,-0.68 -0.84,-0.84 -1.18,-0.49 -1.6,-1.56 -1.6,-2.39 0,-0.84 0.41,-1.9 1.59,-2.39 0.79,-0.33 1.17,-1.24 0.84,-2.03l-1.46 -3.51c-0.16,-0.38 -0.45,-0.68 -0.84,-0.84 -0.38,-0.16 -0.8,-0.16 -1.19,0 -1.18,0.49 -2.23,0.03 -2.82,-0.56 -0.59,-0.59 -1.05,-1.64 -0.56,-2.82 0.16,-0.38 0.16,-0.8 0,-1.19 -0.16,-0.38 -0.46,-0.68 -0.85,-0.84l-3.51 -1.45c-0.79,-0.32 -1.7,0.06 -2.03,0.85 -0.48,1.17 -1.55,1.6 -2.38,1.6 -0.84,0 -1.91,-0.42 -2.4,-1.6 -0.33,-0.79 -1.24,-1.17 -2.03,-0.84l-3.5 1.46c-0.39,0.16 -0.69,0.46 -0.85,0.84 -0.15,0.39 -0.15,0.81 0.01,1.19 0.48,1.18 0.03,2.23 -0.56,2.82 0,0 0,0 0,0 -0.59,0.59 -1.64,1.05 -2.82,0.57 -0.38,-0.16 -0.81,-0.16 -1.19,0 -0.38,0.16 -0.68,0.45 -0.84,0.84l-1.45 3.51c-0.16,0.38 -0.16,0.81 0,1.19 0.16,0.38 0.46,0.68 0.84,0.84 1.18,0.49 1.6,1.55 1.6,2.39 0,0.83 -0.42,1.9 -1.59,2.39 -0.8,0.33 -1.17,1.24 -0.84,2.03l1.45 3.51c0.16,0.38 0.46,0.68 0.85,0.84 0.38,0.16 0.8,0.16 1.19,0 1.17,-0.49 2.22,-0.03 2.82,0.56 0.59,0.59 1.05,1.64 0.56,2.81l0 0c-0.16,0.39 -0.16,0.81 0,1.19 0.16,0.39 0.46,0.69 0.84,0.84l3.51 1.45c0.39,0.16 0.81,0.16 1.19,0 0.39,-0.16 0.69,-0.46 0.84,-0.84 0.49,-1.18 1.56,-1.6 2.39,-1.6 0.84,0 1.91,0.42 2.39,1.6 0.33,0.79 1.24,1.16 2.04,0.84l3.5 -1.46c0.2,-0.08 0.37,-0.2 0.51,-0.34zm-0.22 -5.62c-1.21,1.21 -1.55,2.94 -0.89,4.52l-3.5 1.45c-0.65,-1.58 -2.12,-2.56 -3.83,-2.56 -1.71,0.01 -3.18,0.99 -3.83,2.57l-3.49 -1.45c0.65,-1.58 0.3,-3.31 -0.91,-4.51 -1.21,-1.21 -2.94,-1.56 -4.52,-0.9l-1.45 -3.5c1.58,-0.65 2.56,-2.11 2.56,-3.83 0,-1.71 -0.99,-3.18 -2.57,-3.83l1.46 -3.5c1.56,0.66 3.3,0.32 4.51,-0.89 0,0 0,0 0,0 1.21,-1.22 1.55,-2.95 0.89,-4.53l3.5 -1.44c0.65,1.57 2.12,2.55 3.83,2.55 1.71,0 3.18,-0.98 3.83,-2.57l3.5 1.46c-0.66,1.57 -0.32,3.3 0.9,4.51 1.21,1.21 2.94,1.55 4.52,0.9l1.44 3.5c-1.57,0.64 -2.55,2.11 -2.55,3.82 0,1.71 0.99,3.18 2.57,3.83l-1.46 3.5c-1.56,-0.66 -3.3,-0.31 -4.51,0.9z"/>
   <path class="fil1" d="M34.19 41.84c0.11,-0.1 0.19,-0.22 0.24,-0.36 0.12,-0.27 0.12,-0.57 0,-0.84 -0.35,-0.84 -0.02,-1.58 0.4,-2 0.42,-0.42 1.16,-0.75 2,-0.4 0.56,0.23 1.21,-0.04 1.44,-0.6l1.03 -2.49c0.11,-0.27 0.11,-0.57 0,-0.85 -0.12,-0.27 -0.33,-0.48 -0.6,-0.59 -0.84,-0.35 -1.14,-1.1 -1.14,-1.7 0,-0.59 0.3,-1.35 1.13,-1.69 0.57,-0.24 0.83,-0.88 0.6,-1.44l-1.03 -2.49c-0.12,-0.27 -0.33,-0.49 -0.6,-0.6 -0.27,-0.11 -0.57,-0.11 -0.85,0 -0.83,0.35 -1.58,0.03 -2,-0.39 -0.42,-0.42 -0.74,-1.17 -0.4,-2 0.12,-0.28 0.12,-0.58 0,-0.85 -0.11,-0.27 -0.32,-0.48 -0.6,-0.59l-2.49 -1.03c-0.56,-0.24 -1.2,0.03 -1.44,0.59 -0.34,0.84 -1.1,1.14 -1.69,1.14 -0.59,0 -1.35,-0.3 -1.7,-1.13 -0.23,-0.56 -0.88,-0.83 -1.44,-0.6l-2.49 1.04c-0.27,0.11 -0.48,0.32 -0.59,0.59 -0.12,0.28 -0.12,0.58 0,0.85 0.34,0.83 0.02,1.58 -0.4,2 0,0 0,0 0,0 -0.42,0.42 -1.16,0.74 -2,0.4 -0.27,-0.11 -0.57,-0.11 -0.84,0 -0.28,0.11 -0.49,0.33 -0.6,0.6l-1.03 2.49c-0.11,0.27 -0.11,0.57 0,0.84 0.12,0.28 0.33,0.49 0.6,0.6 0.84,0.34 1.13,1.1 1.13,1.69 0,0.6 -0.29,1.35 -1.13,1.7 -0.56,0.23 -0.83,0.88 -0.59,1.44l1.03 2.49c0.11,0.27 0.33,0.48 0.6,0.6 0.27,0.11 0.57,0.11 0.84,0 0.84,-0.35 1.58,-0.03 2,0.39 0.42,0.42 0.75,1.17 0.4,2l0 0c-0.11,0.27 -0.11,0.57 0.01,0.85 0.11,0.27 0.32,0.48 0.59,0.59l2.49 1.03c0.28,0.11 0.58,0.11 0.85,0 0.27,-0.11 0.48,-0.32 0.59,-0.6 0.35,-0.83 1.11,-1.13 1.7,-1.13 0.59,0 1.35,0.29 1.7,1.13 0.23,0.56 0.88,0.83 1.44,0.6l2.49 -1.04c0.13,-0.06 0.25,-0.14 0.35,-0.24zm-0.15 -3.99c-0.86,0.86 -1.1,2.09 -0.63,3.21l-2.49 1.03c-0.45,-1.12 -1.5,-1.82 -2.71,-1.81 -1.22,0 -2.26,0.7 -2.72,1.82l-2.48 -1.03c0.46,-1.12 0.22,-2.35 -0.64,-3.21 -0.86,-0.85 -2.09,-1.1 -3.21,-0.63l-1.03 -2.48c1.12,-0.46 1.82,-1.5 1.82,-2.72 -0.01,-1.21 -0.7,-2.26 -1.83,-2.72l1.04 -2.48c1.11,0.47 2.34,0.22 3.2,-0.64 0,0 0,0 0,0 0.86,-0.86 1.1,-2.09 0.63,-3.21l2.49 -1.02c0.45,1.12 1.5,1.81 2.71,1.81 1.21,0 2.26,-0.7 2.72,-1.82l2.48 1.03c-0.47,1.11 -0.22,2.34 0.64,3.2 0.86,0.86 2.09,1.1 3.21,0.64l1.02 2.48c-1.11,0.46 -1.81,1.5 -1.81,2.71 0,1.22 0.7,2.26 1.82,2.73l-1.03 2.48c-1.11,-0.47 -2.34,-0.23 -3.2,0.63z"/>
   <g>
    <path class="fil2" d="M32.35 36.17c2.29,-2.29 2.29,-6.01 0,-8.3 -2.3,-2.29 -6.02,-2.28 -8.31,0.01 -2.28,2.29 -2.28,6.01 0.01,8.3 2.29,2.29 6.02,2.28 8.3,-0.01zm-7.2 -7.19c1.68,-1.68 4.41,-1.68 6.09,0 1.68,1.67 1.68,4.41 0.01,6.08 -1.68,1.68 -4.41,1.69 -6.09,0.01 -1.68,-1.68 -1.68,-4.41 -0.01,-6.09z"/>
    <circle class="fil3" cx="28.2" cy="32.02" r="4.27"/>
   </g>
   <g>
    <path class="fil1" d="M79.54 45.64c-0.14,-0.14 -0.26,-0.31 -0.34,-0.5 -0.15,-0.39 -0.15,-0.81 0.01,-1.19 0.49,-1.18 0.03,-2.23 -0.56,-2.82 -0.59,-0.6 -1.64,-1.05 -2.82,-0.57 -0.79,0.33 -1.7,-0.05 -2.03,-0.84l-1.45 -3.51c-0.16,-0.38 -0.16,-0.81 0,-1.19 0.16,-0.38 0.46,-0.68 0.84,-0.84 1.18,-0.49 1.6,-1.55 1.6,-2.39 0,-0.84 -0.42,-1.9 -1.59,-2.39 -0.79,-0.33 -1.17,-1.24 -0.84,-2.03l1.46 -3.51c0.15,-0.38 0.45,-0.68 0.84,-0.84 0.38,-0.16 0.8,-0.16 1.19,0 1.17,0.49 2.23,0.03 2.82,-0.56 0.59,-0.59 1.05,-1.64 0.56,-2.82 -0.16,-0.38 -0.16,-0.8 0,-1.18 0.16,-0.39 0.46,-0.69 0.84,-0.85l3.51 -1.45c0.8,-0.32 1.71,0.06 2.03,0.85 0.49,1.18 1.56,1.6 2.39,1.6 0.84,0 1.91,-0.42 2.39,-1.6 0.33,-0.79 1.25,-1.16 2.04,-0.84l3.5 1.46c0.39,0.16 0.69,0.46 0.84,0.84 0.16,0.39 0.16,0.81 0,1.19 -0.49,1.18 -0.03,2.23 0.56,2.82 0,0 0,0 0,0 0.59,0.59 1.64,1.05 2.82,0.57 0.38,-0.16 0.81,-0.16 1.19,0 0.38,0.16 0.68,0.46 0.84,0.84l1.45 3.51c0.16,0.38 0.16,0.81 0,1.19 -0.16,0.38 -0.46,0.68 -0.84,0.84 -1.18,0.49 -1.6,1.55 -1.6,2.39 0,0.83 0.42,1.9 1.59,2.39 0.79,0.33 1.17,1.24 0.84,2.03l-1.46 3.51c-0.15,0.38 -0.45,0.68 -0.84,0.84 -0.38,0.16 -0.8,0.16 -1.19,0 -1.17,-0.49 -2.23,-0.03 -2.82,0.56 -0.59,0.59 -1.05,1.64 -0.56,2.82l0 0c0.16,0.38 0.16,0.8 0,1.18 -0.16,0.39 -0.46,0.69 -0.85,0.85l-3.5 1.44c-0.39,0.16 -0.81,0.16 -1.19,0 -0.39,-0.16 -0.69,-0.45 -0.85,-0.84 -0.48,-1.18 -1.55,-1.6 -2.38,-1.6 -0.84,0 -1.91,0.42 -2.39,1.6 -0.33,0.79 -1.24,1.16 -2.04,0.84l-3.5 -1.46c-0.2,-0.08 -0.37,-0.2 -0.51,-0.34zm0.22 -5.62c1.21,1.21 1.55,2.95 0.89,4.53l3.5 1.44c0.65,-1.58 2.12,-2.56 3.83,-2.56 1.71,0.01 3.18,0.99 3.83,2.57l3.49 -1.45c-0.65,-1.58 -0.3,-3.31 0.91,-4.51 1.21,-1.21 2.94,-1.56 4.52,-0.9l1.44 -3.5c-1.57,-0.64 -2.55,-2.11 -2.55,-3.82 0,-1.72 0.99,-3.18 2.57,-3.84l-1.46 -3.49c-1.56,0.66 -3.3,0.31 -4.51,-0.9 0,0 0,0 0,0 -1.21,-1.21 -1.55,-2.95 -0.89,-4.53l-3.5 -1.44c-0.65,1.57 -2.12,2.55 -3.83,2.55 -1.71,0 -3.18,-0.98 -3.83,-2.57l-3.5 1.46c0.66,1.57 0.32,3.3 -0.9,4.51 -1.21,1.21 -2.94,1.55 -4.52,0.9l-1.44 3.5c1.57,0.64 2.55,2.11 2.55,3.82 0,1.71 -0.99,3.18 -2.57,3.84l1.46 3.49c1.56,-0.66 3.3,-0.31 4.51,0.9z"/>
    <path class="fil1" d="M81.99 41.62c-0.1,-0.1 -0.18,-0.22 -0.23,-0.36 -0.12,-0.27 -0.12,-0.57 0,-0.84 0.34,-0.84 0.02,-1.58 -0.4,-2 -0.42,-0.42 -1.16,-0.75 -2,-0.4 -0.56,0.23 -1.21,-0.04 -1.44,-0.6l-1.03 -2.49c-0.11,-0.27 -0.11,-0.57 0,-0.84 0.12,-0.28 0.33,-0.49 0.6,-0.6 0.84,-0.35 1.14,-1.1 1.14,-1.7 0,-0.59 -0.3,-1.35 -1.14,-1.69 -0.56,-0.24 -0.82,-0.88 -0.59,-1.44l1.03 -2.49c0.12,-0.27 0.33,-0.49 0.6,-0.6 0.27,-0.11 0.57,-0.11 0.84,0 0.84,0.35 1.59,0.03 2.01,-0.39 0.42,-0.42 0.74,-1.17 0.4,-2 -0.12,-0.28 -0.12,-0.58 0,-0.85 0.11,-0.27 0.32,-0.48 0.59,-0.59l2.49 -1.03c0.57,-0.23 1.21,0.03 1.44,0.6 0.35,0.83 1.11,1.13 1.7,1.13 0.59,0 1.35,-0.3 1.7,-1.13 0.23,-0.56 0.88,-0.83 1.44,-0.6l2.49 1.04c0.27,0.11 0.48,0.32 0.59,0.6 0.12,0.27 0.12,0.57 0,0.84 -0.34,0.83 -0.02,1.58 0.4,2 0,0 0,0 0,0 0.42,0.42 1.16,0.75 2,0.4 0.27,-0.11 0.57,-0.11 0.84,0 0.27,0.11 0.49,0.33 0.6,0.6l1.03 2.49c0.11,0.27 0.11,0.57 0,0.84 -0.12,0.28 -0.33,0.49 -0.6,0.6 -0.84,0.34 -1.13,1.1 -1.14,1.69 0,0.6 0.3,1.35 1.14,1.7 0.56,0.23 0.82,0.88 0.59,1.44l-1.03 2.49c-0.12,0.27 -0.33,0.49 -0.6,0.6 -0.27,0.11 -0.57,0.11 -0.84,0 -0.84,-0.35 -1.59,-0.03 -2,0.39 -0.42,0.42 -0.75,1.17 -0.41,2l0 0c0.12,0.28 0.12,0.58 0,0.85 -0.11,0.27 -0.32,0.48 -0.59,0.59l-2.49 1.03c-0.28,0.11 -0.58,0.11 -0.85,0 -0.27,-0.11 -0.48,-0.32 -0.6,-0.6 -0.34,-0.83 -1.1,-1.13 -1.69,-1.13 -0.59,0 -1.35,0.3 -1.7,1.13 -0.23,0.56 -0.88,0.83 -1.44,0.6l-2.49 -1.04c-0.13,-0.06 -0.25,-0.14 -0.36,-0.24zm0.16 -3.99c0.86,0.86 1.1,2.09 0.63,3.22l2.49 1.02c0.45,-1.12 1.5,-1.81 2.71,-1.81 1.21,0 2.26,0.7 2.72,1.82l2.47 -1.03c-0.45,-1.12 -0.21,-2.35 0.65,-3.2 0.86,-0.86 2.09,-1.11 3.21,-0.64l1.02 -2.48c-1.11,-0.46 -1.81,-1.5 -1.81,-2.72 0,-1.21 0.7,-2.25 1.82,-2.72l-1.03 -2.48c-1.11,0.47 -2.34,0.22 -3.2,-0.64 0,0 0,0 0,0 -0.86,-0.86 -1.1,-2.09 -0.63,-3.21l-2.49 -1.02c-0.45,1.12 -1.5,1.81 -2.71,1.81 -1.22,0 -2.26,-0.7 -2.72,-1.82l-2.48 1.03c0.47,1.11 0.22,2.34 -0.64,3.2 -0.86,0.86 -2.09,1.1 -3.21,0.64l-1.02 2.48c1.11,0.46 1.81,1.5 1.81,2.72 0,1.21 -0.7,2.25 -1.82,2.72l1.03 2.48c1.11,-0.47 2.34,-0.23 3.2,0.63z"/>
    <path class="fil2" d="M92.14 35.95c2.29,-2.29 2.29,-6.01 0,-8.3 -2.29,-2.29 -6.02,-2.28 -8.3,0.01 -2.29,2.29 -2.29,6.01 0,8.3 2.29,2.29 6.02,2.28 8.3,-0.01zm-7.2 -7.18c1.68,-1.68 4.41,-1.69 6.09,-0.01 1.68,1.68 1.68,4.41 0.01,6.09 -1.68,1.68 -4.41,1.68 -6.09,0 -1.68,-1.67 -1.68,-4.4 -0.01,-6.08z"/>
    <circle class="fil4" cx="87.99" cy="31.81" r="4.27"/>
   </g>
   <path class="fil2" d="M62.31 48.31c2.28,-2.29 2.28,-6.01 -0.01,-8.3 -2.29,-2.28 -6.02,-2.28 -8.3,0.01 -2.29,2.29 -2.29,6.02 0.01,8.3 2.29,2.29 6.01,2.29 8.3,-0.01zm-7.2 -7.18c1.67,-1.68 4.4,-1.68 6.08,-0.01 1.68,1.68 1.68,4.41 0.01,6.09 -1.68,1.68 -4.41,1.68 -6.09,0.01 -1.68,-1.68 -1.68,-4.41 0,-6.09z"/>
   <circle class="fil5" cx="58.15" cy="44.17" r="4.27"/>
   <g>
    <rect class="fil6 str0" x="17.59" y="65.71" width="14.57" height="33.52"/>
    <path class="fil1" d="M56.33 101.38c-2.79,0 -5.55,-1.02 -8.23,-2.02 -2.95,-1.09 -5.99,-2.23 -9.01,-1.96l-7.44 0.66 0 -28.87 4.05 -0.36c2.52,-0.21 4.64,0.76 6.67,1.71 1.92,0.89 3.73,1.74 5.8,1.56l13.34 -2.42c4.77,-0.81 7.4,1.94 9,4.47l14.56 -6.77c5.49,-2.46 11.66,0.01 15.36,6.15 0.97,1.62 0.43,3.76 -1.2,4.78 -1.89,1.18 -3.77,2.35 -5.63,3.52 -16.26,10.19 -30.3,18.99 -36.31,19.51 -0.32,0.03 -0.64,0.04 -0.96,0.04zm-16.31 -6.02c3.06,0 5.96,1.08 8.78,2.13 2.9,1.08 5.65,2.1 8.32,1.86 5.53,-0.48 20.05,-9.58 35.42,-19.21 1.86,-1.17 3.74,-2.35 5.63,-3.52 0.72,-0.45 0.96,-1.37 0.55,-2.06 -3.15,-5.24 -8.31,-7.39 -12.82,-5.36l-16.19 7.52c-0.03,-1.05 -0.83,-2.27 -1.28,-2.8 -1.49,-1.78 -4.39,-2.65 -6.58,-2.27l-13.42 2.43c-2.69,0.22 -4.83,-0.77 -6.9,-1.73 -1.88,-0.88 -3.66,-1.71 -5.65,-1.53l-2.23 0.2 0 24.86 5.26 -0.47c0.38,-0.03 0.75,-0.05 1.11,-0.05z"/>
    <path class="fil7 str1" d="M30.26 101.38l-11.39 0c-1.87,0 -3.39,-1.52 -3.39,-3.39l0 -30.62c0,-1.86 1.52,-3.38 3.39,-3.38l11.39 0c1.87,0 3.39,1.52 3.39,3.38l0 30.63c0,1.86 -1.52,3.38 -3.39,3.38zm-11.39 -35.4c-0.77,0 -1.39,0.63 -1.39,1.39l0 30.63c0,0.76 0.62,1.39 1.39,1.39l11.39 0c0.77,0 1.39,-0.63 1.39,-1.4l0 -30.62c0,-0.76 -0.62,-1.39 -1.39,-1.39l-11.39 0z"/>
    <path class="fil8 str2" d="M70.49 76.21c0.25,0.47 0.27,1.28 -0.29,2.17 -0.86,1.38 -2.83,2.45 -7.63,1.89 -3.55,-0.42 -7.8,0.41 -11.49,0.8"/>
   </g>
   <path class="fil8 str3" d="M8.78 3.89l99.45 0c2.64,-0.01 4.78,2.44 4.78,5.46l0 98.09c0,3.01 -2.14,5.46 -4.78,5.46l-99.45 0c-2.64,0 -4.78,-2.45 -4.78,-5.46 0,-11.79 -0.17,-95.01 -0.1,-99.28 0.05,-2.36 2.91,-4.28 4.88,-4.28z"/>
  </g>
 </g>
</svg>
