<?xml version="1.0" encoding="UTF-8"?>
<!DOCTYPE svg PUBLIC "-//W3C//DTD SVG 1.1//EN" "http://www.w3.org/Graphics/SVG/1.1/DTD/svg11.dtd">
<!-- Creator: CorelDRAW 2021 (64 Bit) -->
<svg xmlns="http://www.w3.org/2000/svg" xml:space="preserve" width="753px" height="753px" version="1.1" style="shape-rendering:geometricPrecision; text-rendering:geometricPrecision; image-rendering:optimizeQuality; fill-rule:evenodd; clip-rule:evenodd"
viewBox="0 0 42.31 42.31"
 xmlns:xlink="http://www.w3.org/1999/xlink"
 xmlns:xodm="http://www.corel.com/coreldraw/odm/2003">
 <defs>
  <style type="text/css">
   <![CDATA[
    .fil2 {fill:black}
    .fil5 {fill:#333333}
    .fil8 {fill:#344E82}
    .fil7 {fill:#525355}
    .fil4 {fill:#6598FE}
    .fil6 {fill:#717275}
    .fil1 {fill:#B8B4B6}
    .fil3 {fill:#D2D3D5}
    .fil0 {fill:#FDFDFD}
   ]]>
  </style>
 </defs>
 <g id="Camada_x0020_1">
  <metadata id="CorelCorpID_0Corel-Layer"/>
  <g id="_2216598389552">
   <path class="fil0" d="M13.86 36.06c0.03,1.35 -0.95,1.77 -2.12,1.76 -1.16,0 -2.71,0.09 -3.82,-0.01 -0.6,-0.05 -1.02,-0.35 -1.23,-0.68 -0.32,-0.53 -0.32,-0.92 -0.32,-1.62l0 -7.7c0,-1.66 -0.44,-4.09 1.37,-4.4 0.27,-0.04 4.28,-0.06 4.7,-0.01 0.34,0.05 0.42,0.15 0.54,0.2 0.14,0.04 0.06,0.06 0.16,-0.01 -0.28,-0.5 -0.59,-0.77 -0.59,-1.62 0,-0.77 0.28,-1.16 0.55,-1.69 -1.75,0 -1.71,0.16 -3.05,-1.45 -0.54,-0.66 -0.4,-0.85 -0.37,-1.86 0.02,-0.75 0.04,-1.5 0.04,-2.25 -0.08,-0.17 -0.02,-0.1 -0.32,-0.1l0.11 -8.93 4.88 -0.02c0.76,-0.06 4.07,0 5.11,0 0.86,0 1.72,0 2.58,0.01 0.11,0 2.4,-0.05 2.46,0.06 0.02,0.04 0.02,0.01 0.04,0.11 0.01,0.02 0.01,0.07 0.01,0.11l0.02 2.88c0.19,0.18 0.48,0.35 0.7,0.52 0.37,0.28 0.43,0.21 0.98,0.21 0.83,0.01 1.65,0.03 2.48,0.04 1.55,0.02 1.34,-0.28 2.67,2.33 0.34,0.67 1.59,2.81 1.67,3.26 0.08,0.43 -0.02,4.15 -0.03,4.91l-2.43 0.03c0.19,0.37 0.45,0.54 0.61,1.24 0.34,1.38 -0.86,3.24 -2.6,3.24 -1.17,0 -2.08,-0.75 -2.47,-1.43 -0.63,-1.11 -0.27,-2.16 0.31,-3l-9.08 0.05c0.28,0.59 0.68,0.97 0.57,1.9 -0.08,0.75 -0.48,1.28 -0.84,1.69 -0.85,0.97 -2.51,1 -3.58,0.14 -0.19,-0.08 -0.27,-0.13 -0.37,-0.31 -0.16,0.1 -0.06,0.04 0.11,0.17 0.5,0.38 0.6,1.18 0.54,1.79 1.38,-0.16 2.24,0.41 3.28,0.85 1.3,0.55 2.09,0.2 3.45,-0.04 1.73,-0.31 3.85,-1.07 5.14,-0.06 0.19,0.16 0.39,0.38 0.54,0.52 0.19,0.2 0.3,0.41 0.48,0.6 0.44,-0.12 3.7,-1.71 4.43,-2.04 0.77,-0.35 1.47,-0.75 2.49,-0.72 1.66,0.04 3.1,1.2 3.89,2.56 0.25,0.44 0.23,0.9 -0.02,1.31 -0.21,0.36 -0.52,0.48 -0.9,0.72 -1.33,0.85 -2.69,1.68 -4.01,2.51 -1.86,1.17 -6.19,3.84 -8.25,4.73 -2.05,0.89 -2.86,1.12 -5.15,0.29 -2.24,-0.81 -2.68,-1.09 -5.36,-0.79zm-10.78 3.34c0.27,0.13 23.45,0.05 27.09,0.05 1.11,0 8.7,0.1 9.07,-0.04 0.33,-0.22 0.23,-1 0.23,-1.48l0 -32.7c0,-0.56 0.01,-1.13 0,-1.69 -0.02,-0.88 -0.31,-0.7 -1.1,-0.7 -3.77,0 -34.92,-0.06 -35.27,0.03 -0.31,0.09 -0.29,0.22 -0.29,0.55 0.06,11.45 0.03,22.99 0.04,34.45 0,0.5 -0.1,1.28 0.23,1.53z"/>
   <path class="fil1" d="M3.08 39.4c-0.33,-0.25 -0.23,-1.03 -0.23,-1.53 -0.01,-11.46 0.02,-23 -0.04,-34.45 0,-0.33 -0.02,-0.46 0.29,-0.55 0.35,-0.09 31.5,-0.03 35.27,-0.03 0.79,0 1.08,-0.18 1.1,0.7 0.01,0.56 0,1.13 0,1.69l0 32.7c0,0.48 0.1,1.26 -0.23,1.48 -0.37,0.14 -7.96,0.04 -9.07,0.04 -3.64,0 -26.82,0.08 -27.09,-0.05zm3.72 2.91l-3.17 0c-0.62,-0.03 -1.17,-0.1 -1.5,-0.23 -0.73,-0.29 -1.35,-0.85 -1.7,-1.55 -0.16,-0.32 -0.35,-0.83 -0.37,-1.26l-0.06 -36.4c0,-0.85 0.62,-1.65 1.11,-2.05 0.59,-0.47 1.27,-0.82 2.32,-0.82l35.51 0c2.08,0 3.37,1.56 3.37,3.65l0 35.06c0,1.02 -0.34,1.88 -0.83,2.43 -0.3,0.34 -0.46,0.5 -0.88,0.75 -0.32,0.2 -0.77,0.36 -1.27,0.36l-16.29 0c-1.14,0 -2.09,0.06 -3.21,0.06 -4.34,0 -8.69,0 -13.03,0z"/>
   <path class="fil0" d="M27.07 28.26c0.24,0.73 -0.37,1.31 -0.77,1.53 -1.17,0.63 -2.59,0.12 -4.41,0.3 -0.63,0.07 -1.57,0.26 -2.16,0.25l-0.05 -0.66c1.16,-0.15 2.47,-0.36 3.64,-0.33 0.65,0.02 1.22,0.15 1.9,0.07 0.67,-0.08 0.94,-0.24 1.2,-0.71 0.07,-1.19 -1.03,-2.01 -2.17,-2.12 -0.73,-0.07 -2.79,0.41 -3.61,0.56 -1.38,0.24 -2.28,0.58 -3.62,0.05 -1.13,-0.45 -1.71,-0.99 -3.17,-0.86l0.01 9c2.36,-0.32 3.09,-0.08 5.1,0.65 2.13,0.77 2.69,0.93 4.83,0.04 0.68,-0.28 1.41,-0.66 2.03,-1 0.67,-0.35 1.31,-0.72 1.94,-1.09 1.27,-0.77 2.54,-1.5 3.78,-2.29l4.67 -2.91c0.32,-0.2 0.75,-0.37 0.78,-0.76 0.04,-0.52 -1.02,-1.53 -1.31,-1.75 -1.82,-1.39 -3.01,-0.65 -4.49,0.01l-3.11 1.45c-0.19,0.09 -0.35,0.15 -0.54,0.24 -0.6,0.29 -0.38,0.15 -0.47,0.33z"/>
   <path class="fil2" d="M27.16 22.25c-0.4,-2.02 2.6,-2.41 2.89,-0.55 0.13,0.88 -0.47,1.58 -1.2,1.7 -0.87,0.14 -1.56,-0.46 -1.69,-1.15zm-13.32 0c-0.39,-2 2.59,-2.43 2.89,-0.55 0.31,1.93 -2.53,2.37 -2.89,0.55zm15.3 -2.29c1.13,-0.01 0.99,-0.09 1.51,0.69 0.69,1.04 0.38,2.32 -0.52,3.13 -1.83,1.63 -5.18,-0.61 -3.55,-3.21 0.4,-0.63 0.54,-0.7 1.54,-0.59 -0.35,-0.05 -1.67,0.76 -1.55,2.16 0.22,2.35 3.64,2.47 4.03,0.15 0.1,-0.58 -0.08,-1.15 -0.35,-1.53 -0.34,-0.48 -0.59,-0.5 -1.11,-0.8zm-13.32 0l0.97 -0.01c0.27,0.41 0.56,0.57 0.81,1.22 0.56,1.47 -0.89,3.56 -2.82,3.1 -1.65,-0.4 -2.55,-2.11 -1.47,-3.77 0.36,-0.55 0.51,-0.63 1.49,-0.52 -0.36,-0.04 -1.67,0.77 -1.54,2.16 0.09,1 0.91,1.82 1.97,1.84 1.9,0.04 2.93,-2.38 1.22,-3.69 -0.22,-0.16 -0.41,-0.21 -0.63,-0.33zm-5.05 -2.8l0.06 -1.05c0.19,-0.13 1.57,-0.05 1.81,-0.05 0.64,0 1.28,0.01 1.91,0.01 0.61,0 3.45,-0.07 3.77,0.06l7.57 -0.01 0.01 -2.51 0.07 -2.87c0.07,-0.09 -0.07,-0.03 0.1,-0.07 0.04,-0.01 2.24,0.02 2.27,0.08l1.18 -0.01c0.61,1.14 1.29,2.35 1.9,3.52 0.52,1.01 0.6,0.77 0.58,2.15 0,0.46 0.05,2.3 -0.07,2.6l-19.51 0.15c-0.76,0.01 -0.62,-0.03 -0.96,-0.45l-0.68 -0.71 -0.01 -0.84zm-0.15 -10.36c3.26,0 6.52,0.01 9.78,0.01 0.82,0.01 1.65,0.01 2.47,0.01 0.7,-0.01 0.59,-0.11 0.59,0.6l0.02 6.07 -12.94 0 0.08 -6.69zm13.97 3.46c0.27,0.14 0.25,0.11 0.24,0.47l-0.05 4.28 -13.94 -0.05 0.01 -0.34 13.75 -0.01 -0.01 -4.1 0 -0.25zm-11.45 13.33c0.11,0.09 0.12,0.11 0.21,0.2 0.09,0.08 0.13,0.09 0.22,0.18 1.07,0.86 2.73,0.83 3.58,-0.14 0.36,-0.41 0.76,-0.94 0.84,-1.69 0.11,-0.93 -0.29,-1.31 -0.57,-1.9l9.08 -0.05c-0.58,0.84 -0.94,1.89 -0.31,3 0.39,0.68 1.3,1.43 2.47,1.43 1.74,0 2.94,-1.86 2.6,-3.24 -0.16,-0.7 -0.42,-0.87 -0.61,-1.24l2.43 -0.03c0.01,-0.76 0.11,-4.48 0.03,-4.91 -0.08,-0.45 -1.33,-2.59 -1.67,-3.26 -1.33,-2.61 -1.12,-2.31 -2.67,-2.33 -0.83,-0.01 -1.65,-0.03 -2.48,-0.04 -0.55,0 -0.61,0.07 -0.98,-0.21 -0.22,-0.17 -0.51,-0.34 -0.7,-0.52 -0.16,-0.2 -0.08,-1.29 -0.09,-1.54 0,-0.45 -0.06,-1.15 0.02,-1.56l-10.15 -0.07 -4.88 0.02 -0.11 8.93c0.3,0 0.24,-0.07 0.32,0.1 0,0.75 -0.02,1.5 -0.04,2.25 -0.03,1.01 -0.17,1.2 0.37,1.86 1.34,1.61 1.3,1.45 3.05,1.45 -0.27,0.53 -0.55,0.92 -0.55,1.69 0,0.85 0.31,1.12 0.59,1.62z"/>
   <path class="fil3" d="M10.54 13.49l12.94 0 -0.02 -6.07c0,-0.71 0.11,-0.61 -0.59,-0.6 -0.82,0 -1.65,0 -2.47,-0.01 -3.26,0 -6.52,-0.01 -9.78,-0.01l-0.08 6.69z"/>
   <path class="fil4" d="M26.2 14.41l0.04 -2.77 0.01 -0.61c0.36,-0.07 1.07,-0.08 1.35,0.04 0.39,-0.09 1.53,0 2,0.01 0.36,0.71 2.09,4.15 2.26,4.62l-4.65 -0.08 -1.05 -0.02c-0.07,-0.19 -0.05,-1.06 0.04,-1.19zm-0.3 -0.8l-0.01 2.51 -7.57 0.01 -7.49 -0.02c0.03,0.2 0.04,0.92 -0.06,1.05l0.01 0.84 0.68 0.71c0.34,0.42 0.2,0.46 0.96,0.45l19.51 -0.15c0.12,-0.3 0.07,-2.14 0.07,-2.6 0.02,-1.38 -0.06,-1.14 -0.58,-2.15 -0.61,-1.17 -1.29,-2.38 -1.9,-3.52l-1.18 0.01 -2.37 -0.01c0.07,0.32 0.02,2.63 -0.07,2.87z"/>
   <path class="fil1" d="M8.02 25.07c0.01,-0.01 0.03,-0.03 0.04,-0.02l0.42 -0.04c0.69,0.01 3.48,-0.06 3.71,0.05l0.03 11.12c-0.35,0.08 -3.89,0.08 -4.19,-0.01l-0.01 -11.1zm5.55 -1.1c-0.09,-0.09 -0.13,-0.1 -0.22,-0.18 -0.09,-0.09 -0.1,-0.11 -0.21,-0.2 -0.1,0.07 -0.02,0.05 -0.16,0.01 -0.12,-0.05 -0.2,-0.15 -0.54,-0.2 -0.42,-0.05 -4.43,-0.03 -4.7,0.01 -1.81,0.31 -1.37,2.74 -1.37,4.4l0 7.7c0,0.7 0,1.09 0.32,1.62 0.21,0.33 0.63,0.63 1.23,0.68 1.11,0.1 2.66,0.01 3.82,0.01 1.17,0.01 2.15,-0.41 2.12,-1.76l0 -0.72 -0.01 -9 0 -0.72c0.06,-0.61 -0.04,-1.41 -0.54,-1.79 -0.17,-0.13 -0.27,-0.07 -0.11,-0.17 0.1,0.18 0.18,0.23 0.37,0.31z"/>
   <path class="fil3" d="M8.03 36.17c0.3,0.09 3.84,0.09 4.19,0.01l-0.03 -11.12c-0.23,-0.11 -3.02,-0.04 -3.71,-0.05l-0.42 0.04c-0.01,-0.01 -0.03,0.01 -0.04,0.02l0.01 11.1z"/>
   <path class="fil5" d="M13.85 25.62l0 0.72c1.46,-0.13 2.04,0.41 3.17,0.86 1.34,0.53 2.24,0.19 3.62,-0.05 0.82,-0.15 2.88,-0.63 3.61,-0.56 1.14,0.11 2.24,0.93 2.17,2.12l0.1 -0.34 0.47 -0.25c0,0.01 0.01,0.05 0.01,0.06l0.07 0.08c0.09,-0.18 -0.13,-0.04 0.47,-0.33 0.19,-0.09 0.35,-0.15 0.54,-0.24l3.11 -1.45c1.48,-0.66 2.67,-1.4 4.49,-0.01 0.29,0.22 1.35,1.23 1.31,1.75 -0.03,0.39 -0.46,0.56 -0.78,0.76l-4.67 2.91c-1.24,0.79 -2.51,1.52 -3.78,2.29 -0.63,0.37 -1.27,0.74 -1.94,1.09 -0.62,0.34 -1.35,0.72 -2.03,1 -2.14,0.89 -2.7,0.73 -4.83,-0.04 -2.01,-0.73 -2.74,-0.97 -5.1,-0.65l0 0.72c2.68,-0.3 3.12,-0.02 5.36,0.79 2.29,0.83 3.1,0.6 5.15,-0.29 2.06,-0.89 6.39,-3.56 8.25,-4.73 1.32,-0.83 2.68,-1.66 4.01,-2.51 0.38,-0.24 0.69,-0.36 0.9,-0.72 0.25,-0.41 0.27,-0.87 0.02,-1.31 -0.79,-1.36 -2.23,-2.52 -3.89,-2.56 -1.02,-0.03 -1.72,0.37 -2.49,0.72 -0.73,0.33 -3.99,1.92 -4.43,2.04 -0.18,-0.19 -0.29,-0.4 -0.48,-0.6 -0.15,-0.14 -0.35,-0.36 -0.54,-0.52 -1.29,-1.01 -3.41,-0.25 -5.14,0.06 -1.36,0.24 -2.15,0.59 -3.45,0.04 -1.04,-0.44 -1.9,-1.01 -3.28,-0.85z"/>
   <path class="fil0" d="M26.64 14.66l-0.01 0.46c0.22,0 0.47,-0.01 0.63,0.06l3.87 0.05 -1.8 -3.71 -2.62 -0.04 -0.07 3.18z"/>
   <path class="fil2" d="M26.64 14.66l0.07 -3.18 2.62 0.04 1.8 3.71 -3.87 -0.05 -0.65 -0.04c-0.04,-0.19 -0.04,-0.34 0.03,-0.48zm-0.4 -3.02l-0.04 2.77 -0.04 1.13c0.32,0.01 0.8,-0.02 1.05,0.08l4.65 0.08c-0.17,-0.47 -1.9,-3.91 -2.26,-4.62 -0.47,-0.01 -1.61,-0.1 -2,-0.01 -0.39,0.06 -0.84,-0.01 -1.27,-0.04l-0.09 0.61z"/>
   <path class="fil0" d="M24.59 10.51l0.01 4.1 -13.75 0.01 -0.01 0.34 13.94 0.05 0.05 -4.28c0.01,-0.36 0.03,-0.33 -0.24,-0.47l0 0.25z"/>
   <path class="fil0" d="M14.67 22.14c-0.23,-0.86 1,-1.14 1.22,-0.38 0.25,0.86 -1.01,1.14 -1.22,0.38zm-0.83 0.11c0.36,1.82 3.2,1.38 2.89,-0.55 -0.3,-1.88 -3.28,-1.45 -2.89,0.55z"/>
   <path class="fil0" d="M28.45 21.34c0.77,-0.22 1.11,0.99 0.34,1.22 -0.82,0.24 -1.21,-0.97 -0.34,-1.22zm-1.29 0.91c0.13,0.69 0.82,1.29 1.69,1.15 0.73,-0.12 1.33,-0.82 1.2,-1.7 -0.29,-1.86 -3.29,-1.47 -2.89,0.55z"/>
   <path class="fil2" d="M26.42 28.71c-0.26,0.47 -0.53,0.63 -1.2,0.71 -0.68,0.08 -1.25,-0.05 -1.9,-0.07 -1.17,-0.03 -2.48,0.18 -3.64,0.33l0.05 0.66c0.59,0.01 1.53,-0.18 2.16,-0.25 1.82,-0.18 3.24,0.33 4.41,-0.3 0.4,-0.22 1.01,-0.8 0.77,-1.53l-0.07 -0.08c0,-0.01 -0.01,-0.05 -0.01,-0.06l-0.47 0.25 -0.1 0.34z"/>
   <path class="fil6" d="M15.82 19.96c0.22,0.12 0.41,0.17 0.63,0.33 1.71,1.31 0.68,3.73 -1.22,3.69 -1.06,-0.02 -1.88,-0.84 -1.97,-1.84 -0.13,-1.39 1.18,-2.2 1.54,-2.16 -0.98,-0.11 -1.13,-0.03 -1.49,0.52 -1.08,1.66 -0.18,3.37 1.47,3.77 1.93,0.46 3.38,-1.63 2.82,-3.1 -0.25,-0.65 -0.54,-0.81 -0.81,-1.22l-0.97 0.01z"/>
   <path class="fil6" d="M29.14 19.96c0.52,0.3 0.77,0.32 1.11,0.8 0.27,0.38 0.45,0.95 0.35,1.53 -0.39,2.32 -3.81,2.2 -4.03,-0.15 -0.12,-1.4 1.2,-2.21 1.55,-2.16 -1,-0.11 -1.14,-0.04 -1.54,0.59 -1.63,2.6 1.72,4.84 3.55,3.21 0.9,-0.81 1.21,-2.09 0.52,-3.13 -0.52,-0.78 -0.38,-0.7 -1.51,-0.69z"/>
   <path class="fil2" d="M14.67 22.14c0.21,0.76 1.47,0.48 1.22,-0.38 -0.22,-0.76 -1.45,-0.48 -1.22,0.38z"/>
   <path class="fil2" d="M28.45 21.34c-0.87,0.25 -0.48,1.46 0.34,1.22 0.77,-0.23 0.43,-1.44 -0.34,-1.22z"/>
   <path class="fil7" d="M24.54 5.74c-0.08,0.41 -0.02,1.11 -0.02,1.56 0.01,0.25 -0.07,1.34 0.09,1.54l-0.02 -2.88c0,-0.04 0,-0.09 -0.01,-0.11 -0.02,-0.1 -0.02,-0.07 -0.04,-0.11 -0.06,-0.11 -2.35,-0.06 -2.46,-0.06 -0.86,-0.01 -1.72,-0.01 -2.58,-0.01 -1.04,0 -4.35,-0.06 -5.11,0l10.15 0.07z"/>
   <path class="fil8" d="M10.77 17.16c0.1,-0.13 0.09,-0.85 0.06,-1.05l7.49 0.02c-0.32,-0.13 -3.16,-0.06 -3.77,-0.06 -0.63,0 -1.27,-0.01 -1.91,-0.01 -0.24,0 -1.62,-0.08 -1.81,0.05l-0.06 1.05z"/>
   <path class="fil8" d="M25.9 13.61c0.09,-0.24 0.14,-2.55 0.07,-2.87l2.37 0.01c-0.03,-0.06 -2.23,-0.09 -2.27,-0.08 -0.17,0.04 -0.03,-0.02 -0.1,0.07l-0.07 2.87z"/>
   <path class="fil5" d="M26.24 11.64l0.09 -0.61c0.43,0.03 0.88,0.1 1.27,0.04 -0.28,-0.12 -0.99,-0.11 -1.35,-0.04l-0.01 0.61z"/>
   <path class="fil8" d="M27.21 15.62c-0.25,-0.1 -0.73,-0.07 -1.05,-0.08l0.04 -1.13c-0.09,0.13 -0.11,1 -0.04,1.19l1.05 0.02z"/>
   <path class="fil6" d="M27.26 15.18c-0.16,-0.07 -0.41,-0.06 -0.63,-0.06l0.01 -0.46c-0.07,0.14 -0.07,0.29 -0.03,0.48l0.65 0.04z"/>
  </g>
 </g>
</svg>
