<?xml version="1.0" encoding="UTF-8"?>
<!DOCTYPE svg PUBLIC "-//W3C//DTD SVG 1.1//EN" "http://www.w3.org/Graphics/SVG/1.1/DTD/svg11.dtd">
<!-- Creator: CorelDRAW 2021 (64 Bit) -->
<svg xmlns="http://www.w3.org/2000/svg" xml:space="preserve" width="650px" height="650px" version="1.1" style="shape-rendering:geometricPrecision; text-rendering:geometricPrecision; image-rendering:optimizeQuality; fill-rule:evenodd; clip-rule:evenodd"
viewBox="0 0 29.35 29.35"
 xmlns:xlink="http://www.w3.org/1999/xlink"
 xmlns:xodm="http://www.corel.com/coreldraw/odm/2003">
 <defs>
  <style type="text/css">
   <![CDATA[
    .str1 {stroke:white;stroke-width:0.9;stroke-miterlimit:22.9256}
    .str0 {stroke:#EDEDED;stroke-width:2.26;stroke-miterlimit:22.9256}
    .fil0 {fill:none}
    .fil2 {fill:#FEFEFE}
    .fil1 {fill:#00AFEF}
   ]]>
  </style>
 </defs>
 <g id="Camada_x0020_1">
  <metadata id="CorelCorpID_0Corel-Layer"/>
  <path class="fil0" d="M2.07 0.91l25.16 0c0.67,0 1.21,0.62 1.21,1.38l0 24.81c0,0.77 -0.54,1.39 -1.21,1.39l-25.16 0c-0.67,0 -1.21,-0.62 -1.21,-1.39l0 -24.81c0,-0.76 0.54,-1.38 1.21,-1.38z"/>
  <circle class="fil1 str0" cx="14.67" cy="14.67" r="13.54"/>
  <path class="fil2 str1" d="M19.99 8.26l0.47 -3.45c-4.26,-1.3 -7.61,-0.06 -7.45,4.46l-0.03 3.17 -2.39 0 0 3.13 2.39 0 0 10.39 3.21 0 0 -10.39 3.08 0 0 -3.13 -3.11 0c-0.01,-1.43 -0.04,-2.3 0.11,-3.08 0.33,-1.78 1.43,-2.19 3.72,-1.1z"/>
 </g>
</svg>
