<?xml version="1.0" encoding="UTF-8"?>
<!DOCTYPE svg PUBLIC "-//W3C//DTD SVG 1.1//EN" "http://www.w3.org/Graphics/SVG/1.1/DTD/svg11.dtd">
<!-- Creator: CorelDRAW 2021 (64 Bit) -->
<svg xmlns="http://www.w3.org/2000/svg" xml:space="preserve" width="578px" height="597px" version="1.1" style="shape-rendering:geometricPrecision; text-rendering:geometricPrecision; image-rendering:optimizeQuality; fill-rule:evenodd; clip-rule:evenodd"
viewBox="0 0 22.74 23.48"
 xmlns:xlink="http://www.w3.org/1999/xlink"
 xmlns:xodm="http://www.corel.com/coreldraw/odm/2003">
 <defs>
  <style type="text/css">
   <![CDATA[
    .fil2 {fill:black}
    .fil4 {fill:#A6D393}
    .fil1 {fill:#E0D4BA}
    .fil0 {fill:#FF0037}
    .fil3 {fill:white}
   ]]>
  </style>
 </defs>
 <g id="Camada_x0020_1">
  <metadata id="CorelCorpID_0Corel-Layer"/>
  <g id="_1390682312960">
   <path class="fil0" d="M11.09 2.66c0.65,-0.04 1.34,0.2 1.83,0.63 0.11,0.09 0.27,0.24 0.35,0.36 0.06,0.07 0.11,0.13 0.16,0.21 0.7,1.06 0.75,2.36 0.13,3.48 -0.09,0.17 -0.32,0.49 -0.46,0.62 -0.07,0.06 -0.12,0.11 -0.19,0.17 -0.44,0.36 -0.9,0.58 -1.49,0.62 -1.56,0.11 -2.83,-1.25 -2.91,-2.86 -0.02,-0.47 0.05,-0.93 0.19,-1.32 0.13,-0.37 0.21,-0.46 0.38,-0.73 0.07,-0.11 0.24,-0.3 0.33,-0.39 0.48,-0.47 1,-0.74 1.68,-0.79zm4.61 7.29c0.21,-0.38 0.43,-0.75 0.6,-1.18 0.38,-0.95 0.6,-1.92 0.43,-3.1 -0.19,-1.32 -0.82,-2.53 -1.68,-3.45 -0.27,-0.3 -0.24,-0.26 -0.55,-0.54 -0.12,-0.11 -0.36,-0.28 -0.5,-0.37 -0.7,-0.47 -1.63,-0.76 -2.61,-0.79 -0.9,-0.03 -2.03,0.31 -2.68,0.73 -0.24,0.15 -0.36,0.23 -0.58,0.41 -0.21,0.18 -0.42,0.38 -0.6,0.6 -0.03,0.04 -0.07,0.07 -0.1,0.12 -0.17,0.2 -0.32,0.41 -0.46,0.63 -0.43,0.69 -0.81,1.6 -0.96,2.63 -0.17,1.13 -0.02,2.2 0.33,3.17 0.08,0.23 0.16,0.43 0.27,0.62 0.63,1.15 1.26,2.31 1.89,3.45l2.2 4.02c0.07,0.13 0.6,1.11 0.63,1.14l4.37 -8.09z"/>
   <path class="fil1" d="M12.72 16.53c-0.24,0.42 -0.46,0.84 -0.7,1.26 -0.19,0.36 -0.51,0.93 -0.68,1.27 -0.05,-0.04 -0.21,-0.36 -0.26,-0.44 -0.09,-0.17 -1.67,-3.03 -1.69,-3.1l-6.93 0.01 -1.85 7.42 19.15 0c-0.1,-0.08 -0.5,-0.19 -0.65,-0.66 -0.03,-0.1 0,-0.13 -0.09,-0.17 -0.13,-0.06 -0.25,-0.1 -0.38,-0.15 -0.13,-0.04 -0.24,-0.1 -0.35,-0.17 -0.14,-0.09 -0.31,-0.23 -0.4,-0.38 -0.05,-0.1 -0.03,-0.14 -0.06,-0.22 -0.01,-0.03 -0.08,-0.11 -0.11,-0.15 -0.04,-0.05 -0.06,-0.11 -0.08,-0.19l2.2 0c-0.05,-0.03 -3.92,-0.01 -4.34,-0.01 -1.45,0 -2.9,-0.01 -4.35,-0.01 -1.46,0 -2.91,0 -4.36,0 -0.1,0 -4.21,0 -4.33,-0.01l1.32 -5.28c0.12,-0.03 0.52,-0.02 0.67,-0.02 0.22,0 0.46,-0.01 0.68,0l-0.85 4.03 12.7 -0.09c-0.04,-0.04 -0.72,-0.47 -0.79,-0.51l-0.59 -0.39c-0.12,-0.08 -0.25,0.01 -0.27,-0.06 0,0 -0.01,-0.01 -0.01,-0.01 0,0 0,-0.01 0,-0.01l-0.11 -2.98 -1.45 0 -0.09 2.19c-0.04,-0.01 -0.12,-0.06 -0.18,-0.09 -0.22,-0.1 -0.41,-0.1 -0.56,-0.22 -0.29,-0.24 -0.23,-0.35 -0.2,-0.74 0.01,-0.12 0.01,-0.11 -0.01,-0.12z"/>
   <path class="fil2" d="M12.72 16.53l0.56 -1.01 0.48 -0.01 1.45 0 5.13 -0.01 0.95 3.94c0.04,0.22 0.12,0.48 0.17,0.7 0.03,0.13 0.16,0.61 0.16,0.7 0.02,0.03 0.33,1.35 0.39,1.58 0.04,0.17 0.09,0.36 0.12,0.53l-2.37 0 -19.15 0 1.85 -7.42 6.93 -0.01c0.02,0.07 1.6,2.93 1.69,3.1 0.05,0.08 0.21,0.4 0.26,0.44 0.17,-0.34 0.49,-0.91 0.68,-1.27 0.24,-0.42 0.46,-0.84 0.7,-1.26zm-1.39 1.51c-0.03,-0.03 -0.56,-1.01 -0.63,-1.14l-2.2 -4.02c-0.63,-1.14 -1.26,-2.3 -1.89,-3.45 -0.11,-0.19 -0.19,-0.39 -0.27,-0.62 -0.35,-0.97 -0.5,-2.04 -0.33,-3.17 0.15,-1.03 0.53,-1.94 0.96,-2.63 0.14,-0.22 0.29,-0.43 0.46,-0.63 0.03,-0.05 0.07,-0.08 0.1,-0.12 0.18,-0.22 0.39,-0.42 0.6,-0.6 0.22,-0.18 0.34,-0.26 0.58,-0.41 0.65,-0.42 1.78,-0.76 2.68,-0.73 0.98,0.03 1.91,0.32 2.61,0.79 0.14,0.09 0.38,0.26 0.5,0.37 0.31,0.28 0.28,0.24 0.55,0.54 0.86,0.92 1.49,2.13 1.68,3.45 0.17,1.18 -0.05,2.15 -0.43,3.1 -0.17,0.43 -0.39,0.8 -0.6,1.18l-4.37 8.09zm-5.86 -11.47c0,0.99 0.22,1.97 0.59,2.84 0.03,0.05 0.03,0.08 0.06,0.13l0.33 0.61c0.18,0.33 0.36,0.64 0.54,0.97l1.19 2.18c0.15,0.25 0.38,0.7 0.53,0.97l0.27 0.49c0.04,0.08 0.09,0.16 0.13,0.25l-7 0c-0.06,0.11 -0.1,0.38 -0.14,0.51 -0.04,0.18 -0.09,0.36 -0.13,0.54 -0.12,0.5 -0.27,1.07 -0.4,1.58 -0.31,1.24 -0.6,2.48 -0.92,3.71 -0.14,0.53 -0.26,1.05 -0.39,1.58 -0.03,0.1 -0.05,0.17 -0.07,0.27 -0.02,0.09 -0.06,0.18 -0.06,0.28l22.74 0c0,-0.1 -0.22,-0.95 -0.25,-1.07 -0.18,-0.8 -0.4,-1.59 -0.58,-2.38l-0.83 -3.46c-0.02,-0.11 -0.35,-1.51 -0.38,-1.59 -2.4,0 -4.78,0.01 -7.18,0.01 0.05,-0.07 0.09,-0.16 0.14,-0.24l0.4 -0.76c0.19,-0.34 0.36,-0.67 0.55,-1l1.76 -3.27c0.43,-0.8 0.78,-1.73 0.86,-2.68l0.03 -0.55c0,-0.22 -0.05,-0.75 -0.07,-0.93 -0.04,-0.23 -0.08,-0.44 -0.14,-0.65 -0.13,-0.52 -0.3,-0.99 -0.52,-1.43 -0.09,-0.17 -0.19,-0.34 -0.29,-0.49l-0.39 -0.57c-0.16,-0.23 -0.34,-0.43 -0.52,-0.64 -0.01,-0.02 -0.03,-0.03 -0.04,-0.05 -0.03,-0.02 -0.03,-0.02 -0.05,-0.04l-0.19 -0.19c-0.14,-0.12 -0.27,-0.24 -0.41,-0.35l-0.44 -0.32c-0.16,-0.1 -0.32,-0.18 -0.48,-0.27 -0.09,-0.04 -0.17,-0.08 -0.25,-0.11 -0.66,-0.3 -1.42,-0.45 -2.15,-0.45 -0.45,0 -0.87,0.07 -1.31,0.17 -0.29,0.06 -0.57,0.17 -0.85,0.28 -0.08,0.03 -0.18,0.07 -0.26,0.12l-0.49 0.27c-0.23,0.14 -0.45,0.31 -0.66,0.49l-0.29 0.29c-0.03,0.02 -0.03,0.02 -0.05,0.04l-0.24 0.26c-0.04,0.04 -0.05,0.07 -0.08,0.1 -0.18,0.21 -0.35,0.45 -0.49,0.69 -0.17,0.27 -0.37,0.59 -0.49,0.9 -0.11,0.29 -0.23,0.57 -0.32,0.87 -0.2,0.68 -0.32,1.37 -0.32,2.09z"/>
   <path class="fil3" d="M19.84 20.86l1.76 0c0.03,-0.01 0.01,0.01 0.02,-0.02 0,-0.09 -0.13,-0.57 -0.16,-0.7 -0.05,-0.22 -0.13,-0.48 -0.17,-0.7 -0.1,-0.01 -0.91,0 -1.09,0.01l-2.14 0.01c-0.35,0 -0.74,-0.01 -1.08,0.01l-12.7 0.09 0.85 -4.03c-0.22,-0.01 -0.46,0 -0.68,0 -0.15,0 -0.55,-0.01 -0.67,0.02l-1.32 5.28c0.12,0.01 4.23,0.01 4.33,0.01 1.45,0 2.9,0 4.36,0 1.45,0 2.9,0.01 4.35,0.01 0.42,0 4.29,-0.02 4.34,0.01z"/>
   <path class="fil4" d="M15.21 15.51l0.11 2.98c0,0 0,0.01 0,0.01 0,0 0.01,0.01 0.01,0.01 0.02,0.07 0.15,-0.02 0.27,0.06l0.59 0.39c0.07,0.04 0.75,0.47 0.79,0.51 0.34,-0.02 0.73,-0.01 1.08,-0.01l2.14 -0.01c0.18,-0.01 0.99,-0.02 1.09,-0.01l-0.95 -3.94 -5.13 0.01z"/>
   <path class="fil3" d="M11.06 3.18c-0.45,0.05 -0.91,0.24 -1.23,0.54 -0.03,0.03 -0.04,0.05 -0.07,0.07 -0.1,0.08 -0.27,0.31 -0.34,0.41 -0.33,0.49 -0.49,1.09 -0.44,1.72 0.1,1.32 1.14,2.43 2.46,2.31 0.32,-0.03 0.63,-0.14 0.88,-0.29 0.06,-0.04 0.12,-0.07 0.17,-0.12 0.4,-0.26 0.73,-0.75 0.89,-1.23 0.59,-1.77 -0.7,-3.57 -2.32,-3.41z"/>
   <path class="fil2" d="M11.06 3.18c1.62,-0.16 2.91,1.64 2.32,3.41 -0.16,0.48 -0.49,0.97 -0.89,1.23 -0.05,0.05 -0.11,0.08 -0.17,0.12 -0.25,0.15 -0.56,0.26 -0.88,0.29 -1.32,0.12 -2.36,-0.99 -2.46,-2.31 -0.05,-0.63 0.11,-1.23 0.44,-1.72 0.07,-0.1 0.24,-0.33 0.34,-0.41 0.03,-0.02 0.04,-0.04 0.07,-0.07 0.32,-0.3 0.78,-0.49 1.23,-0.54zm0.03 -0.52c-0.68,0.05 -1.2,0.32 -1.68,0.79 -0.09,0.09 -0.26,0.28 -0.33,0.39 -0.17,0.27 -0.25,0.36 -0.38,0.73 -0.14,0.39 -0.21,0.85 -0.19,1.32 0.08,1.61 1.35,2.97 2.91,2.86 0.59,-0.04 1.05,-0.26 1.49,-0.62 0.07,-0.06 0.12,-0.11 0.19,-0.17 0.14,-0.13 0.37,-0.45 0.46,-0.62 0.62,-1.12 0.57,-2.42 -0.13,-3.48 -0.05,-0.08 -0.1,-0.14 -0.16,-0.21 -0.08,-0.12 -0.24,-0.27 -0.35,-0.36 -0.49,-0.43 -1.18,-0.67 -1.83,-0.63z"/>
   <path class="fil4" d="M19.84 20.86l-2.2 0c0.02,0.08 0.04,0.14 0.08,0.19 0.03,0.04 0.1,0.12 0.11,0.15 0.03,0.08 0.01,0.12 0.06,0.22 0.09,0.15 0.26,0.29 0.4,0.38 0.11,0.07 0.22,0.13 0.35,0.17 0.13,0.05 0.25,0.09 0.38,0.15 0.09,0.04 0.06,0.07 0.09,0.17 0.15,0.47 0.55,0.58 0.65,0.66l2.37 0c-0.03,-0.17 -0.08,-0.36 -0.12,-0.53 -0.06,-0.23 -0.37,-1.55 -0.39,-1.58 -0.01,0.03 0.01,0.01 -0.02,0.02l-1.76 0z"/>
   <path class="fil4" d="M12.72 16.53c0.02,0.01 0.02,0 0.01,0.12 -0.03,0.39 -0.09,0.5 0.2,0.74 0.15,0.12 0.34,0.12 0.56,0.22 0.06,0.03 0.14,0.08 0.18,0.09l0.09 -2.19 -0.48 0.01 -0.56 1.01z"/>
  </g>
 </g>
</svg>
