<?xml version="1.0" encoding="UTF-8"?>
<!DOCTYPE svg PUBLIC "-//W3C//DTD SVG 1.1//EN" "http://www.w3.org/Graphics/SVG/1.1/DTD/svg11.dtd">
<!-- Creator: CorelDRAW 2021 (64 Bit) -->
<svg xmlns="http://www.w3.org/2000/svg" xml:space="preserve" width="325px" height="325px" version="1.1" style="shape-rendering:geometricPrecision; text-rendering:geometricPrecision; image-rendering:optimizeQuality; fill-rule:evenodd; clip-rule:evenodd"
viewBox="0 0 137.42 137.42"
 xmlns:xlink="http://www.w3.org/1999/xlink"
 xmlns:xodm="http://www.corel.com/coreldraw/odm/2003">
 <defs>
  <style type="text/css">
   <![CDATA[
    .fil0 {fill:#B0AEAE}
    .fil1 {fill:#ED3237}
    .fil3 {fill:#F58736}
    .fil2 {fill:#FDFDFD}
   ]]>
  </style>
 </defs>
 <g id="Camada_x0020_1">
  <metadata id="CorelCorpID_0Corel-Layer"/>
  <g id="_1527857857104">
   <path class="fil0" d="M10.73 10.71c2.93,-0.65 113.96,-0.48 115.93,0.03 0.69,4.1 0.18,97.45 0.18,108.5 0,9.68 2.94,7.54 -14.37,7.54 -31.97,0 -65.97,-0.39 -97.68,0 -2.3,0.03 -3.86,0.67 -4.24,-1.18 -0.03,-0.14 -0.49,-110.82 0.18,-114.89zm-10.73 -0.56l0 116.7c0,5.11 5.06,10.57 10.15,10.57l117.12 0c5.09,0 10.15,-5.46 10.15,-10.57l0 -115.86c0,-5.35 -4.55,-10.99 -9.73,-10.99l-117.97 0c-5.06,0 -9.72,5.79 -9.72,10.15z"/>
   <path class="fil1" d="M45.49 102.99c0.9,-0.77 2.05,-2.56 3.07,-3.68 11.69,-12.75 25.55,-29.77 37.42,-43.32l13.66 -15.66c3.12,4.36 4.31,4.12 7.71,11.32 2.15,4.53 3.53,9.89 3.72,15.56 0.2,5.86 -0.85,11.27 -2.73,16.18 -1.01,2.6 -1.83,4.17 -3.26,6.46 -9.39,15.13 -27.36,23.28 -46.13,19.09 -3.84,-0.86 -11.66,-3.7 -13.46,-5.95zm-8.04 -6.09c-3.46,-4.88 -4.37,-4.7 -7.64,-11.7 -13.96,-29.89 14.1,-64.83 48.45,-56.9 8.67,2 9.21,3.85 13.69,5.46 -0.73,1.87 -24.98,29.4 -27.08,31.97l-25.44 29.47c-1.05,1.23 -0.6,1.04 -1.98,1.7zm-23.74 -25.02c1.79,28.98 26.89,52.36 58.18,50.73 28.97,-1.51 53.59,-26.19 51.8,-57.06 -1.68,-28.91 -26.9,-52.66 -58.16,-50.9 -29.06,1.65 -53.74,26.13 -51.82,57.23z"/>
   <path class="fil2" d="M13.71 71.88c-1.92,-31.1 22.76,-55.58 51.82,-57.23 31.26,-1.76 56.48,21.99 58.16,50.9 1.79,30.87 -22.83,55.55 -51.8,57.06 -31.29,1.63 -56.39,-21.75 -58.18,-50.73zm-2.98 -61.17c-0.67,4.07 -0.21,114.75 -0.18,114.89 0.38,1.85 1.94,1.21 4.24,1.18 31.71,-0.39 65.71,0 97.68,0 17.31,0 14.37,2.14 14.37,-7.54 0,-11.05 0.51,-104.4 -0.18,-108.5 -1.97,-0.51 -113,-0.68 -115.93,-0.03z"/>
   <path class="fil2" d="M60.84 48.63c-0.32,1.59 -4.42,2.83 0.94,5.34 0.07,1.86 -0.49,3.68 -1,5.12 -5.7,1.62 -3.47,0.02 -3.72,5.24 -1.51,0.79 -2.63,1.98 -4.87,2.1 -2,-2.55 -3.54,-2.21 -4.65,0.92 -1.93,0.14 -3.79,-0.46 -5.33,-0.89l-0.6 -3.65c-2.61,-0.83 -1.8,-0.09 -4.66,-0.1 -0.57,-1.19 -1.77,-2.81 -1.99,-4.36 0.66,-1.34 1.93,-1.57 1.57,-3.17 -0.33,-1.45 -1.57,-1.63 -2.53,-2.47 -0.06,-0.98 0.23,-3.52 0.86,-4.33 0.86,-1.1 2.31,-0.71 3.82,-1.22 1.06,-3.69 -1.88,-4.62 4.03,-6.63 1.9,0.7 2.83,3.32 5,0.42 1.13,-1.52 0.4,-1.64 2.93,-1.21 0.91,0.15 2.3,0.71 2.91,1 0.41,1.76 -0.11,2.93 1.41,3.66 1.37,0.66 1.91,-0.2 3.84,0.01 0.69,1.28 1.85,2.61 2.04,4.22zm-23.39 48.27c1.38,-0.66 0.93,-0.47 1.98,-1.7l25.44 -29.47c2.1,-2.57 26.35,-30.1 27.08,-31.97 -4.48,-1.61 -5.02,-3.46 -13.69,-5.46 -34.35,-7.93 -62.41,27.01 -48.45,56.9 3.27,7 4.18,6.82 7.64,11.7z"/>
   <path class="fil2" d="M99.58 73.48c1.99,-0.15 2.74,2.24 3.48,3.9 -0.72,1.75 -1.79,1.12 -1.62,3.35 0.14,1.78 1.42,1.83 2.56,2.45 0.1,6.74 -2.3,4.87 -4.73,5.89 -0.53,2.04 -0.04,2.04 0.02,3.95 -1.11,1.15 -2.4,2.13 -4.15,2.56 -2.06,-1.27 -0.9,-2.04 -4.51,-1.43 -1.26,2.16 -0.43,2.98 -4.13,2.06 -3.34,-0.84 -1.86,-1.25 -2.64,-4.22 -2.69,-1.06 -1.78,-0.1 -4.37,-0.27 -5.08,-6.8 0.04,-3.5 -0.84,-7.47 -0.28,-1.28 -1.46,-1.65 -2.43,-2.29 -0.46,-5.85 1.74,-4.55 4.59,-5.79 0.75,-2.23 0.03,-2.12 0.09,-4.19 4.11,-3.63 4.59,-2.05 5.44,-1.46 3.22,2.23 3.22,-0.53 4.63,-1.88 8.8,0.26 1.79,5.36 8.61,4.84zm-54.09 29.51c1.8,2.25 9.62,5.09 13.46,5.95 18.77,4.19 36.74,-3.96 46.13,-19.09 1.43,-2.29 2.25,-3.86 3.26,-6.46 1.88,-4.91 2.93,-10.32 2.73,-16.18 -0.19,-5.67 -1.57,-11.03 -3.72,-15.56 -3.4,-7.2 -4.59,-6.96 -7.71,-11.32l-13.66 15.66c-11.87,13.55 -25.73,30.57 -37.42,43.32 -1.02,1.12 -2.17,2.91 -3.07,3.68z"/>
   <path class="fil2" d="M86.26 73.43c1.41,0.46 0.93,0.58 1.55,0.81 2.51,0.93 1.8,-1.19 3.1,-1.53 4.34,0.57 2.6,0.58 3.8,3.36 2.16,0.4 2.14,-0.51 3.35,0.5 0.31,0.26 1.05,2 1.2,2.5 -0.55,0.81 -1.32,1.14 -1.03,2.39 0.23,0.97 1.15,1.3 1.71,1.84 -0.55,7.2 -4.26,0.12 -3.27,6.68 -0.81,0.78 -1.49,1.3 -2.8,1.81 -1.12,-0.5 -1.52,-1.43 -2.74,-1.05 -1.35,0.43 -0.6,0.78 -1.91,1.77 -3.69,-0.45 -2.78,-0.63 -3.65,-3.55l-3.1 0.17c-0.59,-0.87 -1.16,-1.77 -1.57,-2.87 1.35,-2.9 2.2,-2.04 -0.77,-4.26l0.71 -3.3c3.53,-1.04 2.75,0.13 2.81,-3.92l2.61 -1.35zm-1.83 -2.38l-1.97 1.42c0.06,2.29 0.23,4 -1.59,5.03 -3.64,2.04 -1.65,-1.52 -3.39,3.14 1.88,2.78 4.42,1.62 1.13,7.31l1.37 2.49c3.8,-0.74 5.31,0.03 5.67,4.03l2.71 0.73c1.12,-1.05 1.14,-2.23 3.06,-2.57 2.21,-0.38 3.04,0.78 4.08,1.53l2.47 -1.63c-0.5,-1.47 -0.78,-2.58 0.29,-4 0.29,-0.38 0.83,-0.8 1.44,-1.07 0.73,-0.31 0.32,-0.09 0.98,-0.31 0.12,-0.04 0.23,-0.06 0.35,-0.1l0.72 -0.24c0.09,-0.03 0.24,-0.07 0.35,-0.13l0.62 -2.64c-4.97,-2.85 -1.9,-4.25 -1.28,-7.09l-1.24 -2.17c-5.92,1.07 -4.38,-0.82 -5.91,-4.13l-2.53 -0.64c-0.66,0.69 -0.71,0.98 -1.23,1.51 -2.65,2.71 -5,-0.07 -6.1,-0.47z"/>
   <path class="fil2" d="M55.92 52.53c0.98,1.25 0.92,0.8 1.9,1.58 -0.61,5.73 -1.84,2.35 -3.27,4.26 -1.47,1.99 2.15,2.29 -2.97,4.33 -1.53,-0.87 -0.93,-1.09 -3.27,-1.09l-0.8 1.8c-4.4,-0.26 -3.09,-0.62 -4.2,-3.47l-3.13 0.08 -1.46 -2.68c0.55,-1.43 1.12,-0.76 1.07,-2.37 -0.06,-1.74 -0.47,-0.89 -1.73,-2.12l0.53 -3.14c0.23,-0.03 0.4,-0.19 0.47,-0.09 0,0.01 1.79,-0.28 2.18,-0.8 0.7,-0.93 0.14,-1.58 0.26,-3.1 0.66,-0.3 1.46,-0.95 1.9,-1.1 2.1,-0.73 1.01,-0.17 2.08,0.39 2.22,1.15 1.99,-0.04 3.15,-1.37 5.34,0.24 2.29,2.04 4.22,3.3 1.94,1.27 2.5,-2.05 4.24,2.95 -0.67,1.58 -0.89,0.63 -1.17,2.64zm-15.59 -9.24c-0.28,1.71 0.36,3.83 -1.33,5.01 -3.17,2.2 -2.49,-1.73 -3.69,3.59 1.52,1.16 4.65,2.84 1.12,6.88l1.32 2.48c2.02,-0.2 3.68,-0.43 4.82,1.05 2.25,2.94 -1.47,2.53 3.52,3.77l1.3 -1.36c2.6,-2.66 4.64,-0.52 6.02,0.34l2.33 -1.52c-0.98,-4.24 0.27,-4.98 4.14,-5.7l0.67 -3.01c-1.29,-0.45 -2.26,-1.08 -2.58,-2.5 -0.31,-1.33 -0.09,-1.9 0.63,-3.03 0.52,-0.81 0.23,-0.14 0.77,-1.09 -1.95,-4.09 -0.88,-1.76 -4.26,-2.27 -2.32,-0.35 -2.6,-1.94 -2.77,-4.38l-2.86 -0.61c-0.99,1.37 -1.47,2.98 -4.15,2.56 -3.28,-0.52 -0.84,-2.86 -5,-0.21z"/>
   <path class="fil3" d="M59.37 48.2c-0.54,0.95 -0.25,0.28 -0.77,1.09 -0.72,1.13 -0.94,1.7 -0.63,3.03 0.32,1.42 1.29,2.05 2.58,2.5l-0.67 3.01c-3.87,0.72 -5.12,1.46 -4.14,5.7l-2.33 1.52c-1.38,-0.86 -3.42,-3 -6.02,-0.34l-1.3 1.36c-4.99,-1.24 -1.27,-0.83 -3.52,-3.77 -1.14,-1.48 -2.8,-1.25 -4.82,-1.05l-1.32 -2.48c3.53,-4.04 0.4,-5.72 -1.12,-6.88 1.2,-5.32 0.52,-1.39 3.69,-3.59 1.69,-1.18 1.05,-3.3 1.33,-5.01 4.16,-2.65 1.72,-0.31 5,0.21 2.68,0.42 3.16,-1.19 4.15,-2.56l2.86 0.61c0.17,2.44 0.45,4.03 2.77,4.38 3.38,0.51 2.31,-1.82 4.26,2.27zm-16.66 -7.67c-5.91,2.01 -2.97,2.94 -4.03,6.63 -1.51,0.51 -2.96,0.12 -3.82,1.22 -0.63,0.81 -0.92,3.35 -0.86,4.33 0.96,0.84 2.2,1.02 2.53,2.47 0.36,1.6 -0.91,1.83 -1.57,3.17 0.22,1.55 1.42,3.17 1.99,4.36 2.86,0.01 2.05,-0.73 4.66,0.1l0.6 3.65c1.54,0.43 3.4,1.03 5.33,0.89 1.11,-3.13 2.65,-3.47 4.65,-0.92 2.24,-0.12 3.36,-1.31 4.87,-2.1 0.25,-5.22 -1.98,-3.62 3.72,-5.24 0.51,-1.44 1.07,-3.26 1,-5.12 -5.36,-2.51 -1.26,-3.75 -0.94,-5.34 -0.19,-1.61 -1.35,-2.94 -2.04,-4.22 -1.93,-0.21 -2.47,0.65 -3.84,-0.01 -1.52,-0.73 -1,-1.9 -1.41,-3.66 -0.61,-0.29 -2,-0.85 -2.91,-1 -2.53,-0.43 -1.8,-0.31 -2.93,1.21 -2.17,2.9 -3.1,0.28 -5,-0.42z"/>
   <path class="fil3" d="M84.43 71.05c1.1,0.4 3.45,3.18 6.1,0.47 0.52,-0.53 0.57,-0.82 1.23,-1.51l2.53 0.64c1.53,3.31 -0.01,5.2 5.91,4.13l1.24 2.17c-0.62,2.84 -3.69,4.24 1.28,7.09l-0.62 2.64c-0.11,0.06 -0.26,0.1 -0.35,0.13l-0.72 0.24c-0.12,0.04 -0.23,0.06 -0.35,0.1 -0.66,0.22 -0.25,0 -0.98,0.31 -0.61,0.27 -1.15,0.69 -1.44,1.07 -1.07,1.42 -0.79,2.53 -0.29,4l-2.47 1.63c-1.04,-0.75 -1.87,-1.91 -4.08,-1.53 -1.92,0.34 -1.94,1.52 -3.06,2.57l-2.71 -0.73c-0.36,-4 -1.87,-4.77 -5.67,-4.03l-1.37 -2.49c3.29,-5.69 0.75,-4.53 -1.13,-7.31 1.74,-4.66 -0.25,-1.1 3.39,-3.14 1.82,-1.03 1.65,-2.74 1.59,-5.03l1.97 -1.42zm-3.53 0.93c-0.06,2.07 0.66,1.96 -0.09,4.19 -2.85,1.24 -5.05,-0.06 -4.59,5.79 0.97,0.64 2.15,1.01 2.43,2.29 0.88,3.97 -4.24,0.67 0.84,7.47 2.59,0.17 1.68,-0.79 4.37,0.27 0.78,2.97 -0.7,3.38 2.64,4.22 3.7,0.92 2.87,0.1 4.13,-2.06 3.61,-0.61 2.45,0.16 4.51,1.43 1.75,-0.43 3.04,-1.41 4.15,-2.56 -0.06,-1.91 -0.55,-1.91 -0.02,-3.95 2.43,-1.02 4.83,0.85 4.73,-5.89 -1.14,-0.62 -2.42,-0.67 -2.56,-2.45 -0.17,-2.23 0.9,-1.6 1.62,-3.35 -0.74,-1.66 -1.49,-4.05 -3.48,-3.9 -6.82,0.52 0.19,-4.58 -8.61,-4.84 -1.41,1.35 -1.41,4.11 -4.63,1.88 -0.85,-0.59 -1.33,-2.17 -5.44,1.46z"/>
   <path class="fil2" d="M89.01 77.75c6.51,-1.75 8.18,8.14 2.63,9.69 -6.44,1.78 -9.79,-7.76 -2.63,-9.69zm6.81 8.71c0.65,-0.29 0.96,-0.29 1.56,-0.51 2.93,-1.08 1.22,-2.31 0.86,-2.75 -1.53,-1.91 -1.32,-3.61 -0.01,-4.29l-1.01 -1.88c-3.74,0.82 -3.14,-0.49 -4.2,-2.91 -3.29,-0.8 -1.01,-0.26 -3.11,1.01 -1.78,1.08 -2.4,-0.2 -3.42,-0.42 -2.19,-0.48 -1.62,1.44 -1.85,2.64 -0.5,2.65 -1.44,1.15 -2.83,2.37 -1.52,1.33 0.52,2.39 0.84,2.98 1.12,2.05 -0.54,2.71 -0.47,3.96 0.12,2.31 1.67,0.83 3.44,1.51 1.45,0.56 0.99,1.59 1.56,2.98 2.88,0.59 1.28,0.26 2.72,-0.84 2.75,-2.1 3.83,2.09 5.35,-0.49 0.3,-0.53 0.35,-2.6 0.57,-3.36z"/>
   <path class="fil2" d="M45.94 48.84c6.45,-2.97 9.8,7.39 3.82,9.41 -6.37,2.15 -9.69,-6.71 -3.82,-9.41zm-2.45 10.4c2.26,1.42 -0.28,2.23 2.75,3.1 0.96,0.01 0.98,-1.34 2.57,-1.68 1.69,-0.38 1.66,0.61 3.17,0.97 2.46,-2.37 0.53,-0.89 1.52,-3.47 0.62,-1.62 1.66,-0.96 2.96,-1.92 1.81,-2.84 -3.35,-1.34 -0.47,-6.58l-1.12 -1.71c-3.57,1.02 -3.13,-1.24 -4.13,-2.98 -4.2,-0.92 -1.5,3.49 -6.78,0.43l-1.47 0.9c0.4,5.75 -3.22,2.37 -3.44,5.42 -0.1,1.41 1.18,1.13 1.66,2.68 0.41,1.3 -0.58,2.05 -0.99,3.3 2.87,2.7 1.46,0.1 3.77,1.54z"/>
   <path class="fil3" d="M95.82 86.46c-0.22,0.76 -0.27,2.83 -0.57,3.36 -1.52,2.58 -2.6,-1.61 -5.35,0.49 -1.44,1.1 0.16,1.43 -2.72,0.84 -0.57,-1.39 -0.11,-2.42 -1.56,-2.98 -1.77,-0.68 -3.32,0.8 -3.44,-1.51 -0.07,-1.25 1.59,-1.91 0.47,-3.96 -0.32,-0.59 -2.36,-1.65 -0.84,-2.98 1.39,-1.22 2.33,0.28 2.83,-2.37 0.23,-1.2 -0.34,-3.12 1.85,-2.64 1.02,0.22 1.64,1.5 3.42,0.42 2.1,-1.27 -0.18,-1.81 3.11,-1.01 1.06,2.42 0.46,3.73 4.2,2.91l1.01 1.88c-1.31,0.68 -1.52,2.38 0.01,4.29 0.36,0.44 2.07,1.67 -0.86,2.75 -0.6,0.22 -0.91,0.22 -1.56,0.51zm-9.56 -13.03l-2.61 1.35c-0.06,4.05 0.72,2.88 -2.81,3.92l-0.71 3.3c2.97,2.22 2.12,1.36 0.77,4.26 0.41,1.1 0.98,2 1.57,2.87l3.1 -0.17c0.87,2.92 -0.04,3.1 3.65,3.55 1.31,-0.99 0.56,-1.34 1.91,-1.77 1.22,-0.38 1.62,0.55 2.74,1.05 1.31,-0.51 1.99,-1.03 2.8,-1.81 -0.99,-6.56 2.72,0.52 3.27,-6.68 -0.56,-0.54 -1.48,-0.87 -1.71,-1.84 -0.29,-1.25 0.48,-1.58 1.03,-2.39 -0.15,-0.5 -0.89,-2.24 -1.2,-2.5 -1.21,-1.01 -1.19,-0.1 -3.35,-0.5 -1.2,-2.78 0.54,-2.79 -3.8,-3.36 -1.3,0.34 -0.59,2.46 -3.1,1.53 -0.62,-0.23 -0.14,-0.35 -1.55,-0.81z"/>
   <path class="fil3" d="M42.49 46.3l1.47 -0.9c5.28,3.06 2.58,-1.35 6.78,-0.43 1,1.74 0.56,4 4.13,2.98l1.12 1.71c-2.88,5.24 2.28,3.74 0.47,6.58 -1.3,0.96 -2.34,0.3 -2.96,1.92 -0.99,2.58 0.94,1.1 -1.52,3.47 -1.51,-0.36 -1.48,-1.35 -3.17,-0.97 -1.59,0.34 -1.61,1.69 -2.57,1.68 -3.03,-0.87 -0.49,-1.68 -2.75,-3.1 -2.31,-1.44 -0.9,1.16 -3.77,-1.54 0.41,-1.25 1.4,-2 0.99,-3.3 -0.48,-1.55 -1.76,-1.27 -1.66,-2.68 0.22,-3.05 3.84,0.33 3.44,-5.42zm13.43 6.23c0.28,-2.01 0.5,-1.06 1.17,-2.64 -1.74,-5 -2.3,-1.68 -4.24,-2.95 -1.93,-1.26 1.12,-3.06 -4.22,-3.3 -1.16,1.33 -0.93,2.52 -3.15,1.37 -1.07,-0.56 0.02,-1.12 -2.08,-0.39 -0.44,0.15 -1.24,0.8 -1.9,1.1 -0.12,1.52 0.44,2.17 -0.26,3.1 -0.39,0.52 -2.18,0.81 -2.18,0.8 -0.07,-0.1 -0.24,0.06 -0.47,0.09l-0.53 3.14c1.26,1.23 1.67,0.38 1.73,2.12 0.05,1.61 -0.52,0.94 -1.07,2.37l1.46 2.68 3.13 -0.08c1.11,2.85 -0.2,3.21 4.2,3.47l0.8 -1.8c2.34,0 1.74,0.22 3.27,1.09 5.12,-2.04 1.5,-2.34 2.97,-4.33 1.43,-1.91 2.66,1.47 3.27,-4.26 -0.98,-0.78 -0.92,-0.33 -1.9,-1.58z"/>
   <path class="fil2" d="M86.43 83.3c0.68,4.41 7.99,3.89 7.33,-1.19 -0.59,-4.53 -8.18,-4.33 -7.33,1.19z"/>
   <path class="fil2" d="M46.41 50.14c-4.58,1.98 -1.39,8.97 3.18,6.67 3.79,-1.91 1.4,-8.66 -3.18,-6.67z"/>
   <path class="fil3" d="M46.41 50.14c4.58,-1.99 6.97,4.76 3.18,6.67 -4.57,2.3 -7.76,-4.69 -3.18,-6.67zm-0.47 -1.3c-5.87,2.7 -2.55,11.56 3.82,9.41 5.98,-2.02 2.63,-12.38 -3.82,-9.41z"/>
   <path class="fil3" d="M86.43 83.3c-0.85,-5.52 6.74,-5.72 7.33,-1.19 0.66,5.08 -6.65,5.6 -7.33,1.19zm2.58 -5.55c-7.16,1.93 -3.81,11.47 2.63,9.69 5.55,-1.55 3.88,-11.44 -2.63,-9.69z"/>
  </g>
 </g>
</svg>
