<?xml version="1.0" encoding="UTF-8"?>
<!DOCTYPE svg PUBLIC "-//W3C//DTD SVG 1.1//EN" "http://www.w3.org/Graphics/SVG/1.1/DTD/svg11.dtd">
<!-- Creator: CorelDRAW 2021 (64 Bit) -->
<svg xmlns="http://www.w3.org/2000/svg" xml:space="preserve" width="753px" height="752px" version="1.1" style="shape-rendering:geometricPrecision; text-rendering:geometricPrecision; image-rendering:optimizeQuality; fill-rule:evenodd; clip-rule:evenodd"
viewBox="0 0 261.37 261.03"
 xmlns:xlink="http://www.w3.org/1999/xlink"
 xmlns:xodm="http://www.corel.com/coreldraw/odm/2003">
 <defs>
  <style type="text/css">
   <![CDATA[
    .fil4 {fill:#00A859}
    .fil8 {fill:#206343}
    .fil2 {fill:#373434}
    .fil7 {fill:#703334}
    .fil6 {fill:#828181}
    .fil1 {fill:#B8B4B6}
    .fil9 {fill:#BDB41D}
    .fil3 {fill:#ED3237}
    .fil0 {fill:#FEFEFE}
    .fil5 {fill:#FFF212}
   ]]>
  </style>
 </defs>
 <g id="Camada_x0020_1">
  <metadata id="CorelCorpID_0Corel-Layer"/>
  <g id="_2180704755968">
   <path class="fil0" d="M80.71 225.63c-1.43,2.5 0.57,4.21 -4.39,8.65 -3.03,2.71 -6.05,2.33 -10.37,2.33 -4.69,0 -22.05,0.58 -25.22,-0.66 -7.61,-2.98 -6.68,-9.97 -6.68,-19.01l0 -51.72c0,-5.55 -1.48,-15.66 8.42,-17.58 2.71,-0.52 21.26,-0.23 25.56,-0.23 14.36,-0.03 11.24,11.5 12.64,13.62 3.78,0.52 4.63,-0.75 10.86,1.52 3.23,1.18 5.85,2.65 8.92,3.92 8.18,3.41 13.19,1.21 21.66,-0.31 5.5,-0.98 16.79,-3.68 21.95,-3.49 6.77,0.25 13.26,5.21 15.58,10.21l27.38 -12.59c11.24,-5.63 19.79,-6.84 30.23,0.8 5.06,3.69 13.01,11.58 9.41,18.36 -1.24,2.35 -3.01,2.99 -5.53,4.55 -8.37,5.19 -16.19,10.36 -24.55,15.36 -8.24,4.93 -16.34,10.26 -24.78,15.13 -8.12,4.68 -16.82,10.03 -25.89,14.03 -12.47,5.51 -17.83,7.36 -32.02,2.27 -4.74,-1.69 -9.68,-3.81 -14.79,-5 -7.81,-1.82 -11.12,-0.13 -18.39,-0.16zm55.42 -179.04c0.38,-0.35 -0.6,-0.3 0.98,-0.47l0 17.18 12.6 -0.05 15.17 -36.82 30.92 0.33c1.07,8.97 1.69,18.27 2.53,27.32 0.43,4.62 1.03,9.25 1.02,13.95 -0.02,7.72 0.32,70.57 -0.11,73.49l-147.62 0 0.11 -76.56 48.02 -17.8 -0.16 13.34 36.54 -13.91zm-118.21 193.96c0.26,2.57 1.38,3.02 3.93,3 53.7,-0.41 108.66,-0.02 162.47,-0.02 18.71,0 37.95,0.44 56.59,0.03 4.56,-0.1 3.15,-7.3 3.15,-11l0 -183.96c0,-35.76 3.08,-31.24 -11.15,-31.24l-183.97 0c-8.97,0 -19.34,-0.49 -28.13,-0.01 -4.25,0.23 -3.17,2.78 -3.18,11.11l0.29 212.09z"/>
   <path class="fil1" d="M17.92 240.55l-0.29 -212.09c0.01,-8.33 -1.07,-10.88 3.18,-11.11 8.79,-0.48 19.16,0.01 28.13,0.01l183.97 0c14.23,0 11.15,-4.52 11.15,31.24l0 183.96c0,3.7 1.41,10.9 -3.15,11 -18.64,0.41 -37.88,-0.03 -56.59,-0.03 -53.81,0 -108.77,-0.39 -162.47,0.02 -2.55,0.02 -3.67,-0.43 -3.93,-3zm-17.92 -184.67l0 -28.94c0.04,-2.7 0.36,-5.04 0.35,-8.2 -0.02,-3.64 0.4,-5.25 1.68,-7.69 1.37,-2.6 2.18,-3.26 4.13,-5.24 2.71,-2.74 7.66,-5.81 12.93,-5.81l223.89 0c10.2,0 18.39,10.59 18.39,18.74l0 222.85c0,6.36 -3.65,12.16 -8.47,15.82 -2.53,1.93 -6.99,3.62 -10.62,3.62l-222.15 0c-5.88,0 -10.46,-2.64 -13.45,-5.64 -8.29,-8.28 -6.33,-19.39 -6.33,-31.16 0,-52.94 -0.27,-106.43 0,-159.32 0.02,-3.18 -0.35,-5.54 -0.35,-9.03z"/>
   <path class="fil0" d="M114.55 87.22c0.44,-0.57 -0.47,-0.23 1.03,-0.4l4.52 0.02c4.28,0 14.97,-0.25 17.9,0.09 0.47,2.11 0.45,32 0.06,34.81 -2.7,0.37 -16,0.08 -20.74,0.12 -0.4,0.01 -1.05,0.05 -1.41,0.03l-1.41 -0.36 0.05 -34.31zm31.37 -0.71l23.1 -0.1c0.37,0.23 0.49,-0.15 0.55,1.73 0.17,5.71 0.21,31.85 -0.37,33.16 -0.35,0.06 -21.96,0.7 -23.4,-0.18 -0.67,-1.33 -0.27,-26.75 -0.28,-32.62 0,-1.25 -0.22,-1.33 0.4,-1.99zm-62.92 -0.08l23.1 0.06c0.77,0.47 0.42,1.84 0.42,3.76 -0.01,3.53 0.45,29.5 -0.29,30.9 -1.22,0.65 -9.39,0.29 -11.47,0.29 -2.85,0 -9.76,0.49 -11.87,-0.19 -0.85,-1.4 -0.39,-28.48 -0.39,-32.75 -0.01,-2.47 0.14,-1.72 0.5,-2.07zm110.43 49.51c0.95,-3.69 -0.55,-58.22 0.31,-66.89 -6.61,0.09 -60.24,0.39 -62.31,-0.2l-0.08 -10.88c0.02,-4.46 0.16,-2.9 -0.67,-3.52l-36.75 14.19 0.15 -13.48 -35.97 13.35c-0.75,0.45 -0.53,0.14 -0.87,0.91l-0.06 66.54 136.25 -0.02z"/>
   <path class="fil0" d="M80.87 165.62c-0.86,1.11 -0.6,1.5 -0.57,3.42 0.11,8.99 -0.47,50.6 0.28,51.99 8.58,1.24 7.22,-4.68 32.21,4.61 13.61,5.06 16.99,4.93 30.01,-0.58 12.29,-5.2 36.43,-20.2 48.43,-27.59 9.89,-6.08 19.83,-12.67 29.46,-18.43 2.47,-1.47 3.55,-2.98 1.64,-6.02 -2.08,-3.34 -5.99,-7.38 -9.31,-9.43 -11.46,-7.08 -18.82,-1.6 -28.76,2.95 -4.37,2 -8.79,3.93 -13.09,6.03 -3.79,1.86 -9.1,4.62 -12.89,5.96 -0.62,-1.05 -0.57,-2.26 -2.07,-4.64 -7.07,-11.28 -23.5,-5.03 -34.4,-3.12 -8.37,1.46 -13.32,3.5 -21.57,0.43 -7.98,-2.98 -9.21,-5.62 -19.37,-5.58z"/>
   <path class="fil2" d="M130.68 54.45c0.54,-0.5 -0.85,-0.38 0.99,-0.41l0.12 14.66 61.2 0.02c0.6,0.12 0.59,0.23 0.75,0.33 0.6,1.49 0.25,53.42 0.25,64.95 0,0.09 -0.01,1.02 -0.01,1.03 -0.18,0.91 0.07,0.48 -0.55,0.91l-136.25 0.02 0.06 -66.54c0.34,-0.77 0.12,-0.46 0.87,-0.91l35.97 -13.35 -0.15 13.48 36.75 -14.19zm37.57 -22.44l22.52 0.4 2.73 30.97 -37.94 -0.06 12.69 -31.31zm-18.54 31.24c-1.3,1.06 -12.05,0.47 -12.93,0.13l-0.01 -16.52c-0.38,-0.48 0.58,-0.75 -0.64,-0.27l-36.54 13.91 0.16 -13.34 -48.02 17.8 -0.11 76.56 147.62 0c0.43,-2.92 0.09,-65.77 0.11,-73.49 0.01,-4.7 -0.59,-9.33 -1.02,-13.95 -0.84,-9.05 -1.46,-18.35 -2.53,-27.32l-30.92 -0.33 -15.17 36.82z"/>
   <path class="fil1" d="M44.37 226.38c-0.53,-1.83 -0.36,-62.11 -0.17,-68.83l25.95 0.01c0.18,6.56 0.33,67.19 -0.21,68.92l-25.57 -0.1zm36.34 -0.75c-0.67,-0.69 -0.28,0 -0.53,-1.07 -0.01,-0.04 -0.08,-1.31 -0.08,-1.37 0.06,-1.49 -0.05,-1.2 0.48,-2.16 -0.75,-1.39 -0.17,-43 -0.28,-51.99 -0.03,-1.92 -0.29,-2.31 0.57,-3.42 -1.09,-0.78 -0.32,0.11 -0.68,-1.11 -0.01,-0.02 -0.1,-1.33 -0.1,-1.37 0.07,-1.68 -0.09,-1.15 0.58,-2.11 -1.4,-2.12 1.72,-13.65 -12.64,-13.62 -4.3,0 -22.85,-0.29 -25.56,0.23 -9.9,1.92 -8.42,12.03 -8.42,17.58l0 51.72c0,9.04 -0.93,16.03 6.68,19.01 3.17,1.24 20.53,0.66 25.22,0.66 4.32,0 7.34,0.38 10.37,-2.33 4.96,-4.44 2.96,-6.15 4.39,-8.65z"/>
   <path class="fil0" d="M44.37 226.38l25.57 0.1c0.54,-1.73 0.39,-62.36 0.21,-68.92l-25.95 -0.01c-0.19,6.72 -0.36,67 0.17,68.83z"/>
   <path class="fil2" d="M80.67 161.03c-0.67,0.96 -0.51,0.43 -0.58,2.11 0,0.04 0.09,1.35 0.1,1.37 0.36,1.22 -0.41,0.33 0.68,1.11 10.16,-0.04 11.39,2.6 19.37,5.58 8.25,3.07 13.2,1.03 21.57,-0.43 10.9,-1.91 27.33,-8.16 34.4,3.12 1.5,2.38 1.45,3.59 2.07,4.64 3.79,-1.34 9.1,-4.1 12.89,-5.96 4.3,-2.1 8.72,-4.03 13.09,-6.03 9.94,-4.55 17.3,-10.03 28.76,-2.95 3.32,2.05 7.23,6.09 9.31,9.43 1.91,3.04 0.83,4.55 -1.64,6.02 -9.63,5.76 -19.57,12.35 -29.46,18.43 -12,7.39 -36.14,22.39 -48.43,27.59 -13.02,5.51 -16.4,5.64 -30.01,0.58 -24.99,-9.29 -23.63,-3.37 -32.21,-4.61 -0.53,0.96 -0.42,0.67 -0.48,2.16 0,0.06 0.07,1.33 0.08,1.37 0.25,1.07 -0.14,0.38 0.53,1.07 7.27,0.03 10.58,-1.66 18.39,0.16 5.11,1.19 10.05,3.31 14.79,5 14.19,5.09 19.55,3.24 32.02,-2.27 9.07,-4 17.77,-9.35 25.89,-14.03 8.44,-4.87 16.54,-10.2 24.78,-15.13 8.36,-5 16.18,-10.17 24.55,-15.36 2.52,-1.56 4.29,-2.2 5.53,-4.55 3.6,-6.78 -4.35,-14.67 -9.41,-18.36 -10.44,-7.64 -18.99,-6.43 -30.23,-0.8l-27.38 12.59c-2.32,-5 -8.81,-9.96 -15.58,-10.21 -5.16,-0.19 -16.45,2.51 -21.95,3.49 -8.47,1.52 -13.48,3.72 -21.66,0.31 -3.07,-1.27 -5.69,-2.74 -8.92,-3.92 -6.23,-2.27 -7.08,-1 -10.86,-1.52z"/>
   <polygon class="fil0" points="155.56,63.32 193.5,63.38 190.77,32.41 168.25,32.01 "/>
   <path class="fil2" d="M88.58 92l11.94 0.06c0.46,0.56 0.26,-0.43 0.43,1.29l-0.31 22.21c-0.79,0.45 -1.91,0.31 -3.1,0.3 -2.3,-0.02 -7.75,0.26 -9.07,-0.21 -0.09,-0.16 -0.17,-0.16 -0.3,-0.79l-0.08 -20.46c-0.01,-2.54 0.16,-2.01 0.49,-2.4zm-5.69 29.25l23.34 -0.1 -0.13 -34.66 -23.1 -0.06 -0.11 34.82z"/>
   <path class="fil2" d="M120.11 92.84c0.53,-0.49 -0.36,-0.34 1.35,-0.46l11.13 0.12 -0.11 23.67 -9.6 0.11c-1.94,0.02 -1.92,0.2 -2.81,-0.35l0.04 -23.09zm-5.61 28.69l23.39 0 -0.04 -34.31 -23.3 0 -0.05 34.31z"/>
   <path class="fil2" d="M151.44 92.05l12.05 -0.12c0.78,0.7 0.59,1.41 0.57,2.83 -0.06,4.26 0.51,19.16 -0.39,21.01 -1.91,0.41 -4.42,0.16 -6.43,0.16 -1.72,0 -5.53,0.18 -5.7,-0.21 -0.04,-0.09 -0.16,-0.07 -0.23,-0.11 -0.8,-1.72 -0.26,-9.21 -0.26,-11.82 0,-2.09 0,-4.17 0,-6.25 0,-1.27 -0.5,-4.92 0.39,-5.49zm-5.64 29.07l23.32 0 -0.1 -34.71 -23.1 0.1 -0.12 34.61z"/>
   <polygon class="fil3" points="151.31,115.61 163.59,115.59 163.49,91.93 151.44,92.05 "/>
   <polygon class="fil4" points="88.47,115.65 100.64,115.56 100.52,92.06 88.58,92 "/>
   <polygon class="fil5" points="120.07,115.93 132.25,115.93 132.25,92.84 120.11,92.84 "/>
   <path class="fil6" d="M193.74 69.05c-0.86,8.67 0.64,63.2 -0.31,66.89 0.62,-0.43 0.37,0 0.55,-0.91 0,-0.01 0.01,-0.94 0.01,-1.03 0,-11.53 0.35,-63.46 -0.25,-64.95 -0.16,-0.1 -0.15,-0.21 -0.75,-0.33l-61.2 -0.02 -0.12 -14.66c-1.84,0.03 -0.45,-0.09 -0.99,0.41 0.83,0.62 0.69,-0.94 0.67,3.52l0.08 10.88c2.07,0.59 55.7,0.29 62.31,0.2z"/>
   <path class="fil1" d="M145.8 121.12c1.44,0.88 23.05,0.24 23.4,0.18 0.58,-1.31 0.54,-27.45 0.37,-33.16 -0.06,-1.88 -0.18,-1.5 -0.55,-1.73l0.1 34.71 -23.32 0 0.12 -34.61c-0.62,0.66 -0.4,0.74 -0.4,1.99 0.01,5.87 -0.39,31.29 0.28,32.62z"/>
   <path class="fil1" d="M82.89 121.25c2.11,0.68 9.02,0.19 11.87,0.19 2.08,0 10.25,0.36 11.47,-0.29 0.74,-1.4 0.28,-27.37 0.29,-30.9 0,-1.92 0.35,-3.29 -0.42,-3.76l0.13 34.66 -23.34 0.1 0.11 -34.82c-0.36,0.35 -0.51,-0.4 -0.5,2.07 0,4.27 -0.46,31.35 0.39,32.75z"/>
   <path class="fil6" d="M114.5 121.53l1.41 0.36c0.36,0.02 1.01,-0.02 1.41,-0.03 4.74,-0.04 18.04,0.25 20.74,-0.12 0.39,-2.81 0.41,-32.7 -0.06,-34.81 -2.93,-0.34 -13.62,-0.09 -17.9,-0.09l-4.52 -0.02c-1.5,0.17 -0.59,-0.17 -1.03,0.4l23.3 0 0.04 34.31 -23.39 0z"/>
   <path class="fil7" d="M151.31 115.61c0.07,0.04 0.19,0.02 0.23,0.11 0.17,0.39 3.98,0.21 5.7,0.21 2.01,0 4.52,0.25 6.43,-0.16 0.9,-1.85 0.33,-16.75 0.39,-21.01 0.02,-1.42 0.21,-2.13 -0.57,-2.83l0.1 23.66 -12.28 0.02 0.13 -23.56c-0.89,0.57 -0.39,4.22 -0.39,5.49 0,2.08 0,4.16 0,6.25 0,2.61 -0.54,10.1 0.26,11.82z"/>
   <path class="fil8" d="M88.47 115.65c1.32,0.47 6.77,0.19 9.07,0.21 1.19,0.01 2.31,0.15 3.1,-0.3l0.31 -22.21c-0.17,-1.72 0.03,-0.73 -0.43,-1.29l0.12 23.5 -12.17 0.09 0.11 -23.65c-0.33,0.39 -0.5,-0.14 -0.49,2.4l0.08 20.46c0.13,0.63 0.21,0.63 0.3,0.79z"/>
   <path class="fil9" d="M120.07 115.93c0.89,0.55 0.87,0.37 2.81,0.35l9.6 -0.11 0.11 -23.67 -11.13 -0.12c-1.71,0.12 -0.82,-0.03 -1.35,0.46l12.14 0 0 23.09 -12.18 0z"/>
   <path class="fil6" d="M149.71 63.25l-12.6 0.05 0 -17.18c-1.58,0.17 -0.6,0.12 -0.98,0.47 1.22,-0.48 0.26,-0.21 0.64,0.27l0.01 16.52c0.88,0.34 11.63,0.93 12.93,-0.13z"/>
  </g>
 </g>
</svg>
