<?xml version="1.0" encoding="UTF-8"?>
<!DOCTYPE svg PUBLIC "-//W3C//DTD SVG 1.1//EN" "http://www.w3.org/Graphics/SVG/1.1/DTD/svg11.dtd">
<!-- Creator: CorelDRAW 2021 (64 Bit) -->
<svg xmlns="http://www.w3.org/2000/svg" xml:space="preserve" width="56px" height="62px" version="1.1" style="shape-rendering:geometricPrecision; text-rendering:geometricPrecision; image-rendering:optimizeQuality; fill-rule:evenodd; clip-rule:evenodd"
viewBox="0 0 6.97 7.71"
 xmlns:xlink="http://www.w3.org/1999/xlink"
 xmlns:xodm="http://www.corel.com/coreldraw/odm/2003">
 <defs>
  <style type="text/css">
   <![CDATA[
    .str0 {stroke:#FCFCFC;stroke-width:0.25;stroke-miterlimit:22.9256}
    .fil0 {fill:black}
   ]]>
  </style>
 </defs>
 <g id="Camada_x0020_1">
  <metadata id="CorelCorpID_0Corel-Layer"/>
  <g id="_2452310101504">
   <path class="fil0 str0" d="M0.14 1.34c0,1.99 -0.22,3.31 0.87,4.75 0.29,0.37 1.58,1.49 2.13,1.49 0.79,0 1.14,-0.71 1.75,-0.87 -0.21,-0.32 -0.29,-0.56 -0.5,-0.88 -0.45,0.12 -0.49,0.35 -1.25,0.75 -0.02,-0.02 -0.06,-0.08 -0.07,-0.06l-1.29 -1.07c-0.8,-1.02 -0.64,-2.22 -0.64,-3.62 0.38,0 0.71,-0.09 1.05,-0.2 0.37,-0.11 0.77,-0.37 0.97,-0.38 0.3,-0.02 1.24,0.57 2.11,0.58l0 0.75c0,1.25 0.41,-0.14 0.1,2.5 0.41,0.04 0.26,0 0.52,0.13 0.53,-1 0.37,-2.57 0.37,-3.87 0,-0.64 -1.03,-0.48 -1.53,-0.6 -0.55,-0.13 -1.18,-0.6 -1.48,-0.61 -0.34,-0.03 -1,0.46 -1.47,0.59 -0.58,0.16 -1.64,-0.03 -1.64,0.62z"/>
   <path class="fil0 str0" d="M3.14 4.58c-0.34,-0.23 -0.45,-0.23 -0.5,-0.75 0.47,0.13 0.16,0.13 0.63,0.25 1.19,-1.78 1.22,0.14 -0.13,0.5zm0.25 1.25c2.52,0 2.4,-3.75 0.13,-3.75 -2.62,0 -2.46,3.75 -0.13,3.75z"/>
   <path class="fil0 str0" d="M4.64 5.58c0.07,0.24 0.07,0.18 0.11,0.27l0.48 0.77c0.84,0.88 0.72,0.78 1.53,0.59 0.19,-0.8 0.07,-0.76 -0.46,-1.29 -0.44,-0.43 -0.51,-0.65 -1.28,-0.71 -0.15,0.4 0.19,0.09 -0.38,0.37z"/>
  </g>
 </g>
</svg>
