<?xml version="1.0" encoding="UTF-8"?>
<!DOCTYPE svg PUBLIC "-//W3C//DTD SVG 1.1//EN" "http://www.w3.org/Graphics/SVG/1.1/DTD/svg11.dtd">
<!-- Creator: CorelDRAW 2021 (64 Bit) -->
<svg xmlns="http://www.w3.org/2000/svg" xml:space="preserve" width="753px" height="752px" version="1.1" style="shape-rendering:geometricPrecision; text-rendering:geometricPrecision; image-rendering:optimizeQuality; fill-rule:evenodd; clip-rule:evenodd"
viewBox="0 0 66.46 66.37"
 xmlns:xlink="http://www.w3.org/1999/xlink"
 xmlns:xodm="http://www.corel.com/coreldraw/odm/2003">
 <defs>
  <style type="text/css">
   <![CDATA[
    .fil2 {fill:black}
    .fil4 {fill:blue}
    .fil3 {fill:lime}
    .fil7 {fill:#5D5D5D}
    .fil1 {fill:#B8B4B6}
    .fil6 {fill:#FEFE00}
    .fil5 {fill:red}
    .fil0 {fill:white}
   ]]>
  </style>
 </defs>
 <g id="Camada_x0020_1">
  <metadata id="CorelCorpID_0Corel-Layer"/>
  <g id="_2179922520304">
   <path class="fil0" d="M22.81 56.21l-0.36 0.17c-0.17,2.52 -2.02,2.58 -3.74,2.58 -1.31,0 -5.18,0.19 -6.14,-0.21 -1.93,-0.81 -1.53,-3.1 -1.53,-4.83l0 -12.71c0,-0.96 -0.13,-2.03 0.31,-2.84 0.97,-1.79 2.98,-1.36 4.98,-1.36 1.06,0 2.12,-0.01 3.18,0 2.16,0 3.06,1.22 2.93,3.41 2.22,-0.24 3.27,0.6 4.95,1.29 1.97,0.82 3.21,0.31 5.25,-0.07 1.35,-0.24 4.13,-0.9 5.4,-0.87 1.87,0.05 3.36,1.38 3.85,2.51 0.57,-0.15 1.18,-0.51 1.71,-0.74l5 -2.33c1.22,-0.54 2.13,-1.14 3.73,-1.14 2.56,0 4.78,1.77 6,3.82 0.92,1.55 -0.23,2.43 -1.24,3.08 -1,0.64 -1.99,1.23 -2.98,1.87 -4.09,2.63 -11.33,7.11 -15.41,9.04 -2.84,1.34 -4.45,1.83 -7.77,0.71 -1.21,-0.41 -2.34,-0.91 -3.61,-1.25 -1.89,-0.5 -2.67,-0.16 -4.51,-0.13zm26.4 -33.95c0.93,-4.28 6.71,-3.28 6.66,0.6 -0.05,3.72 -5.64,4.83 -6.65,0.51l-2.1 -0.01 0 10.38 2.02 -0.01c0.84,-4.27 6.46,-3.52 6.66,0.24 0.2,3.5 -4.36,4.81 -6.13,2.05 -0.28,-0.44 -0.31,-0.76 -0.53,-1.15 -0.55,-0.1 -1.18,-0.04 -1.75,-0.04 -0.63,0 -1.18,0.14 -1.3,-0.42 -0.06,-0.07 -0.06,-0.01 -0.09,-0.17 -0.01,-0.1 -0.01,-0.25 -0.01,-0.35l0 -10.52 -10.5 0.04c0.32,1.16 1.06,0.98 1.52,1.62 0.48,0.67 -0.16,1.71 -0.44,2.36 -0.33,0.79 -0.51,1.83 -1.53,1.77 -0.19,-0.01 -1.69,-0.62 -2.45,0.43 -0.88,1.22 0.06,1.74 -0.25,2.67 -0.19,0.6 -1.36,0.93 -2.04,1.22 -3.56,1.5 -1.65,-1.47 -4.26,-1.28 -1.33,0.1 -1.43,1.14 -1.79,1.49 -0.67,0.63 -1.67,0 -2.39,-0.31 -0.79,-0.33 -1.78,-0.48 -1.88,-1.37 -0.09,-0.89 0.69,-1.41 -0.27,-2.48 -0.91,-1.01 -2.04,-0.35 -2.5,-0.37 -0.94,-0.03 -1.11,-1.06 -1.44,-1.86 -0.3,-0.71 -0.92,-1.73 -0.32,-2.4 0.51,-0.58 1.38,-0.4 1.5,-1.78 0.09,-1.12 -0.56,-1.52 -1.27,-1.91 -0.87,-0.49 -0.37,-1.49 -0.03,-2.3 0.31,-0.74 0.54,-1.81 1.19,-2.08 0.87,-0.35 1.46,0.64 2.66,-0.24 1.07,-0.79 0.57,-1.96 0.5,-2.34 -0.19,-1.07 0.78,-1.28 1.57,-1.6 0.61,-0.24 1.75,-0.91 2.39,-0.61 0.71,0.34 0.63,1.29 1.67,1.6 1.12,0.33 1.87,-0.3 2.21,-0.97 0.53,-1.02 1.11,-0.8 2.13,-0.37 0.65,0.27 1.82,0.63 2.2,1.07 0.68,0.81 -0.42,1.48 0.25,2.67 0.38,0.67 1.21,1.1 2.24,0.79 1.17,-0.34 1.44,0.56 1.78,1.36 0.66,1.58 1.32,2.49 -0.06,3.19 -0.62,0.31 -0.44,0.26 -0.8,0.82l10.42 0.06 -0.01 -10.52c0.04,-0.4 0.01,-0.15 0.11,-0.25 0.14,-0.55 0.66,-0.41 1.29,-0.41 0.6,0.01 1.2,0.02 1.8,-0.01 0.91,-4.34 6.54,-3.43 6.68,0.31 0.06,1.8 -1.3,3.26 -2.92,3.46 -1.99,0.24 -3.38,-1.09 -3.71,-2.67l-2.12 0.01 0 10.09 2.09 -0.01zm-44.77 -17.48c-0.11,4.75 -0.02,9.61 -0.01,14.37l0.04 28.68c0.01,2.39 0.01,4.77 0.01,7.15 0,1.21 0.01,2.41 0.01,3.62 0,0.79 -0.22,2.93 0.37,3.25 0.37,0.2 46.29,0.06 55.59,0.08 0.69,0 1.21,0.15 1.44,-0.39 0.24,-0.56 0.11,-45.09 0.11,-53.86 0,-0.79 0.22,-3.01 -0.43,-3.23 -0.47,-0.15 -48.06,-0.01 -55.66,-0.03 -0.89,0 -0.92,-0.11 -1.47,0.36z"/>
   <path class="fil1" d="M4.44 4.78c0.55,-0.47 0.58,-0.36 1.47,-0.36 7.6,0.02 55.19,-0.12 55.66,0.03 0.65,0.22 0.43,2.44 0.43,3.23 0,8.77 0.13,53.3 -0.11,53.86 -0.23,0.54 -0.75,0.39 -1.44,0.39 -9.3,-0.02 -55.22,0.12 -55.59,-0.08 -0.59,-0.32 -0.37,-2.46 -0.37,-3.25 0,-1.21 -0.01,-2.41 -0.01,-3.62 0,-2.38 0,-4.76 -0.01,-7.15l-0.04 -28.68c-0.01,-4.76 -0.1,-9.62 0.01,-14.37zm-4.44 -0.19l0 44.92c0,3.72 0.09,7.17 0.09,10.86 0,1.92 0.08,2.72 1.23,4.23 0.8,1.05 2.3,1.77 3.71,1.77l56.57 0c2.75,0 4.86,-2.55 4.86,-5.56l0 -55.43c0,-2.81 -2.16,-5.38 -4.77,-5.38l-56.84 0c-1.25,0 -2.63,0.76 -3.29,1.39 -0.75,0.73 -1.56,1.75 -1.56,3.2z"/>
   <path class="fil0" d="M22.75 41.47l-0.3 0.19 -0.01 13.5c3.79,-0.39 4.56,-0.17 7.79,1.01 3.24,1.18 4.13,1.39 7.34,0.02 4.28,-1.83 14.41,-8.26 18.77,-11.05 0.44,-0.28 1.13,-0.51 1.19,-1.12 0.08,-0.76 -1.52,-2.31 -1.93,-2.63 -2.36,-1.86 -4.22,-1.35 -6.78,-0.07l-6.28 2.9c0.16,0.46 0.84,1.23 0.63,1.68 -0.14,0.28 -1.17,0.75 -1.53,0.95 -1.89,1.07 -4.74,2.39 -6.85,3.03 -1.52,0.46 -3.48,1.28 -3.13,-0.24 0.37,-0.22 2.12,-0.59 2.79,-0.8 3.12,-1.02 4.66,-1.93 7.47,-3.37 -0.34,-1 -1.67,-3.05 -3.08,-3.47 -2.22,-0.68 -8.08,1.95 -11.14,0.99 -1.85,-0.59 -2.66,-1.54 -4.95,-1.52z"/>
   <path class="fil1" d="M13.62 39.57l6.27 0.03 0 16.79 -6.28 0 0.01 -16.82zm9.19 16.64l-0.39 0.01 0.02 -1.06 0.01 -13.5 0.3 -0.19 -0.33 0.01 0.02 -1.06c0.13,-2.19 -0.77,-3.41 -2.93,-3.41 -1.06,-0.01 -2.12,0 -3.18,0 -2,0 -4.01,-0.43 -4.98,1.36 -0.44,0.81 -0.31,1.88 -0.31,2.84l0 12.71c0,1.73 -0.4,4.02 1.53,4.83 0.96,0.4 4.83,0.21 6.14,0.21 1.72,0 3.57,-0.06 3.74,-2.58l0.36 -0.17z"/>
   <path class="fil2" d="M35.45 25.26c0.26,0.18 0.45,0.24 0.64,0.43l-0.96 2.38c-3.05,-0.73 -4.5,1.41 -3.83,3.78 -0.4,0.24 -1.96,0.88 -2.47,1.02 -0.55,-1.85 -3.57,-2.51 -4.92,-0.66 -0.2,0.27 -0.24,0.43 -0.44,0.65l-2.36 -1c0.24,-1.53 0.29,-2.14 -0.68,-3.13 -0.91,-0.91 -1.67,-1.01 -3.16,-0.67l-0.98 -2.38c0.02,-0.01 0.05,-0.03 0.06,-0.04l0.12 -0.08c2.9,-1.9 1.25,-4.81 -0.22,-5.24l1.05 -2.45c1.45,0.29 2.15,0.26 3.1,-0.64 0.92,-0.88 1,-1.73 0.68,-3.19l2.4 -0.98c0.43,0.51 0.27,0.73 1.05,1.24 0.52,0.34 0.96,0.51 1.68,0.52 1.27,0 2.33,-0.87 2.63,-1.79l2.46 0.96c-0.3,1.44 -0.22,2.39 0.63,3.23 0.76,0.76 1.85,0.99 3.18,0.63l0.98 2.36 -0.35 0.26c-2.08,1.36 -1.59,3.89 -0.29,4.79zm10.65 -13.77l-0.02 10.58c-0.02,0.16 -0.07,0.17 -0.08,0.19 -0.43,0.15 -8.09,0.05 -9.91,0.06 -0.6,0 -0.46,-0.02 -0.51,-0.12 0.36,-0.56 0.18,-0.51 0.8,-0.82 1.38,-0.7 0.72,-1.61 0.06,-3.19 -0.34,-0.8 -0.61,-1.7 -1.78,-1.36 -1.03,0.31 -1.86,-0.12 -2.24,-0.79 -0.67,-1.19 0.43,-1.86 -0.25,-2.67 -0.38,-0.44 -1.55,-0.8 -2.2,-1.07 -1.02,-0.43 -1.6,-0.65 -2.13,0.37 -0.34,0.67 -1.09,1.3 -2.21,0.97 -1.04,-0.31 -0.96,-1.26 -1.67,-1.6 -0.64,-0.3 -1.78,0.37 -2.39,0.61 -0.79,0.32 -1.76,0.53 -1.57,1.6 0.07,0.38 0.57,1.55 -0.5,2.34 -1.2,0.88 -1.79,-0.11 -2.66,0.24 -0.65,0.27 -0.88,1.34 -1.19,2.08 -0.34,0.81 -0.84,1.81 0.03,2.3 0.71,0.39 1.36,0.79 1.27,1.91 -0.12,1.38 -0.99,1.2 -1.5,1.78 -0.6,0.67 0.02,1.69 0.32,2.4 0.33,0.8 0.5,1.83 1.44,1.86 0.46,0.02 1.59,-0.64 2.5,0.37 0.96,1.07 0.18,1.59 0.27,2.48 0.1,0.89 1.09,1.04 1.88,1.37 0.72,0.31 1.72,0.94 2.39,0.31 0.36,-0.35 0.46,-1.39 1.79,-1.49 2.61,-0.19 0.7,2.78 4.26,1.28 0.68,-0.29 1.85,-0.62 2.04,-1.22 0.31,-0.93 -0.63,-1.45 0.25,-2.67 0.76,-1.05 2.26,-0.44 2.45,-0.43 1.02,0.06 1.2,-0.98 1.53,-1.77 0.28,-0.65 0.92,-1.69 0.44,-2.36 -0.46,-0.64 -1.2,-0.46 -1.52,-1.62 0.12,-0.17 0.81,-0.09 1.22,-0.09 1.45,0 9.11,-0.08 9.28,0.05 0.22,0.16 0.1,5.26 0.1,5.49 0,1.82 0.06,3.75 0,5.55 0.12,0.56 0.67,0.42 1.3,0.42 0.57,0 1.2,-0.06 1.75,0.04l0 -1.14 -2.02 0.01 0 -10.38 2.1 0.01 -0.01 -1.11 -2.09 0.01 0 -10.09 2.12 -0.01 -0.05 -1.1c-0.6,0.03 -1.2,0.02 -1.8,0.01 -0.63,0 -1.15,-0.14 -1.29,0.41z"/>
   <polygon class="fil0" points="13.61,56.39 19.89,56.39 19.89,39.6 13.62,39.57 "/>
   <path class="fil2" d="M22.44 40.42l-0.02 1.06 0.33 -0.01c2.29,-0.02 3.1,0.93 4.95,1.52 3.06,0.96 8.92,-1.67 11.14,-0.99 1.41,0.42 2.74,2.47 3.08,3.47 -2.81,1.44 -4.35,2.35 -7.47,3.37 -0.67,0.21 -2.42,0.58 -2.79,0.8 -0.35,1.52 1.61,0.7 3.13,0.24 2.11,-0.64 4.96,-1.96 6.85,-3.03 0.36,-0.2 1.39,-0.67 1.53,-0.95 0.21,-0.45 -0.47,-1.22 -0.63,-1.68l6.28 -2.9c2.56,-1.28 4.42,-1.79 6.78,0.07 0.41,0.32 2.01,1.87 1.93,2.63 -0.06,0.61 -0.75,0.84 -1.19,1.12 -4.36,2.79 -14.49,9.22 -18.77,11.05 -3.21,1.37 -4.1,1.16 -7.34,-0.02 -3.23,-1.18 -4,-1.4 -7.79,-1.01l-0.02 1.06 0.39 -0.01c1.84,-0.03 2.62,-0.37 4.51,0.13 1.27,0.34 2.4,0.84 3.61,1.25 3.32,1.12 4.93,0.63 7.77,-0.71 4.08,-1.93 11.32,-6.41 15.41,-9.04 0.99,-0.64 1.98,-1.23 2.98,-1.87 1.01,-0.65 2.16,-1.53 1.24,-3.08 -1.22,-2.05 -3.44,-3.82 -6,-3.82 -1.6,0 -2.51,0.6 -3.73,1.14l-5 2.33c-0.53,0.23 -1.14,0.59 -1.71,0.74 -0.49,-1.13 -1.98,-2.46 -3.85,-2.51 -1.27,-0.03 -4.05,0.63 -5.4,0.87 -2.04,0.38 -3.28,0.89 -5.25,0.07 -1.68,-0.69 -2.73,-1.53 -4.95,-1.29z"/>
   <path class="fil0" d="M23.93 15.25c0.97,-0.36 0.92,0.37 1.41,0.81 0.48,0.42 1.2,0.46 1.7,0.04 0.84,-0.71 -0.07,-1.62 3.04,-0.2 0.92,0.41 0.31,0.91 0.38,1.65 0.05,0.59 0.55,1.1 1.15,1.14 0.74,0.06 1.23,-0.55 1.65,0.39 1.4,3.14 0.52,2.16 -0.22,3.02 -0.38,0.43 -0.37,1.22 0.02,1.67 0.62,0.73 1.63,0.23 0.2,3.05 -0.46,0.91 -0.84,0.34 -1.64,0.4 -0.63,0.05 -1.1,0.5 -1.16,1.12 -0.08,0.79 0.52,1.31 -0.36,1.67 -2.98,1.25 -2.14,0.82 -2.99,-0.11 -0.41,-0.45 -1.14,-0.52 -1.69,-0.15 -0.47,0.3 -0.43,1.15 -1.28,1 -0.33,-0.06 -1.29,-0.5 -1.64,-0.65 -1.1,-0.44 -0.58,-0.72 -0.57,-1.6 0.01,-0.67 -0.48,-1.17 -1.06,-1.27 -0.72,-0.12 -1.25,0.55 -1.71,-0.33 -0.22,-0.42 -0.5,-1.16 -0.68,-1.61 -0.38,-1.02 0.33,-1.02 0.75,-1.38 0.38,-0.33 0.57,-1.2 0.15,-1.73 -0.4,-0.5 -1.16,-0.4 -0.98,-1.31 0.06,-0.31 0.51,-1.29 0.66,-1.64 0.38,-0.93 0.67,-0.59 1.51,-0.54 0.7,0.05 1.2,-0.41 1.32,-0.96 0.33,-1.46 -1.26,-1.26 2.04,-2.48zm-2.85 -1.21c0.32,1.46 0.24,2.31 -0.68,3.19 -0.95,0.9 -1.65,0.93 -3.1,0.64l-1.05 2.45c1.47,0.43 3.12,3.34 0.22,5.24l-0.12 0.08c-0.01,0.01 -0.04,0.03 -0.06,0.04l0.98 2.38c1.49,-0.34 2.25,-0.24 3.16,0.67 0.97,0.99 0.92,1.6 0.68,3.13l2.36 1c0.2,-0.22 0.24,-0.38 0.44,-0.65 1.35,-1.85 4.37,-1.19 4.92,0.66 0.51,-0.14 2.07,-0.78 2.47,-1.02 -0.67,-2.37 0.78,-4.51 3.83,-3.78l0.96 -2.38c-0.19,-0.19 -0.38,-0.25 -0.64,-0.43 -1.3,-0.9 -1.79,-3.43 0.29,-4.79l0.35 -0.26 -0.98 -2.36c-1.33,0.36 -2.42,0.13 -3.18,-0.63 -0.85,-0.84 -0.93,-1.79 -0.63,-3.23l-2.46 -0.96c-0.3,0.92 -1.36,1.79 -2.63,1.79 -0.72,-0.01 -1.16,-0.18 -1.68,-0.52 -0.78,-0.51 -0.62,-0.73 -1.05,-1.24l-2.4 0.98z"/>
   <path class="fil0" d="M25.35 18.95c2.49,-0.53 4.44,1.2 4.86,3.17 0.53,2.51 -1.26,4.47 -3.22,4.86 -5.25,1.06 -6.97,-6.88 -1.64,-8.03zm-2.76 -2.33c0.15,1.12 0.17,1.58 -0.52,2.27 -0.6,0.61 -1.25,0.7 -2.22,0.45l-0.68 1.66c0.25,0.3 1.24,0.57 1.24,1.95 0.01,1.12 -0.6,1.44 -1.23,1.94l0.67 1.68c0.91,-0.21 1.78,-0.07 2.29,0.45 0.57,0.58 0.62,1.32 0.43,2.3l1.69 0.66c0.38,-0.42 0.67,-1.26 1.95,-1.24 1.39,0.01 1.65,1.02 1.96,1.24l1.64 -0.69c-0.53,-1.92 0.79,-3.12 2.67,-2.73 0.21,-0.26 0.62,-1.28 0.71,-1.67 -0.43,-0.38 -1.23,-0.68 -1.22,-1.94 0,-0.48 0.14,-0.87 0.38,-1.19 0.13,-0.16 0.22,-0.27 0.39,-0.4l0.31 -0.23c0.17,-0.13 0.06,-0.04 0.15,-0.13l-0.67 -1.64c-1.03,0.07 -1.42,0.3 -2.22,-0.43 -0.51,-0.46 -0.78,-1.35 -0.51,-2.25 -0.26,-0.25 -1.32,-0.64 -1.76,-0.75 -0.2,0.65 -0.94,1.25 -1.83,1.25 -1.16,0.01 -1.46,-0.6 -1.94,-1.22l-1.68 0.66z"/>
   <path class="fil2" d="M24.27 15.96c0.48,0.62 0.78,1.23 1.94,1.22 0.89,0 1.63,-0.6 1.83,-1.25 0.44,0.11 1.5,0.5 1.76,0.75 -0.27,0.9 0,1.79 0.51,2.25 0.8,0.73 1.19,0.5 2.22,0.43l0.67 1.64c-0.09,0.09 0.02,0 -0.15,0.13l-0.31 0.23c-0.17,0.13 -0.26,0.24 -0.39,0.4 -0.24,0.32 -0.38,0.71 -0.38,1.19 -0.01,1.26 0.79,1.56 1.22,1.94 -0.09,0.39 -0.5,1.41 -0.71,1.67 -1.88,-0.39 -3.2,0.81 -2.67,2.73l-1.64 0.69c-0.31,-0.22 -0.57,-1.23 -1.96,-1.24 -1.28,-0.02 -1.57,0.82 -1.95,1.24l-1.69 -0.66c0.19,-0.98 0.14,-1.72 -0.43,-2.3 -0.51,-0.52 -1.38,-0.66 -2.29,-0.45l-0.67 -1.68c0.63,-0.5 1.24,-0.82 1.23,-1.94 0,-1.38 -0.99,-1.65 -1.24,-1.95l0.68 -1.66c0.97,0.25 1.62,0.16 2.22,-0.45 0.69,-0.69 0.67,-1.15 0.52,-2.27l1.68 -0.66zm-0.34 -0.71c-3.3,1.22 -1.71,1.02 -2.04,2.48 -0.12,0.55 -0.62,1.01 -1.32,0.96 -0.84,-0.05 -1.13,-0.39 -1.51,0.54 -0.15,0.35 -0.6,1.33 -0.66,1.64 -0.18,0.91 0.58,0.81 0.98,1.31 0.42,0.53 0.23,1.4 -0.15,1.73 -0.42,0.36 -1.13,0.36 -0.75,1.38 0.18,0.45 0.46,1.19 0.68,1.61 0.46,0.88 0.99,0.21 1.71,0.33 0.58,0.1 1.07,0.6 1.06,1.27 -0.01,0.88 -0.53,1.16 0.57,1.6 0.35,0.15 1.31,0.59 1.64,0.65 0.85,0.15 0.81,-0.7 1.28,-1 0.55,-0.37 1.28,-0.3 1.69,0.15 0.85,0.93 0.01,1.36 2.99,0.11 0.88,-0.36 0.28,-0.88 0.36,-1.67 0.06,-0.62 0.53,-1.07 1.16,-1.12 0.8,-0.06 1.18,0.51 1.64,-0.4 1.43,-2.82 0.42,-2.32 -0.2,-3.05 -0.39,-0.45 -0.4,-1.24 -0.02,-1.67 0.74,-0.86 1.62,0.12 0.22,-3.02 -0.42,-0.94 -0.91,-0.33 -1.65,-0.39 -0.6,-0.04 -1.1,-0.55 -1.15,-1.14 -0.07,-0.74 0.54,-1.24 -0.38,-1.65 -3.11,-1.42 -2.2,-0.51 -3.04,0.2 -0.5,0.42 -1.22,0.38 -1.7,-0.04 -0.49,-0.44 -0.44,-1.17 -1.41,-0.81z"/>
   <path class="fil3" d="M49.21 22.26l0.01 1.11c1.01,4.32 6.6,3.21 6.65,-0.51 0.05,-3.88 -5.73,-4.88 -6.66,-0.6z"/>
   <path class="fil4" d="M49.14 33.73l0 1.14c0.22,0.39 0.25,0.71 0.53,1.15 1.77,2.76 6.33,1.45 6.13,-2.05 -0.2,-3.76 -5.82,-4.51 -6.66,-0.24z"/>
   <path class="fil5" d="M49.19 11.07l0.05 1.1c0.33,1.58 1.72,2.91 3.71,2.67 1.62,-0.2 2.98,-1.66 2.92,-3.46 -0.14,-3.74 -5.77,-4.65 -6.68,-0.31z"/>
   <path class="fil6" d="M29.12 23.65c0.43,-1.85 -0.82,-3.26 -2.2,-3.61 -1.79,-0.46 -3.31,0.81 -3.64,2.17 -0.99,3.95 4.95,5.3 5.84,1.44z"/>
   <path class="fil2" d="M29.12 23.65c-0.89,3.86 -6.83,2.51 -5.84,-1.44 0.33,-1.36 1.85,-2.63 3.64,-2.17 1.38,0.35 2.63,1.76 2.2,3.61zm-3.77 -4.7c-5.33,1.15 -3.61,9.09 1.64,8.03 1.96,-0.39 3.75,-2.35 3.22,-4.86 -0.42,-1.97 -2.37,-3.7 -4.86,-3.17z"/>
   <path class="fil7" d="M46.09 34.41c0.06,-1.8 0,-3.73 0,-5.55 0,-0.23 0.12,-5.33 -0.1,-5.49 -0.17,-0.13 -7.83,-0.05 -9.28,-0.05 -0.41,0 -1.1,-0.08 -1.22,0.09l10.5 -0.04 0 10.52c0,0.1 0,0.25 0.01,0.35 0.03,0.16 0.03,0.1 0.09,0.17z"/>
   <path class="fil7" d="M46 22.26l-10.42 -0.06c0.05,0.1 -0.09,0.12 0.51,0.12 1.82,-0.01 9.48,0.09 9.91,-0.06 0.01,-0.02 0.06,-0.03 0.08,-0.19l0.02 -10.58c-0.1,0.1 -0.07,-0.15 -0.11,0.25l0.01 10.52z"/>
  </g>
 </g>
</svg>
