<?xml version="1.0" encoding="UTF-8"?>
<!DOCTYPE svg PUBLIC "-//W3C//DTD SVG 1.1//EN" "http://www.w3.org/Graphics/SVG/1.1/DTD/svg11.dtd">
<!-- Creator: CorelDRAW 2021 (64 Bit) -->
<svg xmlns="http://www.w3.org/2000/svg" xml:space="preserve" width="500px" height="500px" version="1.1" style="shape-rendering:geometricPrecision; text-rendering:geometricPrecision; image-rendering:optimizeQuality; fill-rule:evenodd; clip-rule:evenodd"
viewBox="0 0 131.23 131.23"
 xmlns:xlink="http://www.w3.org/1999/xlink"
 xmlns:xodm="http://www.corel.com/coreldraw/odm/2003">
 <defs>
  <style type="text/css">
   <![CDATA[
    .str3 {stroke:#BDBFC1;stroke-width:0.52;stroke-miterlimit:22.9256}
    .str2 {stroke:#FEF9FB;stroke-width:0.52;stroke-miterlimit:22.9256}
    .str1 {stroke:#A0DBEF;stroke-width:0.52;stroke-miterlimit:22.9256}
    .str0 {stroke:#FEF9FB;stroke-width:6.56;stroke-miterlimit:22.9256}
    .fil0 {fill:none}
    .fil2 {fill:#D2D3D5}
    .fil1 {fill:#00ACE2}
    .fil3 {fill:white}
   ]]>
  </style>
 </defs>
 <g id="Camada_x0020_1">
  <metadata id="CorelCorpID_0Corel-Layer"/>
  <g id="_2278910621952">
   <rect class="fil0" width="131.23" height="131.23"/>
   <g>
    <ellipse class="fil1 str0" cx="65.82" cy="67.57" rx="59.06" ry="56.54"/>
    <g>
     <path class="fil2 str1" d="M47.53 80.48l12.98 8.84 -14.95 12.93c-0.06,0.04 1.81,-17.49 1.97,-21.77z"/>
     <path class="fil3 str2" d="M19.63 71.28l27.31 8.78 36.98 25.26c1.42,0.81 2.18,0.51 2.35,-0.81l12.28 -64.86c0.36,-1.8 -0.4,-2.42 -2.67,-1.44l-76.34 30.81c-1.36,0.76 -1.31,1.52 0.09,2.26z"/>
     <path class="fil2 str3" d="M44.11 101.53c0.74,1.42 1.39,1.47 1.82,-0.26l1.6 -20.79 36.17 -29.72 -50.41 24.91 10.82 25.86z"/>
     <path class="fil0 str1" d="M33.29 75.67l-13.66 -4.39c-1.36,-0.59 -1.39,-1.34 -0.09,-2.26l76.34 -30.81c2.28,-1.06 3.37,-0.43 2.72,1.77l-12.33 64.53c-0.22,1.43 -1.03,1.63 -2.35,0.81l-36.39 -24.84 -1.6 20.79c-0.27,1.63 -1.03,1.71 -1.82,0.26l-10.82 -25.86z"/>
    </g>
   </g>
  </g>
 </g>
</svg>
