<?xml version="1.0" encoding="UTF-8"?>
<!DOCTYPE svg PUBLIC "-//W3C//DTD SVG 1.1//EN" "http://www.w3.org/Graphics/SVG/1.1/DTD/svg11.dtd">
<!-- Creator: CorelDRAW 2021 (64 Bit) -->
<svg xmlns="http://www.w3.org/2000/svg" xml:space="preserve" width="470px" height="470px" version="1.1" style="shape-rendering:geometricPrecision; text-rendering:geometricPrecision; image-rendering:optimizeQuality; fill-rule:evenodd; clip-rule:evenodd"
viewBox="0 0 300.06 300.06"
 xmlns:xlink="http://www.w3.org/1999/xlink"
 xmlns:xodm="http://www.corel.com/coreldraw/odm/2003">
 <defs>
  <style type="text/css">
   <![CDATA[
    .str0 {stroke:#E3FFFF;stroke-width:19.15;stroke-miterlimit:22.9256}
    .str2 {stroke:#1C8BD3;stroke-width:3.19;stroke-miterlimit:22.9256}
    .str1 {stroke:#1C8BD3;stroke-width:9.58;stroke-miterlimit:22.9256}
    .fil0 {fill:none}
    .fil2 {fill:#1C8BD3}
    .fil1 {fill:white}
   ]]>
  </style>
 </defs>
 <g id="Camada_x0020_1">
  <metadata id="CorelCorpID_0Corel-Layer"/>
  <g id="_2278149145872">
   <rect class="fil0" width="300.06" height="300.06"/>
   <g>
    <circle class="fil0 str0" cx="150.03" cy="150.03" r="127.68"/>
    <circle class="fil0 str1" cx="150.03" cy="150.03" r="127.68"/>
    <circle class="fil1" cx="150.03" cy="150.03" r="118.11"/>
    <path class="fil2 str2" d="M77.49 198.36c25.2,0.25 35.18,-3.4 46.5,-11.42 0.6,-0.43 0.78,-0.83 0.39,-0.78 -12.51,1.44 -28.23,-5.36 -34.38,-21.68 0,0 0,0 0,0 0,0 1.15,2.69 9.07,2.42 1.25,-0.05 4.97,-1.15 7.69,-2.69 0,0 0,0 0,0 -25.23,-13.55 -28.37,-28.86 -31.4,-35.55 -0.18,-0.39 5.08,2.75 5.44,2.91 4.47,2.1 6.36,3.79 11,4.6 0.84,0.15 4.75,-0.77 4.71,-1.35 -0.02,-0.26 0.02,-0.39 -0.12,-0.5 -6.53,-5.46 -10.83,-10.68 -13.14,-15.68 -5.18,-11.24 1.88,-26.62 3.39,-25.79 2.44,1.35 21.73,19.61 29.4,23.84 30.66,16.9 34.13,10.97 33.72,8.48 -3.67,-21.99 11.28,-33.15 14.36,-34.64 13.89,-6.71 26.39,-5.49 36.57,4.76 0.48,0.49 6.17,-0.94 8.67,-1.9 8.78,-3.39 9.81,-5.53 11.3,-5.93 0.15,-0.04 0.1,0.32 0.15,0.51 0.42,1.47 -0.61,5.23 -3.51,8.07 -4,3.92 -10.37,6.93 -10.68,7.16 -0.54,0.4 18.08,-0.68 18.08,-0.68 -0.43,1.24 -2.32,4.68 -3.07,5.64 -0.87,1.11 -1.78,1.79 -2.92,2.83 -2.5,2.29 -9.18,4.73 -9.18,4.73 0.36,4.32 2.69,4.26 -3.8,30.83 -5.77,23.62 -24.53,48.8 -58.21,62.81 -29.94,12.46 -59.91,-5.24 -70.03,-11z"/>
   </g>
  </g>
 </g>
</svg>
